<svg width="945" height="1000" viewBox="0 0 945 1000" fill="none" xmlns="http://www.w3.org/2000/svg">
<ellipse cx="472.5" cy="540.584" rx="459.147" ry="459.394" fill="#FFC700"/>
<mask id="mask0" mask-type="alpha" maskUnits="userSpaceOnUse" x="0" y="0" width="945" height="1000">
<path d="M945 501.017C945 777.721 729.807 1002.55 471.986 999.978C202.831 997.296 9.24456 784.156 0 501.017C0 224.313 210.748 0 471.986 0C733.225 0 945 224.313 945 501.017Z" fill="#C4C4C4"/>
</mask>
<g mask="url(#mask0)">
<path d="M29.309 824.094C34.8993 744.106 64.563 575.775 138.495 542.356C212.428 508.937 255.227 495.811 267.385 493.425H381.966C439.98 510.635 558.869 549.678 570.316 568.171C581.762 586.664 637.321 827.692 663.669 945.895L637.916 1001.05H538.159L558.822 945.895L509.917 763.663L485.054 1001.05H97.6825H41.1262L29.309 993.531L23.625 982.149L29.309 824.094Z" fill="#E1D5F7"/>
<path d="M230.09 772.767V503.985L258.588 487.909L296.118 531.678L381.781 484.579L386.653 494.329L424.007 507.328L338.924 779.035L310.949 1001.97H213.156L230.09 772.767Z" fill="url(#paint0_linear)"/>
<path d="M277.337 594.221L265.011 563.008L296.853 532.876L325.673 563.008L311.234 594.221V1000.63H224.951L277.337 594.221Z" fill="#B9A1EF"/>
<path d="M257.769 486.384L239.356 498.236L257.769 587.064L294.595 535.081L332.828 582.487L391.115 500.935L381.498 482.395L294.595 529.214L257.769 486.384Z" fill="#723EA2"/>
<path d="M256.478 432.876V489.318L302.334 538.719L374.109 489.318V432.876H256.478Z" fill="url(#paint1_linear)"/>
<path d="M183.648 294.068C186.432 291.529 200.77 284.68 200.77 284.68L219.183 314.133V382.426C219.183 382.426 213.652 387.622 203.82 380.549C193.987 373.476 179.217 336.434 177.432 326.571C175.647 316.709 180.863 296.606 183.648 294.068Z" fill="#FF9A92"/>
<path d="M444.35 294.068C441.566 291.529 427.228 284.68 427.228 284.68L408.815 314.133V382.426C408.815 382.426 414.346 387.622 424.179 380.549C434.011 373.476 448.781 336.434 450.566 326.571C452.351 316.709 447.135 296.606 444.35 294.068Z" fill="#FF9A92"/>
<path d="M219.239 394.133L198.244 321.754L206.571 199.379L305.32 192.795H420.051L424.16 237.405V321.754C424.16 337.608 412.283 376.11 406.184 394.133C393.635 431.221 352.771 459.394 313.739 478.407C285.491 464.533 234.25 435.203 219.239 394.133Z" fill="url(#paint2_linear)"/>
<path d="M427.818 202.462C434.837 196.638 448.053 180.571 444.766 162.895C448.361 178.31 446.821 185.505 434.495 202.462C444.022 199.057 447.867 195.888 449.004 194.121C449.147 193.801 449.275 193.497 449.389 193.212C449.359 193.448 449.24 193.754 449.004 194.121C446.997 198.624 442.173 206.319 436.035 207.087C429.461 207.909 427.818 204.346 427.818 202.462Z" fill="url(#paint3_linear)"/>
<path d="M205.307 265.279V354.566C201.815 340.128 199.272 289.305 188.487 292.388C172.115 248.397 178.08 235.5 192.211 221.964C181.733 226.295 174.748 240.463 172.565 247.005C172.784 239.786 178.59 222.099 200.069 209.105C178.59 192.862 183.698 161.278 188.937 147.516C187.627 162.632 189.068 192.862 205.307 192.862C177.542 134.928 222.988 99.2383 249.182 88.6353C244.598 94.2752 233.727 110.563 226.917 130.597C247.872 78.0772 295.02 57.2771 315.975 53.4419C309.208 62.4658 302.354 82.138 329.072 88.6353C345.835 83.7623 364.869 105.104 372.291 116.384C367.27 107.36 353.562 87.5524 338.894 80.5137C375.565 82.6795 402.195 123.377 410.926 143.456C410.271 137.139 406.08 120.715 394.555 105.555C431.226 123.152 428.607 177.972 437.774 205.721C454.011 209.105 451.443 271.32 447.334 300.61C445.28 291.361 438.603 291.618 435.522 292.388C427.738 294.336 420.384 335.841 417.546 354.566C417.765 329.073 424.285 276.784 420.094 255.127C415.903 233.469 416.82 215.66 410.926 209.105C405.033 202.55 400.835 201.931 388.786 205.721C350.267 213.253 307.692 211.135 252.685 205.721C209.728 205.721 203.343 244.298 205.307 265.279Z" fill="url(#paint4_linear)"/>
<path fill-rule="evenodd" clip-rule="evenodd" d="M374.821 470.381C395.327 472.319 410.505 490.409 408.793 510.988L393.406 695.939C393.228 698.085 392.873 700.174 392.356 702.193L402.711 703.021C403.15 700.993 403.463 698.914 403.639 696.791L419.026 511.841C421.22 485.467 401.619 462.307 375.246 460.111L374.821 460.075V470.381ZM223.753 495.578L216.87 578.313H206.566L213.52 494.725C215.485 471.11 234.258 452.927 257.096 450.958V461.277C239.558 463.213 225.271 477.332 223.753 495.578Z" fill="#6581C2"/>
<ellipse rx="22.8909" ry="22.9032" transform="matrix(1 0 0 -1 396.077 722.277)" fill="#6581C2"/>
<rect width="19.6208" height="32.7188" rx="9.81038" transform="matrix(0.998912 0.0466289 -0.0465789 0.998915 201.951 572.082)" fill="#6581C2"/>
<rect width="11.8641" height="26.5342" rx="5.93206" transform="matrix(0.998912 0.0466289 -0.0465789 0.998915 223.995 741.908)" fill="#6581C2"/>
<rect width="11.8641" height="26.5342" rx="5.93206" transform="matrix(0.998912 0.0466289 -0.0465789 0.998915 174.943 738.635)" fill="#6581C2"/>
<path fill-rule="evenodd" clip-rule="evenodd" d="M197.105 612.454L223.268 613.392C240.27 614.002 253.559 628.28 252.949 645.281L251.729 679.328L268.833 679.903L270.052 645.895C271 619.448 250.328 597.239 223.881 596.29L197.718 595.351C171.271 594.402 149.063 615.073 148.115 641.52L146.886 675.802L163.99 676.377L165.217 642.134C165.827 625.132 180.104 611.844 197.105 612.454Z" fill="#6581C2"/>
<path fill-rule="evenodd" clip-rule="evenodd" d="M184.934 611.013L235.516 612.828C248.739 613.303 259.075 624.407 258.601 637.631L255.361 728.018C254.901 740.861 244.415 750.979 231.699 751.117L231.612 757.964C248.037 757.872 261.609 744.831 262.202 728.264L265.442 637.876C266.051 620.874 252.763 606.597 235.761 605.987L185.179 604.172C168.178 603.562 153.901 616.851 153.292 633.852L150.052 724.24C149.469 740.503 161.602 754.272 177.537 755.973L177.624 749.089C165.55 747.47 156.447 736.913 156.893 724.485L160.133 634.098C160.606 620.874 171.711 610.539 184.934 611.013Z" fill="#6581C2"/>
</g>
<path d="M228.547 112.536C178.729 156.728 223.123 205.995 224.592 206.573L232.911 204.262C228.18 199.255 219.11 185.427 220.676 170.175C220.676 185.774 239.273 197.907 254.933 197.907C224.102 168.442 244.902 106.884 271.688 83.7598C247.036 94.5509 224.265 140.132 218.719 158.62C218.882 155.924 219.662 132.577 228.547 112.536Z" fill="url(#paint5_linear)" fill-opacity="0.4"/>
<path d="M256.28 156.215C242.311 122.916 282.644 79.9915 304.557 62.6914C255.664 123.122 310.207 181.051 343.59 202.462C330.579 200.749 298.497 188.074 274.256 151.076C271.38 167.52 278.878 192.185 282.987 202.462C279.905 200.921 270.25 189.513 256.28 156.215Z" fill="url(#paint6_linear)" fill-opacity="0.4"/>
<path d="M368.756 201.435C303.838 177.18 296.169 114.249 300.449 85.8154C314.418 130.624 348.383 147.65 363.62 150.562C362.421 138.572 356.635 110.789 343.076 95.5788C359.1 100.101 378.171 137.202 385.704 155.187C388.272 149.021 387.45 127.747 363.62 91.9818C421.141 138.743 408.302 182.936 394.949 195.782C362.49 191.26 338.968 161.696 331.264 147.479C336.742 160.154 351.91 188.691 368.756 201.435Z" fill="url(#paint7_linear)" fill-opacity="0.4"/>
<path d="M430.9 199.893C432.954 177.694 423.196 149.877 418.06 138.743C422.99 153.542 421.826 159.298 420.628 160.325L411.897 155.187C420.628 166.492 414.978 188.588 411.897 199.893C420.114 196.193 421.142 181.908 420.628 175.227C421.484 179.681 424.737 190.849 430.9 199.893Z" fill="url(#paint8_linear)" fill-opacity="0.4"/>
<defs>
<linearGradient id="paint0_linear" x1="318.424" y1="525.682" x2="274.723" y2="910.561" gradientUnits="userSpaceOnUse">
<stop offset="0.119792" stop-color="#583478"/>
<stop offset="0.713542" stop-color="#9B61CE"/>
</linearGradient>
<linearGradient id="paint1_linear" x1="315.293" y1="432.876" x2="315.342" y2="503.072" gradientUnits="userSpaceOnUse">
<stop stop-color="#FF7969"/>
<stop offset="1" stop-color="#FFA297"/>
</linearGradient>
<linearGradient id="paint2_linear" x1="311.202" y1="192.795" x2="311.202" y2="478.407" gradientUnits="userSpaceOnUse">
<stop stop-color="#FF9A92"/>
<stop offset="1" stop-color="#FFA49D"/>
</linearGradient>
<linearGradient id="paint3_linear" x1="438.603" y1="162.895" x2="438.603" y2="207.208" gradientUnits="userSpaceOnUse">
<stop stop-color="#0E267A"/>
<stop offset="1" stop-color="#0A184B"/>
</linearGradient>
<linearGradient id="paint4_linear" x1="311.493" y1="53.4419" x2="311.493" y2="354.566" gradientUnits="userSpaceOnUse">
<stop stop-color="#0E267A"/>
<stop offset="1" stop-color="#0A184B"/>
</linearGradient>
<linearGradient id="paint5_linear" x1="238.331" y1="83.7598" x2="238.331" y2="206.573" gradientUnits="userSpaceOnUse">
<stop stop-color="#6C7CC3"/>
<stop offset="1" stop-color="#3E53B0"/>
</linearGradient>
<linearGradient id="paint6_linear" x1="298.498" y1="62.6914" x2="298.498" y2="202.462" gradientUnits="userSpaceOnUse">
<stop stop-color="#6C7CC3"/>
<stop offset="1" stop-color="#3E53B0"/>
</linearGradient>
<linearGradient id="paint7_linear" x1="352.907" y1="85.8154" x2="352.907" y2="201.435" gradientUnits="userSpaceOnUse">
<stop stop-color="#6C7CC3"/>
<stop offset="1" stop-color="#3E53B0"/>
</linearGradient>
<linearGradient id="paint8_linear" x1="421.538" y1="138.743" x2="421.538" y2="199.893" gradientUnits="userSpaceOnUse">
<stop stop-color="#6C7CC3"/>
<stop offset="1" stop-color="#3E53B0"/>
</linearGradient>
</defs>
</svg>
