<svg width="491" height="300" viewBox="0 0 491 300" fill="none" xmlns="http://www.w3.org/2000/svg">
<path opacity="0.1" d="M296.255 101.268C293.603 100.765 290.862 101.064 288.381 102.128C286.884 102.792 285.264 103.131 283.627 103.124C281.99 103.117 280.374 102.763 278.883 102.086C277.125 101.315 275.22 100.935 273.3 100.972C271.381 101.01 269.492 101.463 267.765 102.302C266.779 102.826 265.68 103.102 264.563 103.105C260.056 103.105 256.305 98.5627 255.525 92.5687C256.425 91.9092 257.19 91.0832 257.779 90.1354C260.422 85.8748 264.516 83.1409 269.113 83.1409C273.709 83.1409 277.752 85.8419 280.381 90.0603C281.172 91.3361 282.279 92.3856 283.596 93.1067C284.912 93.8277 286.392 94.1958 287.893 94.1753H288.01C291.611 94.194 294.719 97.0736 296.255 101.268Z" fill="#080B24"/>
<path opacity="0.1" d="M309.964 82.4551L302.677 87.0821L307.1 79.0306C305.845 78.0315 304.295 77.4779 302.691 77.4569H302.574C302.068 77.4659 301.562 77.4297 301.062 77.3489L298.602 78.9132L299.663 76.9872C297.912 76.3757 296.4 75.2244 295.344 73.699L290.921 76.5174L293.738 71.4395C291.151 68.3344 287.667 66.4272 283.836 66.4272C279.24 66.4272 275.146 69.1659 272.502 73.4265C271.721 74.7058 270.613 75.7541 269.293 76.464C267.973 77.1739 266.488 77.5198 264.99 77.4663H264.742C259.666 77.4663 255.553 83.2254 255.553 90.3233C255.553 97.4212 259.666 103.18 264.742 103.18C265.858 103.177 266.956 102.903 267.944 102.382C269.67 101.541 271.558 101.086 273.478 101.048C275.398 101.01 277.303 101.39 279.061 102.161C280.547 102.829 282.157 103.176 283.787 103.18C285.416 103.184 287.028 102.845 288.517 102.184C290.262 101.428 292.15 101.055 294.052 101.092C295.954 101.128 297.826 101.573 299.541 102.396C300.518 102.907 301.603 103.176 302.705 103.18C307.781 103.18 311.893 97.4259 311.893 90.3233C311.921 87.58 311.257 84.874 309.964 82.4551Z" fill="#080B24"/>
<path d="M234.97 131.609C235.257 131.567 235.543 131.511 235.825 131.44C235.789 131.724 235.708 132 235.585 132.258C235.249 132.757 234.79 133.161 234.252 133.432C234.183 133.368 234.094 133.329 234 133.323C233.906 133.317 233.812 133.344 233.736 133.399C233.13 133.756 232.646 134.282 232.003 134.592C231.778 134.705 231.534 134.794 231.322 134.917C230.797 135.244 230.361 135.698 230.055 136.237C229.948 136.366 229.878 136.521 229.852 136.686C229.826 136.851 229.844 137.02 229.904 137.176C229.972 137.272 230.06 137.35 230.163 137.406C230.424 137.588 230.737 137.682 231.055 137.674C231.247 137.674 231.43 137.589 231.618 137.557C231.806 137.524 232.125 137.557 232.379 137.51C232.746 137.464 233.106 137.371 233.449 137.232L234.703 136.796C235.06 136.681 235.407 136.539 235.74 136.368C235.938 136.265 236.125 136.138 236.332 136.039C236.56 135.937 236.795 135.854 237.036 135.79L237.75 135.579C237.854 135.542 237.964 135.527 238.074 135.537C238.172 135.537 238.257 135.616 238.355 135.645C238.513 135.676 238.676 135.661 238.825 135.602L239.656 135.363C239.831 135.324 239.997 135.256 240.149 135.161C240.316 134.997 240.443 134.797 240.519 134.576C240.596 134.355 240.62 134.12 240.59 133.888C240.587 133.178 240.505 132.471 240.346 131.779C240.241 131.822 240.149 131.892 240.079 131.981C239.994 131.858 239.895 131.746 239.806 131.638C239.425 131.195 239.143 130.676 238.98 130.116C239.281 129.894 239.534 129.613 239.722 129.289C239.285 127.621 238.834 125.926 237.947 124.451C237.656 123.981 237.323 123.511 237.008 123.041C236.144 121.67 235.966 119.936 234.98 118.654C234.885 118.524 234.834 118.366 234.834 118.205C234.834 118.044 234.885 117.887 234.98 117.757C235.092 117.611 235.276 117.465 235.238 117.287C235.2 117.108 235.078 117.028 235.13 116.906C235.182 116.784 235.215 116.812 235.266 116.765C235.43 116.61 235.412 116.343 235.426 116.112C235.519 115.536 235.767 114.995 236.144 114.548C236.21 114.435 236.3 114.337 236.407 114.262C236.496 114.205 236.6 114.182 236.689 114.125C237.008 113.928 236.985 113.463 237.135 113.12C237.332 112.65 237.83 112.434 238.158 112.068C238.571 111.598 238.675 110.945 239.097 110.537C239.141 110.494 239.188 110.455 239.238 110.419C239.051 111.117 238.965 111.839 238.985 112.561C238.942 115.037 239.553 117.602 239.266 120.077C239.041 122.027 240.233 123.976 241.919 124.948C242.58 125.302 243.272 125.596 243.985 125.827C245.046 126.207 246.098 126.597 247.135 127.029C247.868 127.343 248.591 127.673 249.304 128.021C250.182 128.453 251.036 128.931 251.863 129.453C252.916 130.042 253.851 130.819 254.624 131.746C255.069 131.716 255.494 131.552 255.844 131.276C256.121 131.497 256.459 131.661 256.722 131.905C257.08 132.284 257.32 132.759 257.412 133.272H257.304L257.342 134.005C257.352 134.068 257.342 134.132 257.314 134.188C257.287 134.224 257.253 134.254 257.215 134.278L256.652 134.658C256.243 134.935 255.793 135.283 255.769 135.781C255.756 135.926 255.799 136.071 255.891 136.185C256.03 136.313 256.206 136.392 256.394 136.41C257.363 136.671 258.37 136.763 259.37 136.683C259.85 136.651 260.301 136.444 260.638 136.1C260.899 135.743 261.061 135.324 261.107 134.884C261.23 134.146 261.333 133.404 261.413 132.657C261.436 132.153 261.537 131.655 261.713 131.182C261.726 131.14 261.755 131.105 261.793 131.083C261.835 131.083 261.887 131.083 261.929 131.083C261.953 131.068 261.974 131.047 261.989 131.023C262.005 130.998 262.015 130.971 262.018 130.942C262.197 130.219 262.285 129.475 262.281 128.73C262.287 128.537 262.257 128.344 262.192 128.162C262.116 128.008 262.005 127.873 261.869 127.769C261.734 127.664 261.576 127.591 261.408 127.556C261.075 127.488 260.738 127.449 260.398 127.438C260.114 127.411 259.833 127.358 259.558 127.278C259.447 127.239 259.328 127.225 259.211 127.236C259.151 127.244 259.097 127.273 259.057 127.318C259.017 127.363 258.995 127.42 258.995 127.48C259.001 127.523 259.017 127.563 259.042 127.598L258.755 127.541C258.525 127.499 258.197 127.396 257.858 127.316V127.137C257.858 127.072 257.84 127.008 257.805 126.952C257.77 126.896 257.72 126.852 257.661 126.823L252.83 124.239L251.924 123.769C249.943 122.708 247.896 121.731 245.914 120.669C245.778 120.711 245.67 120.556 245.633 120.425C245.595 120.293 245.567 120.124 245.44 120.068C245.313 120.011 245.295 120.035 245.248 119.983C245.232 119.96 245.221 119.934 245.215 119.907C245.209 119.879 245.209 119.851 245.215 119.824C245.281 118.856 245.971 117.968 245.83 117.005C245.699 116.615 245.64 116.204 245.656 115.793C245.756 115.528 245.879 115.272 246.022 115.027C246.257 114.44 246.022 113.731 246.281 113.148C246.454 112.769 246.572 112.368 246.633 111.955C246.758 111.14 247.007 110.348 247.37 109.606C247.544 109.228 247.773 108.879 248.051 108.568C248.196 108.409 248.361 108.268 248.497 108.099C248.882 107.563 249.121 106.937 249.192 106.281C249.468 105.115 249.501 103.904 249.29 102.725C249.167 102.336 249.091 101.934 249.065 101.527C249.065 101.057 249.257 100.484 249.023 100.094C249.272 99.901 249.44 99.6209 249.492 99.3096C249.494 99.2 249.517 99.0918 249.558 98.9902C249.634 98.8735 249.739 98.7781 249.863 98.713C250.051 98.5679 250.194 98.373 250.277 98.1506C250.36 97.9281 250.379 97.6869 250.332 97.4541C250.581 97.5668 250.844 97.3132 250.962 97.0642C251.079 96.8152 251.173 96.5052 251.431 96.4018C251.612 96.3611 251.795 96.3344 251.98 96.322C252.271 96.2468 252.45 95.965 252.656 95.7442C253.113 95.3333 253.639 95.0072 254.21 94.7812C255.83 93.9592 257.154 92.6533 258.436 91.3661C259.108 90.7387 259.718 90.0482 260.258 89.304C260.403 89.0911 260.537 88.8699 260.657 88.6416H260.69V88.6792C260.69 88.759 260.732 88.8389 260.755 88.9188C260.812 89.1114 260.882 89.2992 260.948 89.4871C261.106 90.0557 261.382 90.5841 261.76 91.0373C261.818 91.0957 261.879 91.1506 261.943 91.2017C262.017 91.2608 262.096 91.3142 262.178 91.3615C262.512 91.5387 262.877 91.6488 263.253 91.6856C263.394 91.6856 263.539 91.7138 263.685 91.7185H264.117L267.075 91.7983C266.061 90.3186 265.981 88.402 266.047 86.6029C266.216 81.99 267.112 77.3348 266.281 72.797C266.213 72.2464 266.019 71.719 265.713 71.2562C265.223 70.7101 264.56 70.35 263.835 70.2369C263.122 70.1256 262.421 69.9462 261.741 69.7014C261.221 69.3826 260.669 69.1197 260.093 68.9169C259.659 68.8371 259.213 68.8371 258.779 68.9169C258.243 68.9967 257.713 69.0907 257.182 69.1987L257.056 69.2269H256.971H256.948H256.868H256.84H256.765H256.732H256.661H256.624H256.563H256.52H256.464H256.422L256.37 69.2504L256.323 69.2739L256.276 69.2974L256.229 69.3209L256.182 69.349L256.14 69.3772L256.098 69.4054L256.056 69.4383L256.018 69.4665L255.976 69.5041L255.943 69.5322L255.901 69.5745L255.873 69.6074C255.856 69.6224 255.842 69.6398 255.83 69.6591V69.6873L255.779 69.7624C255.738 69.8327 255.703 69.9066 255.675 69.9832C255.662 70.0201 255.651 70.0578 255.642 70.0959C255.624 70.1749 255.61 70.2549 255.6 70.3355C255.6 70.3778 255.6 70.4154 255.6 70.4577C255.6 70.4999 255.6 70.6221 255.6 70.7019C255.6 70.7818 255.6 70.9885 255.642 71.1106C254.994 71.4946 254.453 72.0368 254.07 72.6866C253.687 73.3365 253.476 74.0728 253.455 74.8267C253.434 75.5806 253.604 76.3276 253.949 76.9978C254.295 77.6681 254.805 78.2398 255.431 78.6595C255.435 78.733 255.435 78.8067 255.431 78.8802V78.9272C255.421 79.1855 255.394 79.4428 255.351 79.6976C254.626 79.556 253.888 79.4915 253.149 79.505C252.708 79.505 252.267 79.5426 251.821 79.5802C251.351 79.0165 250.919 78.3964 250.497 77.7857L249.52 76.353C249.178 75.8822 248.864 75.3912 248.581 74.8827C248.342 74.4129 248.154 73.9432 247.891 73.4734C247.342 72.5339 246.44 71.7542 246.332 70.6784L246.074 70.7348C245.933 70.4999 245.755 70.265 245.689 70.1241C245.335 69.3596 245.062 68.5597 244.877 67.7378C244.821 67.3062 244.689 66.888 244.487 66.5024C244.329 66.2745 244.138 66.0718 243.919 65.9011C243.566 65.5678 243.151 65.3061 242.698 65.1307C242.497 65.0567 242.283 65.0248 242.069 65.037C241.855 65.0491 241.646 65.105 241.454 65.2012C241.388 65.1777 241.327 65.1495 241.262 65.1307C241.036 65.0449 240.792 65.0147 240.552 65.0425C240.312 65.0703 240.082 65.1553 239.881 65.2904C239.518 65.6215 239.299 66.0819 239.271 66.5728C239.172 67.2395 239.287 67.9206 239.6 68.5176C239.971 69.1752 240.618 69.6168 241.163 70.1382C241.539 70.5031 241.869 70.9133 242.144 71.3596C242.23 72.3489 242.205 73.3447 242.069 74.3284C241.999 74.7511 241.891 75.1645 241.853 75.5873C241.717 77.1234 242.515 78.6595 242.234 80.172C242.185 80.3986 242.209 80.6346 242.302 80.8469C242.394 81.0593 242.551 81.2372 242.75 81.3558C243.18 81.5304 243.629 81.6533 244.088 81.7222C244.971 81.9477 245.741 82.5161 246.628 82.7275C247.041 82.8261 247.468 82.8449 247.877 82.9529H247.943C247.626 83.3106 247.401 83.7392 247.285 84.2025C247.107 84.9729 247.285 85.7949 247.093 86.5512C246.902 87.1758 246.598 87.7601 246.196 88.2752L244.046 91.3849C243.564 92.1123 243.036 92.8074 242.464 93.4659C241.478 94.5416 239.773 95.3966 239.276 96.6931L239.233 96.5991C238.524 97.1206 238.262 98.0929 237.693 98.7694C237.421 99.0982 237.078 99.366 236.778 99.6666C236.403 100.129 236.07 100.625 235.783 101.146C234.904 102.287 234.137 103.509 233.491 104.796C233.177 105.477 232.933 106.206 232.684 106.891C231.698 109.668 230.092 112.303 229.426 115.178C229.261 115.878 228.834 116.512 228.768 117.23C228.768 118.002 228.991 118.758 229.412 119.405C229.966 120.439 230.571 121.444 231.064 122.506C231.355 123.126 231.604 123.765 231.923 124.385C232.243 125.005 232.703 125.653 233.064 126.306C233.923 127.985 234.563 129.768 234.97 131.609ZM247.074 79.1433L246.99 79.101C246.66 78.9601 246.357 78.7613 246.098 78.5138C245.313 77.6683 244.971 76.4 244.727 75.2679C244.698 75.1363 244.67 75.0001 244.647 74.8639C245.636 76.1803 246.452 77.6186 247.074 79.1433Z" fill="url(#paint0_linear)"/>
<path d="M243.483 68.1464C243.427 67.7178 243.295 67.3027 243.093 66.9204C242.933 66.6924 242.74 66.4897 242.52 66.3191C242.166 65.9891 241.752 65.7307 241.3 65.5581C241.069 65.4683 240.821 65.436 240.576 65.4638C240.33 65.4916 240.095 65.5788 239.891 65.7178C239.528 66.0448 239.308 66.5025 239.281 66.9908C239.182 67.653 239.297 68.3294 239.609 68.9215C239.985 69.5744 240.633 70.0113 241.173 70.5327C241.569 70.9093 241.914 71.3375 242.196 71.8058C242.326 72.0503 242.483 72.2789 242.666 72.4869C242.757 72.5899 242.872 72.6699 243 72.7205C243.128 72.7711 243.266 72.7908 243.403 72.7781C243.632 72.7189 243.84 72.5969 244.004 72.4258C244.225 72.2332 244.825 71.8809 244.844 71.5709C244.863 71.2609 244.375 70.7535 244.276 70.5186C243.929 69.758 243.663 68.9629 243.483 68.1464Z" fill="#FBBEBE"/>
<path d="M256.14 80.2002C255.175 79.9405 254.178 79.8172 253.178 79.8338C251.511 79.8573 249.793 80.2613 248.206 79.7493C247.796 79.6073 247.397 79.4345 247.013 79.2325C246.686 79.0915 246.386 78.8944 246.126 78.65C245.337 77.8092 244.995 76.5503 244.75 75.4276C244.532 74.2967 244.406 73.1498 244.375 71.9984C243.977 72.2209 243.53 72.3388 243.074 72.3413C242.847 72.3346 242.63 72.2457 242.463 72.0911C242.297 71.9365 242.192 71.7266 242.168 71.5005C242.27 72.5641 242.25 73.6358 242.107 74.6948C242.037 75.1128 241.929 75.5215 241.891 75.9443C241.755 77.4663 242.558 78.993 242.271 80.4962C242.224 80.7214 242.248 80.9558 242.341 81.1666C242.433 81.3773 242.59 81.5535 242.788 81.6705C243.219 81.8457 243.67 81.9687 244.131 82.0369C245.013 82.2624 245.788 82.8214 246.675 83.0328C247.089 83.1314 247.516 83.1502 247.924 83.2583C248.511 83.4133 249.042 83.728 249.638 83.8549C250.084 83.9347 250.544 83.8783 250.999 83.9159C251.455 83.9535 251.779 84.0522 252.168 84.0663C252.654 84.0501 253.13 83.9303 253.564 83.7147C253.999 83.4992 254.383 83.193 254.69 82.8167C255.292 82.0158 255.78 81.1353 256.14 80.2002Z" fill="#F86D70"/>
<path opacity="0.1" d="M256.14 80.2002C255.175 79.9405 254.178 79.8172 253.178 79.8338C251.511 79.8573 249.793 80.2613 248.206 79.7493C247.796 79.6073 247.397 79.4345 247.013 79.2325C246.686 79.0915 246.386 78.8944 246.126 78.65C245.337 77.8092 244.995 76.5503 244.75 75.4276C244.532 74.2967 244.406 73.1498 244.375 71.9984C243.977 72.2209 243.53 72.3388 243.074 72.3413C242.847 72.3346 242.63 72.2457 242.463 72.0911C242.297 71.9365 242.192 71.7266 242.168 71.5005C242.27 72.5641 242.25 73.6358 242.107 74.6948C242.037 75.1128 241.929 75.5215 241.891 75.9443C241.755 77.4663 242.558 78.993 242.271 80.4962C242.224 80.7214 242.248 80.9558 242.341 81.1666C242.433 81.3773 242.59 81.5535 242.788 81.6705C243.219 81.8457 243.67 81.9687 244.131 82.0369C245.013 82.2624 245.788 82.8214 246.675 83.0328C247.089 83.1314 247.516 83.1502 247.924 83.2583C248.511 83.4133 249.042 83.728 249.638 83.8549C250.084 83.9347 250.544 83.8783 250.999 83.9159C251.455 83.9535 251.779 84.0522 252.168 84.0663C252.654 84.0501 253.13 83.9303 253.564 83.7147C253.999 83.4992 254.383 83.193 254.69 82.8167C255.292 82.0158 255.78 81.1353 256.14 80.2002Z" fill="black"/>
<g opacity="0.1">
<path opacity="0.1" d="M190.457 251.837V254.256C190.457 256.661 189.502 258.967 187.803 260.667C186.103 262.367 183.799 263.322 181.395 263.322C178.992 263.322 176.687 262.367 174.988 260.667C173.289 258.967 172.334 256.661 172.334 254.256V251.837C172.334 249.433 173.289 247.127 174.988 245.426C176.687 243.726 178.992 242.771 181.395 242.771C183.799 242.771 186.103 243.726 187.803 245.426C189.502 247.127 190.457 249.433 190.457 251.837Z" fill="#3F3D56"/>
<path opacity="0.1" d="M172.334 213.148V210.734C172.334 208.329 173.289 206.023 174.988 204.323C176.687 202.623 178.992 201.668 181.395 201.668C183.799 201.668 186.103 202.623 187.803 204.323C189.502 206.023 190.457 208.329 190.457 210.734V213.148C190.457 214.037 190.326 214.92 190.067 215.77C189.443 217.856 188.089 219.647 186.252 220.817C184.416 221.986 182.22 222.454 180.067 222.136C177.914 221.817 175.947 220.734 174.527 219.083C173.107 217.433 172.328 215.326 172.334 213.148Z" fill="#3F3D56"/>
<path opacity="0.1" d="M190.457 231.267V233.686C190.457 236.09 189.502 238.396 187.803 240.097C186.103 241.797 183.799 242.752 181.395 242.752C178.992 242.752 176.687 241.797 174.988 240.097C173.289 238.396 172.334 236.09 172.334 233.686V231.267C172.334 228.862 173.289 226.556 174.988 224.856C176.687 223.156 178.992 222.2 181.395 222.2C183.799 222.2 186.103 223.156 187.803 224.856C189.502 226.556 190.457 228.862 190.457 231.267Z" fill="#3F3D56"/>
<path opacity="0.1" d="M181.395 263.322C183.797 263.329 186.098 264.288 187.796 265.987C189.494 267.687 190.45 269.99 190.457 272.393V274.807C190.457 277.212 189.502 279.518 187.803 281.218C186.103 282.918 183.799 283.874 181.395 283.874C178.992 283.874 176.687 282.918 174.988 281.218C173.289 279.518 172.334 277.212 172.334 274.807V272.393C172.34 269.99 173.297 267.687 174.995 265.987C176.692 264.288 178.994 263.329 181.395 263.322Z" fill="#3F3D56"/>
<path opacity="0.1" d="M172.334 210.964V213.148C172.33 215.326 173.109 217.432 174.529 219.081C175.95 220.731 177.916 221.814 180.069 222.131C182.222 222.449 184.417 221.98 186.253 220.811C188.089 219.642 189.443 217.851 190.067 215.765L172.334 210.964Z" fill="black"/>
<path opacity="0.1" d="M172.334 231.516V233.705C172.336 235.878 173.119 237.978 174.539 239.623C175.959 241.267 177.922 242.347 180.071 242.665C182.22 242.982 184.411 242.517 186.246 241.353C188.081 240.19 189.437 238.406 190.067 236.326L172.334 231.516Z" fill="black"/>
<path opacity="0.1" d="M172.334 252.072V254.256C172.336 256.429 173.119 258.53 174.539 260.174C175.959 261.819 177.922 262.898 180.071 263.216C182.22 263.534 184.411 263.068 186.246 261.905C188.081 260.741 189.437 258.957 190.067 256.877L172.334 252.072Z" fill="black"/>
<path opacity="0.1" d="M172.334 272.604V274.789C172.328 276.967 173.107 279.073 174.527 280.724C175.947 282.374 177.914 283.458 180.067 283.776C182.22 284.094 184.416 283.626 186.252 282.457C188.089 281.288 189.443 279.496 190.067 277.41L172.334 272.604Z" fill="black"/>
<path opacity="0.1" d="M153.413 233.86L154.136 234.414C154.786 234.911 155.593 235.159 156.41 235.112C157.227 235.066 158 234.728 158.589 234.16C159.179 233.592 159.545 232.831 159.622 232.016C159.699 231.201 159.482 230.385 159.01 229.717C158.817 229.442 158.584 229.198 158.319 228.993L157.596 228.448C156.877 227.893 155.967 227.647 155.066 227.763C154.166 227.879 153.348 228.349 152.793 229.068C152.239 229.788 151.992 230.698 152.108 231.599C152.225 232.501 152.694 233.319 153.413 233.874V233.86Z" fill="#3F3D56"/>
<path opacity="0.1" d="M163.743 233.174L164.466 233.733C165.185 234.288 165.654 235.106 165.77 236.007C165.886 236.908 165.64 237.819 165.085 238.538C164.531 239.258 163.713 239.727 162.812 239.844C161.911 239.96 161.001 239.713 160.282 239.158L159.559 238.599C158.84 238.044 158.371 237.226 158.255 236.325C158.139 235.424 158.385 234.513 158.94 233.794C159.494 233.074 160.312 232.605 161.213 232.489C162.113 232.372 163.023 232.619 163.743 233.174Z" fill="#3F3D56"/>
<path opacity="0.1" d="M169.883 237.918L170.606 238.477C171.325 239.033 171.795 239.851 171.911 240.752C172.027 241.653 171.781 242.564 171.226 243.283C170.671 244.002 169.854 244.472 168.953 244.588C168.052 244.705 167.142 244.458 166.423 243.903L165.7 243.344C164.981 242.789 164.512 241.971 164.395 241.07C164.279 240.169 164.525 239.258 165.08 238.539C165.635 237.819 166.453 237.35 167.353 237.233C168.254 237.117 169.164 237.363 169.883 237.918Z" fill="#3F3D56"/>
<path opacity="0.1" d="M176.029 242.663L176.752 243.222C177.108 243.497 177.407 243.839 177.63 244.229C177.854 244.619 177.999 245.05 178.057 245.496C178.114 245.942 178.083 246.396 177.966 246.83C177.848 247.264 177.647 247.671 177.372 248.027C177.097 248.384 176.755 248.682 176.365 248.906C175.975 249.13 175.545 249.275 175.099 249.333C174.653 249.39 174.2 249.359 173.766 249.242C173.332 249.124 172.925 248.922 172.569 248.647L171.836 248.088C171.48 247.814 171.182 247.471 170.958 247.081C170.734 246.691 170.589 246.26 170.532 245.814C170.474 245.368 170.505 244.915 170.623 244.48C170.74 244.046 170.942 243.639 171.217 243.283C171.491 242.927 171.833 242.628 172.224 242.404C172.614 242.18 173.044 242.035 173.49 241.978C173.936 241.92 174.389 241.951 174.823 242.069C175.257 242.186 175.664 242.388 176.02 242.663H176.029Z" fill="#3F3D56"/>
<path opacity="0.1" d="M153.479 233.911L154.136 234.414C154.786 234.911 155.593 235.159 156.41 235.112C157.227 235.066 158 234.728 158.589 234.16C159.178 233.592 159.545 232.831 159.622 232.016C159.699 231.201 159.482 230.385 159.009 229.717L153.479 233.911Z" fill="black"/>
<path opacity="0.1" d="M159.63 238.656L160.287 239.158C160.937 239.656 161.744 239.903 162.561 239.857C163.378 239.81 164.151 239.472 164.74 238.904C165.33 238.336 165.696 237.575 165.773 236.76C165.85 235.945 165.633 235.129 165.16 234.461L159.63 238.656Z" fill="black"/>
<path opacity="0.1" d="M165.77 243.4L166.423 243.903C167.073 244.404 167.881 244.655 168.7 244.61C169.519 244.564 170.294 244.227 170.885 243.658C171.476 243.088 171.843 242.326 171.92 241.509C171.996 240.692 171.776 239.874 171.301 239.205L165.77 243.4Z" fill="black"/>
<path opacity="0.1" d="M156.625 121.266C155.258 121.236 153.899 121.481 152.627 121.984C151.355 122.487 150.197 123.239 149.22 124.196C148.242 125.154 147.466 126.296 146.936 127.557C146.406 128.819 146.133 130.173 146.133 131.541C146.133 132.91 146.406 134.264 146.936 135.525C147.466 136.787 148.242 137.929 149.22 138.886C150.197 139.843 151.355 140.596 152.627 141.099C153.899 141.602 155.258 141.846 156.625 141.817C155.258 141.788 153.899 142.032 152.627 142.535C151.355 143.039 150.197 143.791 149.22 144.748C148.242 145.705 147.466 146.848 146.936 148.109C146.406 149.37 146.133 150.725 146.133 152.093C146.133 153.461 146.406 154.816 146.936 156.077C147.466 157.338 148.242 158.481 149.22 159.438C150.197 160.395 151.355 161.147 152.627 161.65C153.899 162.154 155.258 162.398 156.625 162.369C153.901 162.369 151.288 163.451 149.361 165.379C147.435 167.307 146.352 169.921 146.352 172.647C146.352 175.373 147.435 177.987 149.361 179.914C151.288 181.842 153.901 182.925 156.625 182.925C155.258 182.896 153.899 183.14 152.627 183.643C151.355 184.146 150.197 184.898 149.22 185.856C148.242 186.813 147.466 187.955 146.936 189.217C146.406 190.478 146.133 191.832 146.133 193.201C146.133 194.569 146.406 195.923 146.936 197.185C147.466 198.446 148.242 199.588 149.22 200.546C150.197 201.503 151.355 202.255 152.627 202.758C153.899 203.261 155.258 203.506 156.625 203.476H206.167C207.534 203.506 208.893 203.261 210.165 202.758C211.436 202.255 212.595 201.503 213.572 200.546C214.549 199.588 215.326 198.446 215.856 197.185C216.386 195.923 216.659 194.569 216.659 193.201C216.659 191.832 216.386 190.478 215.856 189.217C215.326 187.955 214.549 186.813 213.572 185.856C212.595 184.898 211.436 184.146 210.165 183.643C208.893 183.14 207.534 182.896 206.167 182.925C208.891 182.925 211.504 181.842 213.43 179.914C215.357 177.987 216.439 175.373 216.439 172.647C216.439 169.921 215.357 167.307 213.43 165.379C211.504 163.451 208.891 162.369 206.167 162.369C207.534 162.398 208.893 162.154 210.165 161.65C211.436 161.147 212.595 160.395 213.572 159.438C214.549 158.481 215.326 157.338 215.856 156.077C216.386 154.816 216.659 153.461 216.659 152.093C216.659 150.725 216.386 149.37 215.856 148.109C215.326 146.848 214.549 145.705 213.572 144.748C212.595 143.791 211.436 143.039 210.165 142.535C208.893 142.032 207.534 141.788 206.167 141.817C207.534 141.846 208.893 141.602 210.165 141.099C211.436 140.596 212.595 139.843 213.572 138.886C214.549 137.929 215.326 136.787 215.856 135.525C216.386 134.264 216.659 132.91 216.659 131.541C216.659 130.173 216.386 128.819 215.856 127.557C215.326 126.296 214.549 125.154 213.572 124.196C212.595 123.239 211.436 122.487 210.165 121.984C208.893 121.481 207.534 121.236 206.167 121.266C208.891 121.266 211.504 120.183 213.43 118.255C215.357 116.328 216.439 113.713 216.439 110.988C216.439 108.262 215.357 105.647 213.43 103.72C211.504 101.792 208.891 100.709 206.167 100.709C207.534 100.739 208.893 100.495 210.165 99.9913C211.436 99.488 212.595 98.7358 213.572 97.7787C214.549 96.8216 215.326 95.6789 215.856 94.4177C216.386 93.1564 216.659 91.802 216.659 90.4337C216.659 89.0655 216.386 87.711 215.856 86.4498C215.326 85.1885 214.549 84.0458 213.572 83.0887C212.595 82.1317 211.436 81.3794 210.165 80.8762C208.893 80.3729 207.534 80.1287 206.167 80.158H203.904C202.603 71.3173 192.636 64.4402 180.49 64.4402C168.344 64.4402 158.376 71.3173 157.076 80.158H156.606C155.239 80.1287 153.88 80.3729 152.608 80.8762C151.337 81.3794 150.178 82.1317 149.201 83.0887C148.224 84.0458 147.447 85.1885 146.917 86.4498C146.387 87.711 146.114 89.0655 146.114 90.4337C146.114 91.802 146.387 93.1564 146.917 94.4177C147.447 95.6789 148.224 96.8216 149.201 97.7787C150.178 98.7358 151.337 99.488 152.608 99.9913C153.88 100.495 155.239 100.739 156.606 100.709C153.882 100.709 151.269 101.792 149.342 103.72C147.416 105.647 146.334 108.262 146.334 110.988C146.334 113.713 147.416 116.328 149.342 118.255C151.269 120.183 153.882 121.266 156.606 121.266H156.625Z" fill="#080B24"/>
<path opacity="0.1" d="M146.352 90.4314C146.359 93.155 147.444 95.765 149.369 97.6909C151.294 99.6168 153.902 100.702 156.624 100.709H206.166L156.925 80.158H156.624C153.903 80.1654 151.295 81.25 149.37 83.1749C147.446 85.0998 146.36 87.7085 146.352 90.4314Z" fill="black"/>
<path opacity="0.1" d="M216.138 111.011C216.123 113.732 215.036 116.338 213.113 118.262C211.19 120.187 208.585 121.274 205.866 121.289H156.343L205.589 100.733H205.889C208.605 100.754 211.203 101.844 213.121 103.768C215.04 105.692 216.123 108.294 216.138 111.011Z" fill="black"/>
<path opacity="0.1" d="M216.138 152.095C216.13 154.818 215.044 157.427 213.12 159.352C211.195 161.277 208.587 162.361 205.866 162.369H156.343L205.589 141.817H205.889C208.607 141.831 211.21 142.919 213.13 144.844C215.049 146.769 216.131 149.376 216.138 152.095Z" fill="black"/>
<path opacity="0.1" d="M216.138 193.217C216.13 195.94 215.044 198.548 213.12 200.473C211.195 202.398 208.587 203.483 205.866 203.49H156.343L205.589 182.939H205.889C208.607 182.952 211.21 184.04 213.13 185.966C215.049 187.891 216.131 190.497 216.138 193.217Z" fill="black"/>
<path opacity="0.1" d="M146.352 131.539C146.359 134.263 147.444 136.873 149.369 138.799C151.294 140.724 153.902 141.81 156.624 141.817H206.166L156.925 121.266H156.624C153.903 121.273 151.295 122.358 149.37 124.283C147.446 126.207 146.36 128.816 146.352 131.539Z" fill="black"/>
<path opacity="0.1" d="M146.352 172.647C146.367 175.368 147.454 177.974 149.377 179.898C151.3 181.822 153.905 182.91 156.624 182.925H206.166L156.925 162.369H156.624C153.905 162.383 151.3 163.471 149.377 165.395C147.454 167.32 146.367 169.925 146.352 172.647Z" fill="black"/>
<path opacity="0.1" d="M152.028 244.467L168.343 235.678C169.2 235.174 169.829 234.357 170.096 233.399C170.364 232.441 170.25 231.416 169.778 230.541C169.306 229.665 168.513 229.007 167.566 228.704C166.619 228.402 165.592 228.478 164.7 228.918C165.144 228.679 165.537 228.355 165.856 227.964C166.175 227.573 166.414 227.123 166.559 226.64C166.704 226.156 166.753 225.649 166.702 225.147C166.651 224.645 166.502 224.158 166.263 223.713C166.024 223.269 165.7 222.876 165.31 222.557C164.919 222.237 164.469 221.998 163.986 221.853C163.503 221.708 162.996 221.659 162.494 221.71C161.993 221.761 161.506 221.91 161.061 222.149L160.315 222.553C158.319 219.871 153.812 219.377 149.817 221.529C145.821 223.68 143.756 227.715 144.892 230.858L144.746 230.938C144.302 231.177 143.909 231.501 143.59 231.892C143.271 232.283 143.032 232.733 142.887 233.216C142.742 233.7 142.693 234.207 142.744 234.709C142.795 235.211 142.944 235.698 143.183 236.143C143.422 236.587 143.746 236.98 144.137 237.299C144.527 237.619 144.977 237.858 145.46 238.003C145.943 238.148 146.45 238.197 146.952 238.146C147.454 238.095 147.941 237.946 148.385 237.707C147.488 238.19 146.819 239.011 146.526 239.987C146.234 240.964 146.341 242.017 146.824 242.914C147.307 243.812 148.127 244.481 149.103 244.774C150.079 245.066 151.131 244.959 152.028 244.476V244.467Z" fill="#080B24"/>
<path opacity="0.1" d="M143.197 236.133C143.682 237.028 144.501 237.695 145.476 237.988C146.45 238.281 147.501 238.176 148.399 237.697L164.7 228.918L144.845 230.886L144.746 230.938C143.857 231.425 143.195 232.244 142.905 233.217C142.615 234.19 142.72 235.237 143.197 236.133Z" fill="black"/>
<path opacity="0.1" d="M169.803 230.524C170.284 231.422 170.39 232.473 170.097 233.448C169.805 234.424 169.139 235.244 168.245 235.729L151.929 244.518L164.503 229.016L164.601 228.96C165.499 228.481 166.55 228.377 167.524 228.67C168.499 228.963 169.318 229.629 169.803 230.524Z" fill="black"/>
</g>
<g opacity="0.1">
<path opacity="0.1" d="M102.417 273.934V274.624C102.388 275.295 102.102 275.928 101.618 276.393C101.133 276.857 100.489 277.116 99.8178 277.116C99.1471 277.116 98.5023 276.857 98.0181 276.393C97.5339 275.928 97.2476 275.295 97.2191 274.624V273.934C97.2042 273.583 97.2604 273.233 97.3843 272.905C97.5082 272.576 97.6972 272.276 97.94 272.023C98.1827 271.769 98.4743 271.568 98.797 271.43C99.1197 271.292 99.467 271.221 99.8178 271.221C100.169 271.221 100.516 271.292 100.839 271.43C101.161 271.568 101.453 271.769 101.696 272.023C101.938 272.276 102.127 272.576 102.251 272.905C102.375 273.233 102.431 273.583 102.417 273.934Z" fill="#3F3D56"/>
<path opacity="0.1" d="M97.2197 262.843V262.148C97.2482 261.478 97.5345 260.844 98.0187 260.38C98.5029 259.915 99.1477 259.656 99.8184 259.656C100.489 259.656 101.134 259.915 101.618 260.38C102.102 260.844 102.389 261.478 102.417 262.148V262.843C102.418 263.098 102.38 263.352 102.304 263.595C102.126 264.194 101.738 264.708 101.211 265.044C100.685 265.38 100.055 265.515 99.4366 265.423C98.8187 265.332 98.2544 265.021 97.8472 264.547C97.44 264.073 97.2173 263.468 97.2197 262.843Z" fill="#3F3D56"/>
<path opacity="0.1" d="M102.417 268.043V268.734C102.388 269.404 102.102 270.038 101.618 270.502C101.133 270.966 100.489 271.226 99.8178 271.226C99.1471 271.226 98.5023 270.966 98.0181 270.502C97.5339 270.038 97.2476 269.404 97.2191 268.734V268.043C97.2042 267.692 97.2604 267.342 97.3843 267.014C97.5082 266.685 97.6972 266.386 97.94 266.132C98.1827 265.879 98.4743 265.677 98.797 265.539C99.1197 265.401 99.467 265.33 99.8178 265.33C100.169 265.33 100.516 265.401 100.839 265.539C101.161 265.677 101.453 265.879 101.696 266.132C101.938 266.386 102.127 266.685 102.251 267.014C102.375 267.342 102.431 267.692 102.417 268.043Z" fill="#3F3D56"/>
<path opacity="0.1" d="M99.8202 277.222C100.509 277.224 101.168 277.5 101.655 277.987C102.141 278.475 102.415 279.135 102.417 279.824V280.515C102.431 280.866 102.375 281.216 102.251 281.544C102.127 281.873 101.938 282.173 101.696 282.426C101.453 282.68 101.161 282.881 100.839 283.019C100.516 283.157 100.169 283.228 99.8178 283.228C99.467 283.228 99.1197 283.157 98.797 283.019C98.4743 282.881 98.1827 282.68 97.94 282.426C97.6972 282.173 97.5082 281.873 97.3843 281.544C97.2604 281.216 97.2042 280.866 97.2191 280.515V279.824C97.2204 279.134 97.4948 278.473 97.9823 277.986C98.4699 277.498 99.1307 277.223 99.8202 277.222Z" fill="#3F3D56"/>
<path opacity="0.1" d="M97.2197 262.219V262.843C97.2173 263.468 97.44 264.073 97.8472 264.547C98.2544 265.021 98.8187 265.332 99.4366 265.423C100.055 265.515 100.685 265.38 101.211 265.044C101.738 264.708 102.126 264.194 102.304 263.595L97.2197 262.219Z" fill="black"/>
<path opacity="0.1" d="M97.2197 268.109V268.734C97.2173 269.359 97.44 269.963 97.8472 270.437C98.2544 270.911 98.8187 271.222 99.4366 271.314C100.055 271.405 100.685 271.271 101.211 270.935C101.738 270.599 102.126 270.084 102.304 269.485L97.2197 268.109Z" fill="black"/>
<path opacity="0.1" d="M97.2197 274.014V274.638C97.2173 275.263 97.44 275.868 97.8472 276.342C98.2544 276.816 98.8187 277.127 99.4366 277.219C100.055 277.31 100.685 277.175 101.211 276.839C101.738 276.504 102.126 275.989 102.304 275.39L97.2197 274.014Z" fill="black"/>
<path opacity="0.1" d="M97.2197 279.89V280.515C97.2173 281.14 97.44 281.745 97.8472 282.219C98.2544 282.693 98.8187 283.004 99.4366 283.095C100.055 283.186 100.685 283.052 101.211 282.716C101.738 282.38 102.126 281.865 102.304 281.267L97.2197 279.89Z" fill="black"/>
<path opacity="0.1" d="M91.7963 268.776L92.0028 268.941C92.1882 269.094 92.4233 269.174 92.6637 269.165C92.9041 269.157 93.1329 269.06 93.3067 268.893C93.4805 268.727 93.5871 268.503 93.6064 268.263C93.6257 268.023 93.5563 267.784 93.4114 267.592C93.3569 267.512 93.2904 267.441 93.2142 267.381L93.0076 267.221C92.9055 267.142 92.789 267.084 92.6645 267.05C92.54 267.016 92.4101 267.007 92.2821 267.024C92.1542 267.04 92.0307 267.082 91.9187 267.146C91.8068 267.21 91.7085 267.295 91.6296 267.397C91.5507 267.499 91.4926 267.616 91.4588 267.741C91.4249 267.865 91.4159 267.995 91.4322 268.123C91.4486 268.251 91.49 268.375 91.5541 268.487C91.6181 268.599 91.7036 268.697 91.8057 268.776H91.7963Z" fill="#3F3D56"/>
<path opacity="0.1" d="M94.7588 268.583L94.9654 268.743C95.0715 268.82 95.1611 268.918 95.2289 269.03C95.2966 269.143 95.3412 269.267 95.3599 269.397C95.3786 269.527 95.371 269.66 95.3377 269.787C95.3044 269.914 95.246 270.032 95.166 270.136C95.0859 270.24 94.9858 270.327 94.8716 270.392C94.7574 270.457 94.6315 270.498 94.5011 270.513C94.3708 270.528 94.2388 270.516 94.1129 270.48C93.987 270.443 93.8698 270.381 93.7682 270.298L93.5569 270.138C93.3508 269.979 93.2165 269.744 93.1835 269.485C93.1504 269.227 93.2214 268.966 93.3808 268.759C93.5402 268.553 93.7749 268.419 94.0333 268.386C94.2918 268.353 94.5527 268.424 94.7588 268.583Z" fill="#3F3D56"/>
<path opacity="0.1" d="M96.5197 269.941L96.7262 270.101C96.9315 270.261 97.0653 270.496 97.0987 270.754C97.1321 271.013 97.0624 271.274 96.9047 271.482C96.7451 271.687 96.5107 271.821 96.2528 271.853C95.9949 271.886 95.7346 271.815 95.529 271.655L95.3225 271.496C95.1245 271.334 94.9974 271.102 94.9681 270.848C94.9389 270.594 95.0097 270.338 95.1656 270.136C95.3215 269.934 95.5502 269.8 95.803 269.763C96.0559 269.727 96.313 269.791 96.5197 269.941Z" fill="#3F3D56"/>
<path opacity="0.1" d="M98.28 271.303L98.4865 271.463C98.5927 271.54 98.6823 271.638 98.75 271.75C98.8178 271.863 98.8623 271.987 98.881 272.117C98.8997 272.247 98.8922 272.38 98.8589 272.506C98.8256 272.633 98.7672 272.752 98.6871 272.856C98.607 272.96 98.507 273.047 98.3928 273.112C98.2786 273.176 98.1526 273.217 98.0223 273.232C97.892 273.248 97.76 273.236 97.6341 273.199C97.5082 273.163 97.3909 273.101 97.2893 273.018L97.0827 272.858C96.8848 272.696 96.7577 272.464 96.7284 272.21C96.6991 271.956 96.7699 271.701 96.9258 271.498C97.0818 271.296 97.3105 271.162 97.5633 271.126C97.8162 271.089 98.0733 271.153 98.28 271.303Z" fill="#3F3D56"/>
<path opacity="0.1" d="M91.8152 268.795L92.003 268.94C92.1883 269.094 92.4235 269.174 92.6638 269.165C92.9042 269.156 93.133 269.06 93.3068 268.893C93.4806 268.727 93.5873 268.503 93.6066 268.263C93.6259 268.023 93.5565 267.784 93.4115 267.592L91.8152 268.795Z" fill="black"/>
<path opacity="0.1" d="M93.5806 270.153L93.7684 270.298C93.9537 270.452 94.1888 270.532 94.4292 270.523C94.6696 270.514 94.8984 270.417 95.0722 270.251C95.246 270.085 95.3526 269.86 95.3719 269.62C95.3912 269.381 95.3218 269.142 95.1769 268.95L93.5806 270.153Z" fill="black"/>
<path opacity="0.1" d="M95.3416 271.515L95.5293 271.656C95.7349 271.815 95.9952 271.886 96.2531 271.853C96.511 271.821 96.7455 271.687 96.905 271.482C97.0294 271.311 97.0964 271.106 97.0964 270.895C97.0964 270.683 97.0294 270.478 96.905 270.307L95.3416 271.515Z" fill="black"/>
<path opacity="0.1" d="M92.7167 236.504C91.936 236.504 91.1872 236.815 90.6352 237.367C90.0831 237.919 89.7729 238.668 89.7729 239.45C89.7729 240.231 90.0831 240.98 90.6352 241.532C91.1872 242.085 91.936 242.395 92.7167 242.395C91.9557 242.425 91.236 242.749 90.7083 243.299C90.1806 243.848 89.8859 244.581 89.8859 245.343C89.8859 246.105 90.1806 246.837 90.7083 247.386C91.236 247.936 91.9557 248.26 92.7167 248.29C91.936 248.29 91.1872 248.601 90.6352 249.153C90.0831 249.705 89.7729 250.454 89.7729 251.236C89.7729 252.017 90.0831 252.766 90.6352 253.318C91.1872 253.871 91.936 254.181 92.7167 254.181C91.936 254.181 91.1872 254.491 90.6352 255.044C90.0831 255.596 89.7729 256.345 89.7729 257.126C89.7729 257.907 90.0831 258.656 90.6352 259.209C91.1872 259.761 91.936 260.072 92.7167 260.072H106.919C107.7 260.072 108.449 259.761 109.001 259.209C109.553 258.656 109.863 257.907 109.863 257.126C109.863 256.345 109.553 255.596 109.001 255.044C108.449 254.491 107.7 254.181 106.919 254.181C107.7 254.181 108.449 253.871 109.001 253.318C109.553 252.766 109.863 252.017 109.863 251.236C109.863 250.454 109.553 249.705 109.001 249.153C108.449 248.601 107.7 248.29 106.919 248.29C107.68 248.26 108.4 247.936 108.928 247.386C109.455 246.837 109.75 246.105 109.75 245.343C109.75 244.581 109.455 243.848 108.928 243.299C108.4 242.749 107.68 242.425 106.919 242.395C107.7 242.395 108.449 242.085 109.001 241.532C109.553 240.98 109.863 240.231 109.863 239.45C109.863 238.668 109.553 237.919 109.001 237.367C108.449 236.815 107.7 236.504 106.919 236.504C107.7 236.504 108.449 236.194 109.001 235.642C109.553 235.089 109.863 234.34 109.863 233.559C109.863 232.778 109.553 232.029 109.001 231.476C108.449 230.924 107.7 230.614 106.919 230.614C107.7 230.614 108.449 230.303 109.001 229.751C109.553 229.199 109.863 228.449 109.863 227.668C109.863 226.887 109.553 226.138 109.001 225.586C108.449 225.033 107.7 224.723 106.919 224.723H106.271C105.896 222.191 103.036 220.218 99.5573 220.218C96.0783 220.218 93.2191 222.191 92.8482 224.723H92.7167C91.936 224.723 91.1872 225.033 90.6352 225.586C90.0831 226.138 89.7729 226.887 89.7729 227.668C89.7729 228.449 90.0831 229.199 90.6352 229.751C91.1872 230.303 91.936 230.614 92.7167 230.614C91.936 230.614 91.1872 230.924 90.6352 231.476C90.0831 232.029 89.7729 232.778 89.7729 233.559C89.7729 234.34 90.0831 235.089 90.6352 235.642C91.1872 236.194 91.936 236.504 92.7167 236.504Z" fill="#080B24"/>
<path opacity="0.1" d="M89.7729 227.668C89.7754 228.449 90.0864 229.196 90.6379 229.748C91.1894 230.3 91.9367 230.611 92.7167 230.614H106.919L92.8059 224.723H92.7167C91.9367 224.725 91.1894 225.036 90.6379 225.588C90.0864 226.14 89.7754 226.888 89.7729 227.668Z" fill="black"/>
<path opacity="0.1" d="M109.778 233.559C109.776 234.339 109.465 235.087 108.914 235.639C108.362 236.191 107.615 236.502 106.835 236.504H92.6323L106.745 230.614H106.835C107.615 230.616 108.362 230.927 108.914 231.479C109.465 232.031 109.776 232.778 109.778 233.559Z" fill="black"/>
<path opacity="0.1" d="M109.778 245.359C109.775 246.139 109.463 246.886 108.912 247.438C108.361 247.989 107.614 248.301 106.835 248.304H92.6323L106.745 242.409H106.835C107.615 242.413 108.362 242.725 108.914 243.277C109.465 243.83 109.776 244.578 109.778 245.359Z" fill="black"/>
<path opacity="0.1" d="M109.778 257.126C109.776 257.906 109.465 258.654 108.914 259.206C108.362 259.758 107.615 260.069 106.835 260.071H92.6323L106.745 254.181H106.835C107.615 254.183 108.362 254.494 108.914 255.046C109.465 255.598 109.776 256.346 109.778 257.126Z" fill="black"/>
<path opacity="0.1" d="M89.7729 239.45C89.7754 240.23 90.0864 240.978 90.6379 241.53C91.1894 242.081 91.9367 242.393 92.7167 242.395H106.919L92.8059 236.504H92.7167C91.9367 236.507 91.1894 236.818 90.6379 237.37C90.0864 237.922 89.7754 238.669 89.7729 239.45Z" fill="black"/>
<path opacity="0.1" d="M89.7729 251.236C89.7754 252.016 90.0864 252.764 90.6379 253.316C91.1894 253.867 91.9367 254.178 92.7167 254.181H106.919L92.8059 248.29H92.7167C91.9367 248.293 91.1894 248.604 90.6379 249.156C90.0864 249.708 89.7754 250.455 89.7729 251.236Z" fill="black"/>
<path opacity="0.1" d="M91.4019 271.82L96.0969 269.298C95.8318 269.112 95.6059 268.876 95.4322 268.603C95.2586 268.331 95.1407 268.026 95.0852 267.707C95.0298 267.388 95.038 267.062 95.1093 266.746C95.1806 266.431 95.3136 266.132 95.5007 265.868C95.4322 265.741 95.3392 265.628 95.227 265.536C95.1149 265.445 94.9857 265.376 94.8469 265.335C94.7082 265.293 94.5626 265.279 94.4186 265.294C94.2745 265.31 94.1349 265.353 94.0077 265.422L93.7964 265.535C93.2236 264.769 91.9184 264.624 90.7869 265.244C89.6554 265.864 89.0497 267.015 89.3784 267.916L89.3361 267.94C89.6013 268.125 89.8272 268.361 90.0008 268.634C90.1745 268.907 90.2924 269.212 90.3478 269.53C90.4032 269.849 90.3951 270.176 90.3238 270.491C90.2525 270.807 90.1195 271.105 89.9324 271.369C90.0706 271.621 90.3014 271.809 90.5758 271.893C90.8501 271.977 91.1465 271.951 91.4019 271.82Z" fill="#080B24"/>
<path opacity="0.1" d="M88.8667 269.429C88.9336 269.558 89.0253 269.673 89.1367 269.767C89.248 269.86 89.3768 269.931 89.5155 269.974C89.6543 270.018 89.8003 270.034 89.9452 270.021C90.0901 270.008 90.2309 269.966 90.3597 269.899L95.0547 267.381L89.3409 267.907H89.3127C89.1818 267.976 89.0661 268.07 88.9725 268.185C88.8788 268.299 88.8091 268.431 88.7675 268.573C88.7259 268.715 88.7132 268.864 88.7303 269.011C88.7473 269.158 88.7937 269.3 88.8667 269.429Z" fill="black"/>
<path opacity="0.1" d="M96.496 267.822C96.6332 268.08 96.6633 268.381 96.5798 268.661C96.4963 268.941 96.3059 269.176 96.05 269.316L91.355 271.834L94.956 267.39H94.9842C95.1117 267.319 95.2521 267.273 95.3972 267.256C95.5424 267.239 95.6895 267.251 95.83 267.291C95.9705 267.332 96.1017 267.399 96.216 267.49C96.3303 267.581 96.4255 267.694 96.496 267.822Z" fill="black"/>
</g>
<g opacity="0.1">
<path opacity="0.1" d="M355.064 246.298V249.244C355.064 252.175 356.228 254.987 358.3 257.059C360.371 259.132 363.181 260.297 366.111 260.297C369.041 260.297 371.851 259.132 373.923 257.059C375.995 254.987 377.159 252.175 377.159 249.244V246.298C377.159 243.367 375.995 240.555 373.923 238.483C371.851 236.41 369.041 235.245 366.111 235.245C363.181 235.245 360.371 236.41 358.3 238.483C356.228 240.555 355.064 243.367 355.064 246.298Z" fill="#3F3D56"/>
<path opacity="0.1" d="M377.159 199.136V196.19C377.159 193.259 375.995 190.447 373.923 188.375C371.851 186.302 369.041 185.137 366.111 185.137C363.181 185.137 360.371 186.302 358.3 188.375C356.228 190.447 355.064 193.259 355.064 196.19V199.136C355.061 200.218 355.219 201.295 355.534 202.33C356.31 204.854 357.964 207.017 360.196 208.426C362.429 209.835 365.092 210.397 367.703 210.011C370.314 209.625 372.701 208.316 374.43 206.321C376.159 204.325 377.118 201.777 377.131 199.136H377.159Z" fill="#3F3D56"/>
<path opacity="0.1" d="M355.064 221.242V224.192C355.064 227.124 356.228 229.935 358.3 232.008C360.371 234.081 363.181 235.245 366.111 235.245C369.041 235.245 371.851 234.081 373.923 232.008C375.995 229.935 377.159 227.124 377.159 224.192V221.242C377.159 218.311 375.995 215.499 373.923 213.426C371.851 211.353 369.041 210.189 366.111 210.189C363.181 210.189 360.371 211.353 358.3 213.426C356.228 215.499 355.064 218.311 355.064 221.242Z" fill="#3F3D56"/>
<path opacity="0.1" d="M366.111 260.297C363.184 260.305 360.379 261.473 358.309 263.544C356.239 265.615 355.073 268.421 355.064 271.35V274.295C355.064 277.227 356.228 280.038 358.3 282.111C360.371 284.184 363.181 285.348 366.111 285.348C369.041 285.348 371.851 284.184 373.923 282.111C375.995 280.038 377.159 277.227 377.159 274.295V271.35C377.151 268.421 375.985 265.614 373.915 263.542C371.845 261.471 369.039 260.304 366.111 260.297Z" fill="#3F3D56"/>
<path opacity="0.1" d="M377.158 196.472V199.136C377.145 201.777 376.187 204.325 374.458 206.32C372.728 208.316 370.342 209.625 367.731 210.011C365.12 210.397 362.457 209.835 360.224 208.426C357.992 207.017 356.338 204.854 355.562 202.33L377.158 196.472Z" fill="black"/>
<path opacity="0.1" d="M377.158 221.528V224.192C377.145 226.833 376.187 229.382 374.458 231.377C372.728 233.372 370.342 234.681 367.731 235.067C365.12 235.453 362.457 234.891 360.224 233.482C357.992 232.073 356.338 229.91 355.562 227.386L377.158 221.528Z" fill="black"/>
<path opacity="0.1" d="M377.158 246.58V249.244C377.145 251.884 376.187 254.433 374.458 256.428C372.728 258.424 370.342 259.733 367.731 260.119C365.12 260.505 362.457 259.943 360.224 258.534C357.992 257.125 356.338 254.962 355.562 252.438L377.158 246.58Z" fill="black"/>
<path opacity="0.1" d="M377.158 271.632V274.295C377.145 276.936 376.187 279.485 374.458 281.48C372.728 283.475 370.342 284.784 367.731 285.171C365.12 285.557 362.457 284.994 360.224 283.585C357.992 282.176 356.338 280.014 355.562 277.49L377.158 271.632Z" fill="black"/>
<path opacity="0.1" d="M400.225 224.38L399.342 225.061C398.55 225.673 397.563 225.978 396.564 225.923C395.564 225.868 394.618 225.455 393.897 224.759C393.176 224.064 392.73 223.133 392.638 222.135C392.547 221.138 392.816 220.14 393.399 219.325C393.634 218.992 393.919 218.695 394.244 218.447L395.126 217.766C396.003 217.089 397.112 216.789 398.21 216.931C399.308 217.073 400.305 217.645 400.981 218.522C401.657 219.399 401.957 220.509 401.816 221.608C401.674 222.706 401.102 223.703 400.225 224.38Z" fill="#3F3D56"/>
<path opacity="0.1" d="M387.633 223.548L386.755 224.22C386.305 224.549 385.925 224.965 385.638 225.443C385.351 225.921 385.163 226.452 385.084 227.004C385.006 227.557 385.038 228.119 385.181 228.658C385.323 229.198 385.572 229.703 385.912 230.144C386.253 230.586 386.678 230.955 387.164 231.229C387.649 231.503 388.185 231.678 388.738 231.741C389.292 231.805 389.853 231.757 390.388 231.601C390.923 231.444 391.422 231.182 391.854 230.83L392.732 230.153C393.166 229.818 393.529 229.401 393.802 228.925C394.075 228.45 394.252 227.925 394.322 227.381C394.392 226.837 394.355 226.284 394.211 225.755C394.068 225.226 393.822 224.73 393.487 224.295C393.153 223.861 392.736 223.497 392.26 223.224C391.785 222.951 391.26 222.774 390.717 222.704C390.173 222.634 389.621 222.671 389.092 222.815C388.563 222.958 388.067 223.204 387.633 223.539V223.548Z" fill="#3F3D56"/>
<path opacity="0.1" d="M380.145 229.331L379.262 230.012C378.812 230.341 378.432 230.757 378.145 231.235C377.858 231.713 377.67 232.244 377.591 232.796C377.513 233.349 377.545 233.911 377.688 234.45C377.83 234.99 378.079 235.495 378.419 235.936C378.76 236.378 379.186 236.747 379.671 237.021C380.156 237.295 380.692 237.47 381.246 237.533C381.799 237.597 382.36 237.549 382.895 237.393C383.43 237.236 383.929 236.974 384.361 236.622L385.243 235.945C385.677 235.61 386.041 235.193 386.314 234.717C386.587 234.242 386.764 233.717 386.834 233.173C386.904 232.629 386.867 232.077 386.723 231.547C386.58 231.018 386.334 230.522 385.999 230.087C385.665 229.653 385.248 229.289 384.772 229.016C384.297 228.743 383.772 228.566 383.229 228.496C382.685 228.426 382.133 228.463 381.604 228.607C381.074 228.75 380.579 228.996 380.145 229.331Z" fill="#3F3D56"/>
<path opacity="0.1" d="M372.651 235.113L371.773 235.79C370.897 236.466 370.325 237.464 370.183 238.562C370.041 239.661 370.341 240.77 371.017 241.648C371.694 242.525 372.69 243.097 373.788 243.239C374.886 243.381 375.996 243.08 376.872 242.404L377.75 241.723C378.2 241.394 378.58 240.978 378.867 240.5C379.154 240.022 379.342 239.491 379.421 238.939C379.499 238.386 379.467 237.824 379.324 237.285C379.182 236.745 378.933 236.24 378.593 235.798C378.252 235.357 377.827 234.988 377.341 234.714C376.856 234.44 376.32 234.265 375.767 234.202C375.213 234.138 374.652 234.185 374.117 234.342C373.582 234.499 373.083 234.761 372.651 235.113Z" fill="#3F3D56"/>
<path opacity="0.1" d="M400.141 224.446L399.342 225.061C398.549 225.673 397.563 225.978 396.564 225.923C395.564 225.868 394.618 225.455 393.897 224.759C393.176 224.064 392.73 223.133 392.638 222.135C392.547 221.138 392.816 220.14 393.399 219.325L400.141 224.446Z" fill="black"/>
<path opacity="0.1" d="M392.647 230.228L391.854 230.839C391.06 231.433 390.08 231.725 389.09 231.663C388.1 231.6 387.165 231.187 386.452 230.497C385.739 229.808 385.295 228.887 385.199 227.899C385.103 226.912 385.362 225.922 385.929 225.108L392.647 230.228Z" fill="black"/>
<path opacity="0.1" d="M385.159 236.006L384.361 236.622C383.568 237.23 382.583 237.534 381.585 237.478C380.588 237.421 379.643 237.009 378.924 236.315C378.204 235.621 377.757 234.692 377.664 233.697C377.571 232.702 377.838 231.706 378.417 230.891L385.159 236.006Z" fill="black"/>
<path opacity="0.1" d="M396.31 87.1335C399.63 87.1335 402.815 88.4534 405.164 90.8029C407.512 93.1524 408.831 96.339 408.831 99.6617C408.831 102.984 407.512 106.171 405.164 108.52C402.815 110.87 399.63 112.19 396.31 112.19C399.588 112.253 402.71 113.601 405.006 115.943C407.302 118.285 408.589 121.435 408.589 124.716C408.589 127.996 407.302 131.146 405.006 133.488C402.71 135.83 399.588 137.178 396.31 137.242C399.588 137.305 402.71 138.653 405.006 140.995C407.302 143.337 408.589 146.487 408.589 149.767C408.589 153.048 407.302 156.198 405.006 158.54C402.71 160.882 399.588 162.23 396.31 162.293C399.63 162.293 402.815 163.613 405.164 165.963C407.512 168.312 408.831 171.499 408.831 174.821C408.831 178.144 407.512 181.331 405.164 183.68C402.815 186.03 399.63 187.35 396.31 187.35H335.918C332.597 187.35 329.412 186.03 327.064 183.68C324.715 181.331 323.396 178.144 323.396 174.821C323.396 171.499 324.715 168.312 327.064 165.963C329.412 163.613 332.597 162.293 335.918 162.293C334.253 162.325 332.599 162.025 331.052 161.41C329.505 160.795 328.096 159.878 326.907 158.712C325.719 157.545 324.775 156.153 324.13 154.618C323.486 153.082 323.154 151.433 323.154 149.767C323.154 148.102 323.486 146.453 324.13 144.917C324.775 143.381 325.719 141.99 326.907 140.823C328.096 139.657 329.505 138.739 331.052 138.124C332.599 137.509 334.253 137.209 335.918 137.242C334.253 137.274 332.599 136.974 331.052 136.359C329.505 135.744 328.096 134.826 326.907 133.66C325.719 132.494 324.775 131.102 324.13 129.566C323.486 128.03 323.154 126.381 323.154 124.716C323.154 123.05 323.486 121.401 324.13 119.865C324.775 118.33 325.719 116.938 326.907 115.772C328.096 114.605 329.505 113.688 331.052 113.073C332.599 112.458 334.253 112.158 335.918 112.19C332.597 112.19 329.412 110.87 327.064 108.52C324.715 106.171 323.396 102.984 323.396 99.6617C323.396 96.339 324.715 93.1524 327.064 90.8029C329.412 88.4534 332.597 87.1335 335.918 87.1335C334.253 87.1658 332.599 86.8656 331.052 86.2506C329.505 85.6356 328.096 84.7181 326.907 83.5518C325.719 82.3855 324.775 80.9937 324.13 79.458C323.486 77.9222 323.154 76.2733 323.154 74.6077C323.154 72.942 323.486 71.2931 324.13 69.7574C324.775 68.2216 325.719 66.8299 326.907 65.6636C328.096 64.4972 329.505 63.5797 331.052 62.9647C332.599 62.3497 334.253 62.0496 335.918 62.0818C334.253 62.1141 332.599 61.8139 331.052 61.1989C329.505 60.5839 328.096 59.6665 326.907 58.5001C325.719 57.3338 324.775 55.9421 324.13 54.4063C323.486 52.8706 323.154 51.2216 323.154 49.556C323.154 47.8904 323.486 46.2414 324.13 44.7057C324.775 43.17 325.719 41.7782 326.907 40.6119C328.096 39.4456 329.505 38.5281 331.052 37.9131C332.599 37.2981 334.253 36.9979 335.918 37.0302H338.678C340.265 26.2541 352.435 17.8691 367.219 17.8691C382.004 17.8691 394.173 26.2541 395.76 37.0302H396.31C399.588 37.0937 402.71 38.4413 405.006 40.7834C407.302 43.1256 408.589 46.2753 408.589 49.556C408.589 52.8367 407.302 55.9865 405.006 58.3286C402.71 60.6707 399.588 62.0183 396.31 62.0818C399.588 62.1454 402.71 63.493 405.006 65.8351C407.302 68.1772 408.589 71.327 408.589 74.6077C408.589 77.8883 407.302 81.0381 405.006 83.3802C402.71 85.7224 399.588 87.07 396.31 87.1335Z" fill="#080B24"/>
<path opacity="0.1" d="M408.827 49.5585C408.817 52.8768 407.495 56.0565 405.149 58.4029C402.804 60.7494 399.626 62.072 396.31 62.0819H335.918L395.939 37.0303H396.31C399.627 37.0402 402.806 38.3635 405.151 40.7109C407.496 43.0584 408.818 46.2393 408.827 49.5585Z" fill="black"/>
<path opacity="0.1" d="M323.767 74.6102C323.777 77.9294 325.1 81.1098 327.446 83.4564C329.792 85.803 332.971 87.125 336.289 87.1337H396.676L336.655 62.082H336.289C332.971 62.0919 329.792 63.4151 327.446 65.7624C325.1 68.1098 323.777 71.2906 323.767 74.6102Z" fill="black"/>
<path opacity="0.1" d="M323.767 124.713C323.777 128.033 325.1 131.214 327.446 133.561C329.792 135.908 332.971 137.231 336.289 137.241H396.676L336.655 112.19H336.289C332.971 112.198 329.792 113.52 327.446 115.867C325.1 118.214 323.777 121.394 323.767 124.713Z" fill="black"/>
<path opacity="0.1" d="M323.767 174.822C323.777 178.141 325.1 181.322 327.446 183.669C329.792 186.017 332.971 187.34 336.289 187.35H396.676L336.655 162.293H336.289C332.971 162.303 329.792 163.626 327.446 165.974C325.1 168.321 323.777 171.502 323.767 174.822Z" fill="black"/>
<path opacity="0.1" d="M408.827 99.662C408.818 102.981 407.496 106.162 405.151 108.51C402.806 110.857 399.627 112.18 396.31 112.19H335.918L395.939 87.1338H396.31C399.627 87.1437 402.806 88.467 405.151 90.8144C407.496 93.1619 408.818 96.3428 408.827 99.662Z" fill="black"/>
<path opacity="0.1" d="M408.827 149.77C408.817 153.088 407.495 156.268 405.149 158.614C402.804 160.961 399.626 162.283 396.31 162.293H335.918L395.939 137.241H396.31C399.627 137.251 402.806 138.575 405.151 140.922C407.496 143.27 408.818 146.45 408.827 149.77Z" fill="black"/>
<path opacity="0.1" d="M401.892 237.307L382.004 226.597C381.004 225.959 380.283 224.967 379.984 223.819C379.686 222.671 379.832 221.452 380.394 220.408C380.957 219.364 381.893 218.571 383.015 218.189C384.138 217.807 385.363 217.864 386.445 218.348C385.854 218.086 385.323 217.704 384.886 217.227C384.449 216.75 384.115 216.188 383.905 215.576C383.696 214.963 383.615 214.314 383.668 213.669C383.721 213.024 383.906 212.397 384.213 211.827C384.519 211.257 384.94 210.757 385.449 210.358C385.958 209.958 386.544 209.668 387.17 209.506C387.796 209.344 388.449 209.313 389.088 209.415C389.727 209.517 390.337 209.75 390.882 210.099L391.793 210.569C394.225 207.281 399.713 206.698 404.582 209.32C409.451 211.941 411.977 216.864 410.587 220.692L410.77 220.791C411.359 221.055 411.888 221.437 412.323 221.915C412.758 222.392 413.089 222.954 413.297 223.566C413.505 224.177 413.585 224.825 413.531 225.469C413.478 226.112 413.292 226.738 412.986 227.307C412.68 227.875 412.26 228.375 411.752 228.774C411.244 229.172 410.659 229.462 410.035 229.625C409.41 229.788 408.758 229.819 408.121 229.719C407.483 229.618 406.873 229.387 406.328 229.04C406.902 229.313 407.415 229.7 407.835 230.178C408.255 230.655 408.573 231.213 408.772 231.817C408.97 232.422 409.043 233.06 408.987 233.694C408.931 234.327 408.747 234.943 408.447 235.503C408.146 236.064 407.735 236.557 407.238 236.954C406.741 237.35 406.168 237.642 405.555 237.81C404.943 237.979 404.302 238.021 403.672 237.935C403.042 237.848 402.437 237.635 401.892 237.307Z" fill="#080B24"/>
<path opacity="0.1" d="M412.69 227.156C412.095 228.243 411.094 229.051 409.906 229.403C408.717 229.755 407.438 229.623 406.347 229.035L386.464 218.325L410.667 220.72L410.789 220.786C411.332 221.079 411.812 221.476 412.202 221.955C412.591 222.434 412.883 222.985 413.059 223.577C413.236 224.168 413.294 224.789 413.231 225.403C413.167 226.017 412.984 226.613 412.69 227.156Z" fill="black"/>
<path opacity="0.1" d="M380.243 220.317C379.657 221.411 379.529 222.693 379.885 223.882C380.241 225.071 381.054 226.071 382.144 226.663L402.032 237.373L386.703 218.48L386.586 218.414C385.492 217.828 384.211 217.7 383.022 218.056C381.834 218.412 380.834 219.225 380.243 220.317Z" fill="black"/>
</g>
<path d="M245.079 300C380.432 300 490.158 295.163 490.158 289.196C490.158 283.229 380.432 278.392 245.079 278.392C109.726 278.392 0 283.229 0 289.196C0 295.163 109.726 300 245.079 300Z" fill="#3F3D56"/>
<path opacity="0.1" d="M235.689 295.805C264.99 295.805 288.742 292.636 288.742 288.726C288.742 284.816 264.99 281.647 235.689 281.647C206.388 281.647 182.635 284.816 182.635 288.726C182.635 292.636 206.388 295.805 235.689 295.805Z" fill="black"/>
<path d="M239.365 288.754C237.704 289.078 235.989 289.006 234.361 288.545C232.732 288.084 231.235 287.247 229.989 286.1C228.744 284.954 227.785 283.53 227.19 281.945C226.596 280.359 226.382 278.656 226.566 276.973C227.796 266.093 231.623 248.567 242.088 222.257C254.22 191.751 249.844 184.381 236.844 162.505C232.646 155.435 227.886 147.426 222.759 137.138C209.537 110.71 214.561 90.3418 221.087 77.9451C228.026 64.7499 237.952 57.8399 239.06 57.093L249.304 74.0509L248.365 74.9904C248.342 74.9904 248.835 74.9904 249.548 76.2916C245.539 79.7681 242.243 83.9912 239.844 88.7259C234.163 100.108 234.914 113.153 242.074 127.466C246.867 137.058 251.412 144.71 255.422 151.461C262.624 163.58 268.309 173.154 270.192 185.24C272.141 197.75 269.723 211.208 262.168 230.242C252.21 255.275 249.022 270.941 248.051 279.35C247.789 281.634 246.808 283.776 245.249 285.465C243.69 287.154 241.634 288.303 239.379 288.745L239.365 288.754Z" fill="#3F3D56"/>
<path d="M192.025 43.4752L235.477 0L279.352 43.4752H249.534V76.7193H221.843V43.6866L192.025 43.4752Z" fill="#080B24"/>
<path opacity="0.1" d="M330.528 288.543C345.826 288.543 358.228 286.888 358.228 284.846C358.228 282.804 345.826 281.149 330.528 281.149C315.229 281.149 302.827 282.804 302.827 284.846C302.827 286.888 315.229 288.543 330.528 288.543Z" fill="black"/>
<path d="M332.449 284.86C331.581 285.03 330.686 284.993 329.836 284.753C328.986 284.512 328.204 284.075 327.553 283.477C326.903 282.878 326.403 282.135 326.092 281.307C325.782 280.479 325.671 279.59 325.768 278.711C326.406 273.032 328.406 263.881 333.871 250.146C340.205 234.217 337.918 230.369 331.134 218.945C328.941 215.258 326.439 211.072 323.767 205.698C316.875 191.902 319.495 181.271 322.904 174.798C325.15 170.491 328.364 166.764 332.294 163.909L337.641 172.764L337.144 173.234C337.144 173.234 337.397 173.234 337.763 173.915C335.668 175.729 333.946 177.934 332.693 180.407C329.73 186.349 330.124 193.156 333.862 200.634C336.364 205.642 338.735 209.639 340.829 213.163C344.585 219.49 347.557 224.488 348.543 230.802C349.557 237.331 348.304 244.359 344.35 254.289C339.153 267.357 337.486 275.536 336.979 279.928C336.846 281.122 336.335 282.242 335.521 283.125C334.707 284.008 333.632 284.608 332.453 284.837L332.449 284.86Z" fill="#3F3D56"/>
<path d="M307.729 156.792L330.415 134.094L353.327 156.792H337.758V174.15H323.298V156.905L307.729 156.792Z" fill="#080B24"/>
<path opacity="0.1" d="M140.85 288.543C156.148 288.543 168.55 286.888 168.55 284.846C168.55 282.804 156.148 281.149 140.85 281.149C125.551 281.149 113.149 282.804 113.149 284.846C113.149 286.888 125.551 288.543 140.85 288.543Z" fill="black"/>
<path d="M138.929 284.86C139.796 285.03 140.691 284.993 141.542 284.753C142.392 284.512 143.174 284.075 143.824 283.477C144.475 282.878 144.975 282.135 145.285 281.307C145.596 280.479 145.707 279.59 145.61 278.711C144.972 273.032 142.972 263.881 137.507 250.146C131.173 234.217 133.46 230.369 140.244 218.945C142.436 215.258 144.939 211.072 147.61 205.698C154.502 191.902 151.883 181.271 148.474 174.798C146.228 170.491 143.013 166.764 139.084 163.909L133.737 172.764L134.234 173.234C134.234 173.234 133.981 173.234 133.614 173.915C135.71 175.729 137.432 177.934 138.685 180.407C141.648 186.349 141.253 193.156 137.516 200.634C135.014 205.642 132.643 209.639 130.549 213.163C126.793 219.49 123.821 224.488 122.835 230.802C121.821 237.331 123.074 244.359 127.027 254.289C132.225 267.357 133.891 275.536 134.399 279.928C134.532 281.122 135.043 282.242 135.857 283.125C136.671 284.008 137.746 284.608 138.924 284.837L138.929 284.86Z" fill="#3F3D56"/>
<path d="M163.649 156.792L140.963 134.094L118.051 156.792H133.62V174.15H148.08V156.905L163.649 156.792Z" fill="#080B24"/>
<path opacity="0.1" d="M235.694 137.455C240.915 135.909 244.998 134.151 244.814 133.529C244.63 132.907 240.248 133.656 235.027 135.203C229.806 136.749 225.722 138.507 225.906 139.129C226.09 139.751 230.472 139.001 235.694 137.455Z" fill="black"/>
<path opacity="0.1" d="M239.917 146.851C245.139 145.305 249.222 143.547 249.038 142.925C248.854 142.303 244.472 143.053 239.251 144.599C234.03 146.146 229.946 147.903 230.13 148.525C230.314 149.147 234.696 148.398 239.917 146.851Z" fill="black"/>
<path opacity="0.1" d="M244.611 153.895C249.832 152.348 253.916 150.591 253.732 149.969C253.548 149.347 249.166 150.096 243.944 151.643C238.723 153.189 234.64 154.947 234.824 155.569C235.008 156.191 239.39 155.441 244.611 153.895Z" fill="black"/>
<path opacity="0.1" d="M248.371 160.942C253.593 159.396 257.676 157.638 257.492 157.016C257.308 156.394 252.926 157.143 247.705 158.69C242.484 160.236 238.4 161.994 238.584 162.616C238.768 163.238 243.15 162.488 248.371 160.942Z" fill="black"/>
<path d="M413.723 285.625H393.779C392.682 285.625 391.629 285.189 390.854 284.413C390.078 283.637 389.642 282.585 389.642 281.487C389.642 280.389 390.078 279.337 390.854 278.561C391.629 277.784 392.682 277.348 393.779 277.348C393.224 277.367 392.671 277.274 392.153 277.075C391.636 276.875 391.163 276.573 390.764 276.188C390.365 275.802 390.048 275.339 389.831 274.828C389.615 274.317 389.503 273.768 389.503 273.212C389.503 272.657 389.615 272.108 389.831 271.596C390.048 271.085 390.365 270.623 390.764 270.237C391.163 269.851 391.636 269.55 392.153 269.35C392.671 269.151 393.224 269.057 393.779 269.076H394.689C395.211 265.515 399.225 262.744 404.108 262.739C408.99 262.735 413.028 265.501 413.54 269.057H413.723C414.278 269.039 414.83 269.132 415.348 269.331C415.866 269.531 416.338 269.832 416.737 270.218C417.136 270.604 417.454 271.067 417.67 271.578C417.887 272.089 417.999 272.638 417.999 273.194C417.999 273.749 417.887 274.298 417.67 274.809C417.454 275.321 417.136 275.783 416.737 276.169C416.338 276.555 415.866 276.856 415.348 277.056C414.83 277.255 414.278 277.348 413.723 277.33C414.82 277.33 415.872 277.766 416.648 278.542C417.424 279.318 417.859 280.371 417.859 281.468C417.859 282.566 417.424 283.618 416.648 284.394C415.872 285.171 414.82 285.607 413.723 285.607V285.625Z" fill="#080B24"/>
<path opacity="0.1" d="M417.855 273.21C417.854 274.307 417.418 275.358 416.644 276.134C415.869 276.909 414.819 277.346 413.723 277.349H393.784L413.597 269.058H413.719C414.817 269.06 415.87 269.499 416.646 270.278C417.421 271.056 417.856 272.111 417.855 273.21Z" fill="black"/>
<path opacity="0.1" d="M389.765 281.529C389.768 282.625 390.206 283.675 390.981 284.45C391.756 285.225 392.805 285.661 393.901 285.663H413.845L394.018 277.41H393.91C392.816 277.411 391.767 277.844 390.99 278.616C390.214 279.387 389.773 280.435 389.765 281.529Z" fill="black"/>
<path d="M292.498 280.684H281.179C280.556 280.684 279.959 280.437 279.519 279.996C279.079 279.556 278.831 278.958 278.831 278.335C278.831 277.712 279.079 277.115 279.519 276.675C279.959 276.234 280.556 275.987 281.179 275.987C280.556 275.987 279.959 275.739 279.519 275.299C279.079 274.858 278.831 274.261 278.831 273.638C278.831 273.015 279.079 272.418 279.519 271.977C279.959 271.537 280.556 271.289 281.179 271.289H281.7C281.991 269.269 284.273 267.696 287.043 267.696C289.813 267.696 292.095 269.26 292.395 271.28H292.498C293.121 271.28 293.718 271.527 294.158 271.968C294.599 272.408 294.846 273.006 294.846 273.628C294.846 274.251 294.599 274.849 294.158 275.289C293.718 275.73 293.121 275.977 292.498 275.977C293.121 275.977 293.718 276.225 294.158 276.665C294.599 277.106 294.846 277.703 294.846 278.326C294.846 278.949 294.599 279.546 294.158 279.987C293.718 280.427 293.121 280.675 292.498 280.675V280.684Z" fill="#080B24"/>
<path opacity="0.1" d="M294.845 273.638C294.845 274.261 294.598 274.858 294.158 275.299C293.718 275.739 293.12 275.987 292.498 275.987H281.178L292.446 271.289H292.498C293.12 271.289 293.718 271.537 294.158 271.977C294.598 272.417 294.845 273.015 294.845 273.638Z" fill="black"/>
<path opacity="0.1" d="M278.906 278.349C278.906 278.972 279.153 279.57 279.593 280.01C280.034 280.451 280.631 280.698 281.253 280.698H292.568L281.3 276H281.23C280.611 276.007 280.02 276.257 279.585 276.697C279.15 277.136 278.906 277.73 278.906 278.349Z" fill="black"/>
<path d="M80.4958 294.011H56.5513C55.887 294.031 55.2255 293.918 54.6058 293.678C53.9861 293.438 53.421 293.075 52.9439 292.613C52.4669 292.15 52.0876 291.596 51.8285 290.983C51.5695 290.371 51.436 289.713 51.436 289.048C51.436 288.383 51.5695 287.725 51.8285 287.113C52.0876 286.5 52.4669 285.946 52.9439 285.484C53.421 285.021 53.9861 284.658 54.6058 284.418C55.2255 284.178 55.887 284.065 56.5513 284.085C55.887 284.106 55.2255 283.992 54.6058 283.752C53.9861 283.512 53.421 283.15 52.9439 282.687C52.4669 282.224 52.0876 281.67 51.8285 281.058C51.5695 280.445 51.436 279.787 51.436 279.122C51.436 278.457 51.5695 277.799 51.8285 277.187C52.0876 276.575 52.4669 276.021 52.9439 275.558C53.421 275.095 53.9861 274.733 54.6058 274.492C55.2255 274.252 55.887 274.139 56.5513 274.159H57.6405C58.2649 269.889 63.0867 266.564 68.9414 266.559C74.796 266.554 79.6225 269.871 80.2563 274.136H80.4723C81.7614 274.176 82.9845 274.716 83.8823 275.642C84.7802 276.569 85.2823 277.808 85.2823 279.099C85.2823 280.389 84.7802 281.629 83.8823 282.555C82.9845 283.482 81.7614 284.022 80.4723 284.062C81.7614 284.101 82.9845 284.642 83.8823 285.568C84.7802 286.494 85.2823 287.734 85.2823 289.025C85.2823 290.315 84.7802 291.555 83.8823 292.481C82.9845 293.407 81.7614 293.948 80.4723 293.987L80.4958 294.011Z" fill="#080B24"/>
<path opacity="0.1" d="M85.4487 279.12C85.4462 280.434 84.9239 281.694 83.9958 282.625C83.0677 283.555 81.8093 284.08 80.4955 284.085H56.551L80.3171 274.136H80.4626C81.1172 274.135 81.7655 274.264 82.3704 274.514C82.9753 274.764 83.525 275.131 83.988 275.594C84.4511 276.057 84.8185 276.606 85.0691 277.211C85.3197 277.816 85.4487 278.465 85.4487 279.12Z" fill="black"/>
<path opacity="0.1" d="M51.7483 289.078C51.7545 290.393 52.2803 291.652 53.2109 292.581C54.1415 293.509 55.4014 294.032 56.7156 294.034H80.6601L56.8705 284.132H56.725C55.4111 284.133 54.151 284.654 53.2189 285.58C52.2867 286.506 51.7582 287.764 51.7483 289.078Z" fill="black"/>
<path opacity="0.1" d="M129.582 71.8998C127.719 71.5421 125.792 71.7482 124.047 72.4917C123.005 72.9576 121.877 73.1985 120.737 73.1985C119.596 73.1985 118.468 72.9576 117.427 72.4917C116.195 71.9522 114.862 71.6863 113.518 71.7122C112.174 71.7382 110.852 72.0554 109.642 72.642C108.952 73.0083 108.184 73.2017 107.403 73.2057C104.248 73.2057 101.623 70.0255 101.079 65.826C101.709 65.3657 102.244 64.7884 102.656 64.1255C104.506 61.1426 107.351 59.2307 110.586 59.2307C113.821 59.2307 116.638 61.1097 118.488 64.0738C119.041 64.9631 119.813 65.6951 120.731 66.1994C121.649 66.7036 122.68 66.9633 123.727 66.9534H123.812C126.324 66.9487 128.497 68.9639 129.582 71.8998Z" fill="#080B24"/>
<path opacity="0.1" d="M139.169 58.7328L134.071 61.9694L137.165 56.3324C136.289 55.6296 135.203 55.2409 134.08 55.2285H134C133.646 55.2366 133.293 55.2115 132.944 55.1533L131.211 56.2478L131.953 54.8996C130.729 54.4713 129.671 53.6674 128.93 52.6026L125.826 54.5708L127.779 51.0148C125.972 48.8446 123.53 47.5105 120.849 47.5105C117.633 47.5105 114.746 49.4224 112.915 52.4053C112.366 53.2952 111.592 54.0245 110.671 54.5194C109.75 55.0143 108.715 55.2572 107.671 55.2238H107.516C103.966 55.2238 101.083 59.2542 101.083 64.2241C101.083 69.1941 103.966 73.2245 107.516 73.2245C108.297 73.2228 109.066 73.0292 109.755 72.6608C110.965 72.0742 112.287 71.757 113.631 71.731C114.975 71.7051 116.308 71.971 117.539 72.5105C118.587 72.9784 119.721 73.2216 120.868 73.2245C122.001 73.2231 123.12 72.9847 124.155 72.5246C125.376 71.9953 126.697 71.7348 128.028 71.7608C129.359 71.7867 130.669 72.0985 131.869 72.6749C132.552 73.0335 133.313 73.222 134.085 73.2245C137.639 73.2245 140.517 69.1941 140.517 64.2241C140.534 62.3097 140.071 60.4216 139.169 58.7328Z" fill="#080B24"/>
<path opacity="0.1" d="M62.2649 123.572C64.1203 123.219 66.0386 123.425 67.7768 124.164C68.8173 124.63 69.9444 124.871 71.0844 124.871C72.2244 124.871 73.3516 124.63 74.3921 124.164C75.6233 123.624 76.9568 123.358 78.3007 123.384C79.6446 123.41 80.9669 123.728 82.1764 124.314C82.8666 124.68 83.6349 124.873 84.4159 124.878C87.5709 124.878 90.2001 121.698 90.7447 117.498C90.1135 117.039 89.5777 116.462 89.1672 115.798C87.3174 112.815 84.4488 110.903 81.2327 110.903C78.0166 110.903 75.1855 112.782 73.3357 115.746C72.7803 116.637 72.0045 117.37 71.0834 117.873C70.1623 118.377 69.1269 118.634 68.0773 118.621H67.9975C65.4997 118.621 63.3213 120.636 62.2649 123.572Z" fill="#080B24"/>
<path opacity="0.1" d="M52.6502 110.405L57.7489 113.642L54.6502 108.005C55.5264 107.302 56.6123 106.914 57.7348 106.901H57.8193C58.173 106.909 58.5267 106.884 58.8757 106.825L60.6035 107.92L59.8617 106.572C61.0874 106.144 62.147 105.34 62.8899 104.275L65.9839 106.238L64.0261 102.682C65.8384 100.512 68.2751 99.178 70.9606 99.178C74.1767 99.178 77.0407 101.09 78.8952 104.073C79.4438 104.963 80.2177 105.693 81.1386 106.188C82.0595 106.682 83.0947 106.925 84.1395 106.891H84.3085C87.8626 106.891 90.7407 110.922 90.7407 115.892C90.7407 120.862 87.8626 124.892 84.3085 124.892C83.5273 124.889 82.7586 124.696 82.069 124.328C80.8595 123.742 79.5372 123.424 78.1933 123.398C76.8495 123.373 75.5159 123.638 74.2847 124.178C73.2388 124.646 72.1064 124.889 70.9606 124.892C69.8282 124.892 68.7086 124.653 67.6741 124.192C66.4518 123.663 65.1302 123.402 63.7985 123.428C62.4669 123.454 61.1564 123.766 59.9556 124.342C59.2719 124.702 58.5117 124.89 57.7395 124.892C54.1901 124.892 51.3074 120.862 51.3074 115.892C51.2895 113.979 51.7512 112.093 52.6502 110.405Z" fill="#080B24"/>
<path d="M258.783 127.335C259.082 127.371 259.372 127.462 259.638 127.602C259.986 127.849 260.247 128.199 260.384 128.603C260.738 129.609 260.907 130.67 260.882 131.736C260.938 132.596 260.828 133.459 260.558 134.278C260.475 134.53 260.33 134.758 260.136 134.94C259.965 135.076 259.766 135.172 259.553 135.222C259.328 135.3 259.088 135.326 258.851 135.297C258.614 135.267 258.387 135.184 258.187 135.053C257.821 134.672 257.605 134.171 257.582 133.643C257.533 132.918 257.248 132.228 256.769 131.68C256.38 131.318 255.83 131.135 255.544 130.689C255.206 130.153 255.384 129.458 255.6 128.866C255.783 128.349 256.07 127.306 256.596 127.043C257.121 126.78 258.225 127.231 258.783 127.335Z" fill="#FBBEBE"/>
<path d="M238.975 129.862C239.136 130.436 239.423 130.967 239.815 131.417C240.055 131.694 240.351 132.027 240.224 132.356C240.174 132.475 240.097 132.579 239.999 132.661C238.233 134.39 235.773 135.231 233.308 135.536C233.27 135.546 233.229 135.546 233.191 135.536C233.12 135.503 233.102 135.414 233.092 135.334C233.052 135.079 233.052 134.819 233.092 134.564C233.185 134.272 233.336 134.002 233.535 133.77C233.734 133.538 233.978 133.348 234.252 133.211C234.797 132.934 235.265 132.526 235.613 132.023C235.97 131.351 235.82 130.477 236.243 129.848C236.439 129.61 236.682 129.414 236.956 129.273C237.231 129.131 237.531 129.047 237.839 129.026C238.045 128.993 238.496 128.758 238.675 128.866C238.853 128.974 238.905 129.65 238.975 129.862Z" fill="#FBBEBE"/>
<path d="M259.023 127.274C259.024 127.214 259.046 127.156 259.085 127.111C259.125 127.066 259.18 127.037 259.239 127.029C259.357 127.017 259.476 127.033 259.586 127.076C259.862 127.151 260.143 127.203 260.427 127.231C260.767 127.242 261.107 127.281 261.441 127.349C261.608 127.384 261.765 127.456 261.901 127.56C262.037 127.664 262.147 127.798 262.225 127.95C262.29 128.131 262.32 128.322 262.314 128.514C262.318 129.255 262.23 129.993 262.051 130.712C262.051 130.764 262.014 130.83 261.962 130.848C261.91 130.867 261.868 130.848 261.826 130.848C261.789 130.869 261.761 130.902 261.746 130.942C261.57 131.414 261.469 131.91 261.446 132.413C261.361 133.15 261.262 133.888 261.14 134.62C261.094 135.058 260.932 135.474 260.671 135.828C260.332 136.168 259.882 136.375 259.403 136.41C258.4 136.489 257.39 136.396 256.417 136.138C256.23 136.119 256.053 136.04 255.915 135.912C255.826 135.799 255.782 135.657 255.793 135.513C255.793 135.043 256.262 134.672 256.675 134.4L257.286 134.028C257.325 134.006 257.359 133.976 257.384 133.939C257.411 133.882 257.42 133.819 257.413 133.756L257.375 133.033C257.748 133.043 258.111 133.154 258.426 133.354C258.741 133.554 258.996 133.836 259.164 134.169C259.244 134.324 259.319 134.508 259.478 134.569C259.583 134.592 259.693 134.573 259.785 134.517C259.877 134.461 259.944 134.372 259.971 134.268C260.025 134.06 260.025 133.842 259.971 133.634C259.643 131.863 259.722 130.04 259.502 128.251C259.489 128.05 259.426 127.856 259.319 127.687C259.225 127.555 259.046 127.452 259.023 127.274Z" fill="#F86D70"/>
<path d="M234.412 134.137C234.327 134.273 234.196 134.376 234.121 134.522C234.077 134.588 234.058 134.668 234.07 134.747C234.081 134.826 234.121 134.898 234.182 134.949C234.264 134.987 234.356 134.997 234.445 134.977C236.214 134.756 237.875 134.004 239.21 132.821C239.432 132.633 239.627 132.417 239.792 132.178C239.947 131.943 240.079 131.656 240.342 131.558C240.502 132.245 240.585 132.947 240.59 133.653C240.617 133.885 240.588 134.121 240.507 134.341C240.425 134.56 240.293 134.757 240.121 134.916C239.977 135.01 239.818 135.078 239.651 135.118L238.82 135.353C238.671 135.412 238.508 135.426 238.351 135.395C238.258 135.354 238.162 135.32 238.064 135.292C237.957 135.279 237.847 135.292 237.745 135.33L237.032 135.541C236.788 135.601 236.551 135.682 236.323 135.785C236.116 135.884 235.928 136.011 235.731 136.119C235.396 136.284 235.049 136.424 234.693 136.537L233.435 136.974C233.091 137.11 232.732 137.204 232.365 137.251C232.111 137.251 231.858 137.251 231.604 137.293C231.351 137.336 231.233 137.392 231.036 137.411C230.719 137.418 230.407 137.326 230.144 137.148C230.043 137.087 229.955 137.007 229.886 136.913C229.707 136.636 229.886 136.265 230.041 135.973C230.346 135.433 230.784 134.981 231.313 134.658C231.534 134.536 231.783 134.447 231.994 134.339C232.637 134.029 233.121 133.507 233.726 133.15C234.332 132.793 234.679 133.695 234.412 134.137Z" fill="#F86D70"/>
<path d="M252.084 83.4414C252.749 83.8983 253.511 84.1957 254.309 84.3104C254.727 84.3604 255.147 84.3824 255.568 84.3762C257.323 84.3719 259.075 84.2258 260.807 83.9393C260.062 83.2274 259.497 82.3482 259.159 81.3745C259.032 80.8488 259.005 80.3037 259.08 79.7679C259.18 79.0813 259.337 78.4041 259.549 77.7433C258.81 77.7856 258.069 77.7667 257.333 77.6869C256.915 77.6447 255.887 77.2642 255.521 77.5554C255.155 77.8467 255.436 78.7721 255.446 79.2136C255.448 79.2292 255.448 79.245 255.446 79.2606C255.428 79.9266 255.285 80.5833 255.023 81.196C254.778 81.7989 254.377 82.3252 253.86 82.7201C253.343 83.115 252.73 83.364 252.084 83.4414Z" fill="#FBBEBE"/>
<path opacity="0.1" d="M255.469 79.2136C255.996 79.558 256.591 79.7856 257.214 79.8812C257.837 79.9767 258.473 79.9381 259.079 79.7679C259.18 79.0813 259.337 78.4041 259.549 77.7433C258.81 77.7856 258.068 77.7667 257.333 77.6869C256.915 77.6447 255.887 77.2642 255.52 77.5554C255.154 77.8467 255.459 78.7721 255.469 79.2136Z" fill="black"/>
<path d="M257.882 79.7304C260.319 79.7304 262.295 77.7535 262.295 75.3148C262.295 72.8761 260.319 70.8992 257.882 70.8992C255.445 70.8992 253.469 72.8761 253.469 75.3148C253.469 77.7535 255.445 79.7304 257.882 79.7304Z" fill="#FBBEBE"/>
<path d="M239.164 97.6464C239.163 98.0025 239.254 98.3527 239.428 98.6631C239.603 98.9734 239.854 99.2333 240.159 99.4174C240.498 99.5982 240.862 99.7264 241.239 99.7979C243.244 100.352 245.319 100.608 247.399 100.559C247.847 100.554 248.291 100.462 248.704 100.286C248.909 100.195 249.09 100.055 249.23 99.8796C249.371 99.7039 249.467 99.4971 249.511 99.2765C249.499 99.1513 249.528 99.0255 249.594 98.9185C249.661 98.8116 249.76 98.7294 249.878 98.6846C250.066 98.542 250.21 98.349 250.293 98.1278C250.376 97.9066 250.395 97.6664 250.347 97.4351C250.601 97.5478 250.864 97.2941 250.981 97.0452C251.098 96.7962 251.192 96.4909 251.45 96.3875C251.631 96.3465 251.815 96.3198 252 96.3077C252.291 96.2325 252.469 95.9507 252.676 95.7346C253.135 95.3301 253.663 95.0118 254.235 94.7951C255.859 93.973 257.178 92.6765 258.46 91.3988C259.132 90.7779 259.742 90.0936 260.282 89.3554C260.427 89.1393 260.563 88.9185 260.685 88.693C261.077 87.942 261.418 87.1652 261.704 86.3678C261.902 85.9523 261.991 85.4932 261.963 85.0337C261.965 84.993 261.965 84.9523 261.963 84.9116C261.879 84.6207 261.743 84.347 261.563 84.1036C261.157 83.4076 260.516 82.8796 259.756 82.6145C258.995 82.4125 258.216 82.6568 257.408 82.8212C257.149 82.8802 256.885 82.921 256.62 82.9433C255.785 82.9556 254.955 82.8253 254.164 82.5581L253.286 82.3186C252.849 82.1964 252.629 81.6656 252.188 81.5717C251.988 81.5451 251.786 81.5563 251.591 81.6046C250.682 81.7384 249.803 82.0259 248.99 82.4548C248.814 82.556 248.646 82.6707 248.488 82.7977C247.914 83.2282 247.501 83.8384 247.314 84.5311C247.131 85.2968 247.314 86.1094 247.117 86.8798C246.927 87.5008 246.623 88.0808 246.22 88.5897L244.07 91.6806C243.589 92.4039 243.059 93.093 242.483 93.7428C241.323 94.983 239.196 95.9366 239.164 97.6464Z" fill="#F86D70"/>
<path d="M244.92 68.1464C244.863 67.7178 244.731 67.3027 244.53 66.9204C244.37 66.6924 244.177 66.4897 243.957 66.3191C243.603 65.9891 243.188 65.7307 242.736 65.5581C242.506 65.4683 242.258 65.436 242.012 65.4638C241.767 65.4916 241.532 65.5788 241.328 65.7178C240.964 66.0448 240.745 66.5025 240.718 66.9908C240.619 67.653 240.734 68.3294 241.046 68.9215C241.422 69.5744 242.07 70.0113 242.61 70.5327C243.006 70.9093 243.35 71.3375 243.633 71.8058C243.763 72.0503 243.92 72.2789 244.103 72.4869C244.194 72.5899 244.308 72.6699 244.436 72.7205C244.564 72.7711 244.703 72.7908 244.84 72.7781C245.069 72.7189 245.277 72.5969 245.441 72.4258C245.661 72.2332 246.262 71.8809 246.281 71.5709C246.3 71.2609 245.812 70.7535 245.713 70.5186C245.366 69.758 245.1 68.9629 244.92 68.1464Z" fill="#FBBEBE"/>
<path d="M229.411 119.274C229.965 120.298 230.576 121.294 231.069 122.351C231.355 122.966 231.609 123.6 231.928 124.197C232.247 124.793 232.707 125.46 233.073 126.104C233.93 127.776 234.57 129.55 234.98 131.384C236.304 131.185 237.578 130.737 238.736 130.064C238.811 130.017 238.886 129.97 238.956 129.918C239.266 129.696 239.525 129.411 239.717 129.082C239.28 127.424 238.83 125.742 237.937 124.281C237.651 123.812 237.318 123.342 236.998 122.872C236.13 121.51 235.951 119.791 234.966 118.513C234.871 118.384 234.819 118.229 234.819 118.069C234.819 117.909 234.871 117.754 234.966 117.625C235.078 117.479 235.261 117.338 235.224 117.155C235.186 116.972 235.059 116.897 235.116 116.775C235.172 116.653 235.2 116.681 235.252 116.639C235.416 116.484 235.397 116.216 235.412 115.99C235.505 115.415 235.753 114.876 236.13 114.431C236.199 114.321 236.288 114.225 236.393 114.149C236.482 114.093 236.59 114.069 236.679 114.013C236.994 113.815 236.97 113.355 237.121 113.012C237.322 112.542 237.82 112.336 238.144 111.969C238.562 111.5 238.665 110.856 239.083 110.452C239.128 110.409 239.177 110.37 239.229 110.335C239.037 111.027 238.95 111.744 238.97 112.462C238.928 114.919 239.543 117.465 239.252 119.908C239.027 121.848 240.219 123.783 241.909 124.751C242.573 125.101 243.265 125.392 243.98 125.62C245.041 125.996 246.097 126.386 247.135 126.818C247.867 127.131 248.59 127.458 249.304 127.8C250.184 128.222 251.039 128.693 251.868 129.209C252.92 129.792 253.857 130.562 254.633 131.483C254.983 131.455 255.323 131.354 255.631 131.184C255.938 131.015 256.206 130.782 256.417 130.501C256.837 129.938 257.168 129.314 257.398 128.65C257.657 128.102 257.816 127.511 257.868 126.907C257.87 126.842 257.853 126.777 257.819 126.721C257.785 126.665 257.735 126.62 257.675 126.593L252.835 124.023L251.929 123.553C249.947 122.501 247.891 121.529 245.91 120.476C245.778 120.514 245.665 120.364 245.628 120.232C245.59 120.101 245.562 119.936 245.435 119.875C245.309 119.814 245.29 119.847 245.243 119.795C245.227 119.772 245.216 119.746 245.21 119.719C245.204 119.691 245.204 119.663 245.21 119.636C245.276 118.696 245.966 117.794 245.825 116.841C245.694 116.454 245.635 116.046 245.651 115.638C245.754 115.376 245.877 115.121 246.018 114.877C246.257 114.295 246.018 113.59 246.28 112.998C246.454 112.621 246.571 112.221 246.628 111.81C246.754 110.993 247.004 110.201 247.37 109.461C247.545 109.085 247.774 108.737 248.05 108.427C248.196 108.272 248.36 108.131 248.52 107.958C248.905 107.427 249.144 106.805 249.215 106.154C249.491 104.996 249.525 103.793 249.313 102.621C249.192 102.235 249.117 101.836 249.088 101.433C249.088 100.897 249.328 100.273 248.957 99.8873C248.804 99.7497 248.618 99.6542 248.417 99.6102C247.555 99.3856 246.678 99.2285 245.792 99.1404L241.745 98.6143C241.278 98.5834 240.821 98.4655 240.398 98.2667C239.862 97.9309 239.461 97.417 239.266 96.8152C238.553 97.3319 238.29 98.2996 237.722 98.9666C237.444 99.2954 237.106 99.5585 236.783 99.8592C236.414 100.25 236.075 100.668 235.768 101.109C234.889 102.24 234.122 103.455 233.477 104.735C233.163 105.412 232.919 106.116 232.665 106.816C231.679 109.574 230.069 112.19 229.379 115.041C229.214 115.741 228.787 116.371 228.721 117.08C228.729 117.864 228.969 118.627 229.411 119.274Z" fill="#434175"/>
<path opacity="0.1" d="M250.591 96.3689C250.69 96.5519 250.74 96.7574 250.737 96.9655C250.647 96.4958 250.032 96.2703 249.995 95.8287C249.995 95.6267 249.995 95.6361 250.14 95.7442C250.286 95.8522 250.413 96.1951 250.591 96.3689Z" fill="black"/>
<path opacity="0.1" d="M248.722 97.7217C248.85 97.832 248.946 97.9749 248.999 98.1351C249.104 98.3617 249.124 98.6184 249.056 98.8585C248.966 98.8162 248.938 98.7034 248.91 98.6095C248.865 98.459 248.801 98.3152 248.718 98.182C248.647 98.0646 248.309 97.7921 248.314 97.6653C248.318 97.5385 248.633 97.6559 248.722 97.7217Z" fill="black"/>
<path opacity="0.1" d="M248.506 82.7838C248.793 83.0274 249.108 83.2356 249.445 83.4039C250.318 83.8454 251.285 84.0803 252.168 84.5078C252.605 84.7238 253.018 84.9775 253.431 85.2453L256.046 86.9035C256.255 87.0261 256.449 87.1727 256.624 87.3403C256.933 87.6786 256.933 88.2798 257.22 88.6275C257.38 88.8081 257.575 88.9536 257.794 89.0547C258.013 89.1558 258.251 89.2102 258.492 89.2146C258.972 89.2163 259.448 89.1352 259.901 88.9751C260.175 88.8925 260.445 88.7937 260.708 88.6791C260.983 88.5626 261.243 88.4144 261.483 88.2376C261.728 88.071 261.937 87.8573 262.098 87.6088C262.259 87.3604 262.369 87.0823 262.422 86.7907C262.452 86.3912 262.399 85.9898 262.267 85.6117C262.194 85.3659 262.1 85.127 261.985 84.8977C261.924 84.7657 261.85 84.6399 261.765 84.5219C261.164 83.6716 260.107 83.2723 259.084 83.0703C258.544 82.967 257.994 82.9012 257.455 82.8073C257.195 82.8663 256.931 82.9071 256.666 82.9294C255.831 82.9416 255.001 82.8114 254.21 82.5442L253.332 82.3047C252.896 82.1825 252.675 81.6517 252.234 81.5577C252.035 81.5312 251.832 81.5424 251.637 81.5906C250.729 81.7245 249.849 82.012 249.036 82.4409C248.851 82.5409 248.673 82.6555 248.506 82.7838Z" fill="black"/>
<path d="M246.374 71.0823C246.487 72.1486 247.384 72.9331 247.933 73.8538C248.201 74.3235 248.403 74.7933 248.628 75.263C248.911 75.767 249.225 76.2533 249.567 76.7193L250.548 78.1285C251.091 78.9849 251.72 79.783 252.426 80.5101C253.713 80.7309 254.774 81.6845 256.004 82.1449C257.004 82.4392 258.029 82.6467 259.065 82.7649C260.088 82.9669 261.145 83.3662 261.746 84.2164C261.967 84.5538 262.137 84.9228 262.248 85.311C262.381 85.6889 262.434 86.0905 262.403 86.49C262.35 86.7807 262.24 87.058 262.078 87.3055C261.917 87.5531 261.708 87.7661 261.464 87.9322C260.985 88.2712 260.449 88.521 259.882 88.6697C259.43 88.8321 258.953 88.9132 258.473 88.9092C258.232 88.906 257.994 88.852 257.775 88.7509C257.556 88.6497 257.36 88.5036 257.201 88.3221C256.915 87.965 256.919 87.3826 256.605 87.0396C256.431 86.8702 256.237 86.7235 256.027 86.6028L253.412 84.9446C253.006 84.6745 252.584 84.4283 252.149 84.2071C251.266 83.7749 250.299 83.5447 249.426 83.0984C248.553 82.6522 247.736 81.9288 247.548 80.9611C247.018 77.997 244.966 75.4979 243.215 73.0505C243.271 73.0505 243.252 72.9096 243.276 72.8532C243.527 72.277 243.984 71.815 244.557 71.5567C245.141 71.3232 245.751 71.1638 246.374 71.0823Z" fill="#F86D70"/>
<path d="M255.619 71.0824C255.582 70.7579 255.646 70.4297 255.802 70.1429C255.979 69.9232 256.199 69.7419 256.449 69.6102C256.698 69.4785 256.972 69.3993 257.253 69.3772C257.784 69.2645 258.314 69.1752 258.849 69.0954C259.284 69.0078 259.731 68.9998 260.169 69.0719C260.743 69.2748 261.295 69.5361 261.817 69.8517C262.496 70.096 263.197 70.2753 263.911 70.3872C264.634 70.4967 265.298 70.8536 265.789 71.3972C266.097 71.8665 266.289 72.4028 266.347 72.9614C267.183 77.471 266.282 82.0933 266.113 86.6781C266.047 88.4584 266.113 90.3656 267.145 91.8453L264.178 91.7701C263.422 91.7466 262.605 91.7091 262.004 91.2393C261.518 90.7763 261.173 90.1851 261.009 89.5341C260.807 89.0471 260.679 88.5325 260.629 88.0074C260.582 86.927 261.192 85.8701 260.995 84.8132C260.786 84.0126 260.304 83.3101 259.633 82.8261C258.984 82.3516 258.382 81.8151 257.835 81.2243C256.948 80.0969 256.779 78.5608 256.896 77.1281C257.015 76.2849 257.063 75.4333 257.042 74.582C257.005 73.9311 256.771 73.3069 256.37 72.7923C255.907 72.3421 255.637 71.7285 255.619 71.0824Z" fill="#434175"/>
<path opacity="0.1" d="M255.802 70.1428C255.973 69.9272 256.187 69.7486 256.429 69.6178C256.671 69.487 256.937 69.4067 257.211 69.3818C256.921 69.4831 256.673 69.6782 256.507 69.9361C256.35 70.2229 256.286 70.5511 256.324 70.8756C256.342 71.5236 256.615 72.138 257.084 72.5855C257.483 73.0988 257.717 73.7213 257.755 74.3706C257.777 75.2234 257.729 76.0765 257.61 76.9213C257.502 78.3305 257.671 79.8854 258.549 81.0128C259.095 81.6036 259.697 82.1401 260.347 82.6146C261.003 83.093 261.477 83.7805 261.69 84.5641C261.887 85.6257 261.277 86.6827 261.324 87.7584C261.373 88.2835 261.501 88.7982 261.704 89.2851C261.868 89.9361 262.213 90.5273 262.699 90.9902C263.3 91.46 264.108 91.5023 264.873 91.5211L266.976 91.5774C267.023 91.6526 267.07 91.7277 267.122 91.8029L264.155 91.7278C263.399 91.7043 262.582 91.6667 261.981 91.1969C261.495 90.734 261.15 90.1428 260.986 89.4918C260.783 89.0047 260.655 88.4901 260.605 87.9651C260.558 86.8847 261.169 85.8277 260.972 84.7708C260.76 83.9891 260.288 83.3032 259.633 82.826C258.984 82.3515 258.382 81.815 257.835 81.2242C256.948 80.0968 256.779 78.5607 256.896 77.128C257.015 76.2848 257.063 75.4332 257.042 74.582C257.005 73.931 256.771 73.3068 256.37 72.7922C255.903 72.3435 255.631 71.7298 255.61 71.0823C255.575 70.7568 255.643 70.4285 255.802 70.1428Z" fill="black"/>
<path opacity="0.1" d="M233.515 116.648L238.975 129.918C239.285 129.696 239.544 129.411 239.736 129.082C239.299 127.424 238.848 125.742 237.956 124.281C237.67 123.812 237.337 123.342 237.017 122.872C236.149 121.51 235.97 119.791 234.984 118.513C234.889 118.384 234.838 118.229 234.838 118.069C234.838 117.909 234.889 117.754 234.984 117.625C235.097 117.479 235.28 117.338 235.243 117.155C235.205 116.972 235.078 116.897 235.135 116.775C235.191 116.653 235.219 116.681 235.271 116.639C235.435 116.484 235.416 116.216 235.43 115.99C235.524 115.415 235.772 114.876 236.149 114.431C236.217 114.321 236.307 114.225 236.412 114.149C236.501 114.093 236.609 114.069 236.698 114.013C237.013 113.815 236.989 113.355 237.139 113.012C237.341 112.542 237.839 112.336 238.163 111.969C238.581 111.5 238.684 110.856 239.102 110.452L239.139 110.358L238.726 107.793L233.515 116.648Z" fill="black"/>
<defs>
<linearGradient id="paint0_linear" x1="247.924" y1="137.679" x2="247.924" y2="65.2387" gradientUnits="userSpaceOnUse">
<stop stop-color="#808080" stop-opacity="0.25"/>
<stop offset="0.54" stop-color="#808080" stop-opacity="0.12"/>
<stop offset="1" stop-color="#808080" stop-opacity="0.1"/>
</linearGradient>
</defs>
</svg>
