<svg width="350" height="300" viewBox="0 0 350 300" fill="none" xmlns="http://www.w3.org/2000/svg">
<path d="M12.3753 32.5029C19.1593 32.5029 24.6589 27.01 24.6589 20.2341C24.6589 13.4583 19.1593 7.96533 12.3753 7.96533C5.59132 7.96533 0.0917969 13.4583 0.0917969 20.2341C0.0917969 27.01 5.59132 32.5029 12.3753 32.5029Z" fill="#FF6584"/>
<path d="M74.7236 76.0016V71.1684H56.1122V76.0016H52.3899V7.96545H12.5615V122.103H45.3176H52.3899H85.146V76.0016H74.7236Z" fill="#E6E6E6"/>
<path d="M212.779 63.5763C212.779 63.5763 212.754 63.6006 212.71 63.6431L212.711 63.5763L212.709 63.6445C211.767 64.559 201.284 74.8905 197.217 85.3696C195.867 83.8694 194.913 82.9541 194.913 82.9541C194.913 82.9541 194.896 82.97 194.867 82.9979L194.868 82.9541L194.866 82.9988C194.099 83.744 183.664 94.0296 183.664 102.18C183.664 110.05 188.02 113.155 193.627 113.551L193.22 121.314H194.356L194.482 113.591C194.625 113.594 194.768 113.596 194.913 113.596C199.056 113.596 202.673 112.279 204.625 108.894C206.604 109.674 208.694 110.135 210.818 110.259L210.197 122.102H211.931L212.122 110.32C212.34 110.325 212.559 110.328 212.779 110.328C222.258 110.328 229.942 105.82 229.942 92.9101C229.942 80 212.779 63.5763 212.779 63.5763Z" fill="#F2F2F2"/>
<path d="M171.875 71.6409V64.848H151.03V71.6409H141.352V44.7718H132.047V34.3619H111.202V44.7718H101.524V86.9527C100.121 85.1986 98.616 83.5282 97.017 81.95C97.017 81.95 97.0004 81.9659 96.9717 81.9938L96.972 81.95L96.9708 81.9947C96.2036 82.7399 85.7681 93.0255 85.7681 101.176C85.7681 109.045 90.1242 112.151 95.7312 112.547L95.3244 120.309H96.4607L96.5863 112.587C96.7293 112.59 96.8727 112.592 97.017 112.592C98.5431 112.611 100.063 112.397 101.524 111.956V122.102H181.181V71.6409H171.875Z" fill="#F2F2F2"/>
<path d="M332.265 64.0592C332.265 64.0592 332.24 64.0835 332.196 64.126L332.197 64.0592L332.195 64.1274C331.22 65.074 320.024 76.1091 316.3 86.9543V81.5781L280.566 27.6697L244.832 81.5781V122.102H316.3V101.15C318.584 107.528 323.91 110.29 330.304 110.742L329.683 122.585H331.416L331.608 110.803C331.826 110.808 332.045 110.811 332.265 110.811C341.744 110.811 349.428 106.303 349.428 93.393C349.428 80.4829 332.265 64.0592 332.265 64.0592Z" fill="#F2F2F2"/>
<path d="M56.8564 136.721C82.8618 136.721 103.943 134.78 103.943 132.386C103.943 129.992 82.8618 128.051 56.8564 128.051C30.851 128.051 9.76953 129.992 9.76953 132.386C9.76953 134.78 30.851 136.721 56.8564 136.721Z" fill="#F2F2F2"/>
<path d="M317.975 189.235C329.573 189.235 338.975 188.37 338.975 187.302C338.975 186.234 329.573 185.369 317.975 185.369C306.378 185.369 296.976 186.234 296.976 187.302C296.976 188.37 306.378 189.235 317.975 189.235Z" fill="#F2F2F2"/>
<path d="M93.1498 155.403C104.748 155.403 114.15 154.537 114.15 153.47C114.15 152.402 104.748 151.536 93.1498 151.536C81.5519 151.536 72.1499 152.402 72.1499 153.47C72.1499 154.537 81.5519 155.403 93.1498 155.403Z" fill="#F2F2F2"/>
<path d="M326.908 179.532C326.908 184.953 323.681 186.846 319.701 186.846C319.609 186.846 319.517 186.845 319.425 186.843C319.241 186.839 319.058 186.83 318.877 186.818C315.285 186.564 312.495 184.573 312.495 179.532C312.495 174.315 319.17 167.731 319.671 167.244L319.672 167.243C319.691 167.224 319.701 167.215 319.701 167.215C319.701 167.215 326.908 174.111 326.908 179.532Z" fill="#080B24"/>
<path d="M319.439 186.016L322.075 182.338L319.432 186.42L319.425 186.843C319.241 186.839 319.058 186.83 318.878 186.818L319.162 181.394L319.16 181.352L319.165 181.344L319.191 180.832L316.542 176.739L319.2 180.448L319.206 180.556L319.421 176.459L317.153 172.23L319.448 175.739L319.672 167.244L319.673 167.215V167.243L319.635 173.942L321.893 171.286L319.626 174.519L319.566 178.188L321.674 174.667L319.558 178.728L319.524 180.768L322.585 175.867L319.513 181.48L319.439 186.016Z" fill="#3F3D56"/>
<path d="M39.1764 257.879C60.8129 257.879 78.3528 256.264 78.3528 254.272C78.3528 252.28 60.8129 250.665 39.1764 250.665C17.5399 250.665 0 252.28 0 254.272C0 256.264 17.5399 257.879 39.1764 257.879Z" fill="#F2F2F2"/>
<path d="M55.8411 239.776C55.8411 249.889 49.8222 253.421 42.3968 253.421C42.2248 253.421 42.0531 253.419 41.8816 253.415C41.5376 253.407 41.1968 253.391 40.8602 253.368C34.1589 252.894 28.9526 249.182 28.9526 239.776C28.9526 230.043 41.4057 217.761 42.3411 216.852L42.3428 216.851C42.3788 216.815 42.3968 216.798 42.3968 216.798C42.3968 216.798 55.8411 229.663 55.8411 239.776Z" fill="#080B24"/>
<path d="M41.9067 251.873L46.8238 245.011L41.8944 252.627L41.8813 253.415C41.5373 253.407 41.1965 253.391 40.8598 253.368L41.3898 243.25L41.3857 243.172L41.3947 243.157L41.4447 242.201L36.5029 234.567L41.4602 241.485L41.4717 241.688L41.8723 234.043L37.6415 226.154L41.9239 232.701L42.3408 216.852L42.3424 216.798V216.851L42.2728 229.348L46.4847 224.394L42.2556 230.425L42.1442 237.27L46.0768 230.701L42.1279 238.277L42.0656 242.082L47.7749 232.939L42.0443 243.41L41.9067 251.873Z" fill="#3F3D56"/>
<path d="M110.271 84.1447C110.271 105.494 97.5638 112.949 81.8887 112.949C66.2135 112.949 53.5063 105.494 53.5063 84.1447C53.5063 62.7951 81.8887 35.6351 81.8887 35.6351C81.8887 35.6351 110.271 62.7951 110.271 84.1447Z" fill="#080B24"/>
<path d="M80.8551 109.683L81.1458 91.8154L93.2432 69.7103L81.1912 89.0125L81.3218 80.9783L89.6594 64.9857L81.3565 78.8521V78.8524L81.5917 64.4028L90.5196 51.6707L81.6286 62.1304L81.7756 35.635L80.8525 70.7104L80.9284 69.2634L71.8512 55.3859L80.7828 72.041L79.9372 88.1786L79.9118 87.7503L69.4478 73.1467L79.8802 89.2635L79.7745 91.2815L79.7555 91.312L79.7641 91.4778L77.6185 132.42H80.4854L80.8294 111.273L91.2361 95.1952L80.8551 109.683Z" fill="#3F3D56"/>
<path d="M60.498 84.1447C60.498 105.494 47.7908 112.949 32.1157 112.949C16.4406 112.949 3.7334 105.494 3.7334 84.1447C3.7334 62.7951 32.1157 35.6351 32.1157 35.6351C32.1157 35.6351 60.498 62.7951 60.498 84.1447Z" fill="#080B24"/>
<path d="M31.0816 109.683L31.3723 91.8154L43.4694 69.7103L31.4177 89.0125L31.5484 80.9783L39.8859 64.9857L31.583 78.8521V78.8524L31.8183 64.4028L40.7458 51.6707L31.8551 62.1304L32.0018 35.635L31.079 70.7104L31.155 69.2634L22.0778 55.3859L31.0094 72.041L30.1637 88.1786L30.1384 87.7503L19.6743 73.1467L30.1068 89.2635L30.001 91.2815L29.9821 91.312L29.9906 91.4778L27.8451 132.42H30.712L31.0559 111.273L41.4627 95.1952L31.0816 109.683Z" fill="#3F3D56"/>
<path d="M98.7323 65.5968C98.7323 94.4666 81.5491 104.547 60.3525 104.547C39.1559 104.547 21.9727 94.4666 21.9727 65.5968C21.9727 36.727 60.3525 6.10352e-05 60.3525 6.10352e-05C60.3525 6.10352e-05 98.7323 36.727 98.7323 65.5968Z" fill="#F2F2F2"/>
<path d="M58.9543 100.131L59.3474 75.9693L75.7057 46.078L59.4092 72.1789L59.5856 61.3151L70.86 39.6893L59.6325 58.4401L59.9504 38.9007L72.0229 21.6839L60.0003 35.8283L60.1987 6.10352e-05L58.951 47.4302L59.0533 45.4735L46.7791 26.7081L58.8568 49.2296L57.7129 71.0517L57.6791 70.4725L43.5288 50.7245L57.6363 72.5188L57.4929 75.2476L57.4673 75.2885L57.4792 75.5127L54.5777 130.877H58.4544L58.9193 102.28L72.9922 80.54L58.9543 100.131Z" fill="#3F3D56"/>
<path d="M97.9876 149.242C97.9888 149.794 97.8951 150.342 97.7105 150.862C97.4412 151.614 96.9911 152.288 96.3995 152.826C95.7775 153.388 95.0194 153.779 94.2 153.959C93.855 154.037 93.5023 154.076 93.1486 154.076C92.2669 154.074 91.402 153.834 90.6456 153.381C89.9456 152.957 89.3639 152.363 88.9541 151.655C88.5838 151.012 88.3664 150.294 88.3186 149.554C88.2709 148.814 88.394 148.074 88.6786 147.389C88.9632 146.705 89.4015 146.095 89.9598 145.606C90.5181 145.118 91.1813 144.764 91.8982 144.573C92.6151 144.382 93.3664 144.357 94.0942 144.502C94.8219 144.647 95.5066 144.957 96.0952 145.409C96.6838 145.86 97.1606 146.441 97.4887 147.105C97.8169 147.77 97.9876 148.501 97.9876 149.242V149.242Z" fill="#3F3D56"/>
<path d="M89.5018 146.066L89.9351 146.011L90.7599 147.094L90.2343 148.349L88.8839 148.52L88.4771 147.984L89.5018 146.066Z" fill="#F2F2F2"/>
<path d="M92.2133 151.204L90.8621 151.376L90.0376 150.293L90.5647 149.038L91.9155 148.867L92.74 149.949L92.2133 151.204Z" fill="#F2F2F2"/>
<path d="M90.9799 152.586L90.6455 153.382C89.9456 152.957 89.3639 152.363 88.9541 151.655L90.1551 151.503L90.9799 152.586Z" fill="#F2F2F2"/>
<path d="M93.7534 147.469L92.4026 147.641L91.5781 146.558L92.1048 145.304L93.456 145.132L94.2801 146.215L93.7534 147.469Z" fill="#F2F2F2"/>
<path d="M95.7328 150.325L94.3816 150.497L93.5571 149.414L94.0838 148.16L95.435 147.988L96.2595 149.071L95.7328 150.325Z" fill="#F2F2F2"/>
<path d="M94.4994 153.245L94.2002 153.959C93.8552 154.037 93.5026 154.076 93.1489 154.076C92.7884 154.076 92.4291 154.035 92.0777 153.955L91.7983 153.588L92.324 152.334L93.6746 152.162L94.4994 153.245Z" fill="#F2F2F2"/>
<path d="M97.4531 147.035L96.1422 147.202L95.3174 146.118L95.7243 145.15C96.4594 145.612 97.0566 146.263 97.4531 147.035Z" fill="#F2F2F2"/>
<path d="M97.7108 150.862C97.4416 151.614 96.9914 152.288 96.3998 152.826L95.9775 152.27L96.5032 151.015L97.7108 150.862Z" fill="#F2F2F2"/>
<path d="M203.514 300C253.469 300 293.966 297.628 293.966 294.702C293.966 291.776 253.469 289.404 203.514 289.404C153.559 289.404 113.063 291.776 113.063 294.702C113.063 297.628 153.559 300 203.514 300Z" fill="#F2F2F2"/>
<path d="M159.075 279.497L139.992 296.597C131.436 292.85 125.755 286.473 122.871 277.537L141.954 260.437C142.074 271.673 147.9 277.923 159.075 279.497Z" fill="#E6E6E6"/>
<path d="M139.845 268.137L126.955 279.133L127.197 279.415L140.087 268.42L139.845 268.137Z" fill="#3F3D56"/>
<path d="M141.138 270.439L128.717 281.633L128.966 281.909L141.387 270.715L141.138 270.439Z" fill="#3F3D56"/>
<path d="M168.47 217.405L142.975 220.099C138.238 212.056 137.374 203.563 140.277 194.634L165.772 191.94C159.28 201.117 160.336 209.591 168.47 217.405Z" fill="#F2F2F2"/>
<path d="M159.547 196.947L142.65 198.317L142.68 198.687L159.577 197.317L159.547 196.947Z" fill="#3F3D56"/>
<path d="M159.244 199.569L142.613 201.374L142.653 201.743L159.285 199.938L159.244 199.569Z" fill="#3F3D56"/>
<path d="M145.153 163.43L128.109 144.301C131.896 135.77 138.304 130.122 147.261 127.278L164.305 146.407C153.055 146.482 146.774 152.275 145.153 163.43Z" fill="#E6E6E6"/>
<path d="M145.648 131.35L145.364 131.59L156.321 144.51L156.605 144.269L145.648 131.35Z" fill="#3F3D56"/>
<path d="M143.137 133.1L142.86 133.347L154.017 145.799L154.294 145.551L143.137 133.1Z" fill="#3F3D56"/>
<path d="M164.294 72.8075L146.886 82.8456L171.639 125.668L189.047 115.63L164.294 72.8075Z" fill="#3F3D56"/>
<path d="M167.367 83.1733L153.515 91.4622L153.706 91.7809L167.559 83.4921L167.367 83.1733Z" fill="#080B24"/>
<path d="M169.571 86.2467L155.719 94.5356L155.91 94.8544L169.762 86.5655L169.571 86.2467Z" fill="#080B24"/>
<path d="M171.06 88.8491L157.208 97.138L157.399 97.4568L171.252 89.1679L171.06 88.8491Z" fill="#080B24"/>
<path d="M173.294 92.1952L159.441 100.484L159.633 100.803L173.485 92.5139L173.294 92.1952Z" fill="#080B24"/>
<path d="M176.643 97.0284L162.791 105.317L162.982 105.636L176.835 97.3472L176.643 97.0284Z" fill="#080B24"/>
<path d="M227.429 127.063C227.429 127.063 237.01 122.46 243.829 124.175L227.429 79.9985V75.4622L250.642 130.627C256.445 141.553 263.783 166.457 251.273 168.456C237.08 170.724 211.533 179.23 211.533 179.23L205.855 129.898L227.429 127.063Z" fill="#2F2E41"/>
<path d="M171.509 112.32C171.509 112.32 156.18 93.0404 152.206 99.8448C148.232 106.649 170.054 118.095 170.054 118.095L171.509 112.32Z" fill="#FFB9B9"/>
<path d="M176.618 112.887L170.373 109.484C170.373 109.484 166.399 119.691 166.399 121.392C166.399 123.093 172.644 123.66 172.644 123.66L176.618 112.887Z" fill="#D0CDE1"/>
<path d="M200.462 69.7918C208.614 69.7918 215.223 63.1911 215.223 55.0488C215.223 46.9065 208.614 40.3058 200.462 40.3058C192.31 40.3058 185.702 46.9065 185.702 55.0488C185.702 63.1911 192.31 69.7918 200.462 69.7918Z" fill="#FFB9B9"/>
<path d="M211.817 53.3478C211.817 53.3478 218.062 72.06 222.603 73.1941C227.145 74.3282 205.004 82.8337 205.004 82.8337C205.004 82.8337 198.192 66.9567 194.785 62.9874C191.379 59.0181 211.817 53.3478 211.817 53.3478Z" fill="#FFB9B9"/>
<path opacity="0.1" d="M247.299 162.786C259.536 160.83 252.782 136.957 247.049 125.69C247.569 126.085 248.034 126.547 248.434 127.063C254.111 134.434 265.466 166.188 251.273 168.456C237.08 170.725 211.533 179.23 211.533 179.23L210.76 172.519C218.06 170.178 236.169 164.565 247.299 162.786Z" fill="black"/>
<path d="M266.885 260.316C266.885 260.316 281.078 271.657 279.943 272.791C278.807 273.925 266.885 292.071 256.666 293.772C246.447 295.473 241.906 295.473 241.906 293.772C241.906 292.071 244.744 288.101 249.854 286.4C254.963 284.699 255.531 273.358 254.963 271.09C254.396 268.822 266.885 260.316 266.885 260.316Z" fill="#2F2E41"/>
<path d="M224.306 175.828L233.39 218.356C233.39 218.356 270.859 260.316 269.724 260.883C268.588 261.45 257.234 272.791 254.963 272.791C252.692 272.791 213.52 228.562 213.52 228.562L199.327 191.705L224.306 175.828Z" fill="#2F2E41"/>
<path opacity="0.1" d="M224.306 175.828L233.39 218.356C233.39 218.356 270.859 260.316 269.724 260.883C268.588 261.45 257.234 272.791 254.963 272.791C252.692 272.791 213.52 228.562 213.52 228.562L199.327 191.705L224.306 175.828Z" fill="black"/>
<path d="M233.39 162.219C233.39 162.219 228.848 181.498 216.358 194.54C203.869 207.582 198.191 234.233 198.191 234.233L185.702 287.534C185.702 287.534 163.561 284.699 164.696 279.029L176.618 231.964C176.618 231.964 190.243 166.755 197.624 162.219C205.004 157.683 233.39 162.219 233.39 162.219Z" fill="#2F2E41"/>
<path d="M184.566 282.998C184.566 282.998 187.973 293.772 185.702 294.906C183.431 296.04 143.123 298.308 140.852 290.369C140.852 290.369 139.717 286.4 148.8 286.4C157.884 286.4 167.535 277.895 167.535 277.895L184.566 282.998Z" fill="#2F2E41"/>
<path d="M201.598 80.5657C201.598 80.5657 216.358 65.8227 220.332 66.9568C224.306 68.0908 224.306 73.7612 224.306 73.7612C224.306 73.7612 236.796 75.4623 235.661 116.289C234.525 157.116 245.879 161.652 241.905 163.92C237.931 166.188 192.514 176.395 190.811 166.188C189.108 155.982 189.675 116.856 194.217 104.381C198.759 91.9064 204.436 83.9679 201.598 80.5657Z" fill="#575A89"/>
<path d="M220.332 83.9678C220.332 83.9678 237.364 91.9063 227.712 107.216C218.061 122.526 210.681 138.97 200.462 138.403C190.243 137.836 174.347 128.197 169.805 128.197C165.263 128.197 171.508 111.753 174.915 111.186C178.321 110.619 194.217 120.258 194.217 120.258C194.217 120.258 199.894 81.6997 220.332 83.9678Z" fill="#575A89"/>
<path d="M208.978 56.678C207.719 56.603 206.489 57.028 205.239 57.1938C200.765 57.7871 196.111 54.5446 195.123 50.1464C195.044 49.5606 194.869 48.9919 194.606 48.4626C193.917 47.3399 192.349 47.1258 191.056 47.384C189.764 47.6421 188.538 48.2464 187.222 48.3154C185.189 48.4219 183.238 47.1721 182.155 45.4509C181.072 43.7298 180.765 41.6119 180.911 39.5842L181.886 40.6057C182.281 39.769 182.434 38.8382 182.327 37.919C182.843 37.7817 183.386 37.779 183.904 37.9113C184.421 38.0436 184.896 38.3065 185.283 38.6747C186.143 38.766 185.494 37.0829 186.132 36.5012C186.4 36.2577 186.809 36.3036 187.171 36.3071C188.999 36.3247 190.478 34.9283 191.918 33.8042C194.414 31.8608 197.332 30.5312 200.438 29.9228C202.502 29.5207 204.696 29.4561 206.654 30.2237C208.261 30.8542 209.607 32.0024 210.852 33.198C213.916 36.1412 216.63 39.5994 217.905 43.6503C218.941 46.9684 218.971 50.5187 217.989 53.8534C217.476 55.5851 215.927 61.5161 213.661 61.6542C210.813 61.8278 212.523 56.8893 208.978 56.678Z" fill="#2F2E41"/>
</svg>
