<svg width="360" height="300" viewBox="0 0 360 300" fill="none" xmlns="http://www.w3.org/2000/svg">
<path d="M77.9448 187.476L84.0761 191C84.6965 191.356 85.3872 191.573 86.1001 191.635C86.8129 191.697 87.5307 191.603 88.2034 191.36C88.8762 191.116 89.4876 190.728 89.9952 190.224C90.5027 189.719 90.8942 189.11 91.1422 188.439C91.4091 187.717 91.5027 186.942 91.4155 186.177C91.3282 185.412 91.0626 184.678 90.64 184.034C90.2173 183.39 89.6495 182.855 88.9821 182.47C88.3147 182.086 87.5664 181.864 86.7975 181.822L79.3725 181.413L57.006 174.643L53.4001 161.142L43.9709 166.439L50.4543 181.788L77.9448 187.476Z" fill="#FFB8B8"/>
<path d="M48.7127 117.401C47.2943 119.009 47.5504 120.944 48.5834 122.514C49.6164 124.084 51.3354 125.39 52.8398 126.776C53.8063 127.666 54.7004 128.61 55.1333 129.681C55.3717 130.229 55.4498 130.833 55.3583 131.423C55.2667 132.013 55.0095 132.565 54.6164 133.015C53.6312 134.18 51.7962 134.969 50.0058 135.646C44.8858 137.567 39.6028 139.021 34.2212 139.992C38.7549 134.695 41.0244 128.729 40.6919 122.982C40.6221 121.776 40.443 120.559 40.8642 119.35C41.1534 118.625 41.6108 117.978 42.1986 117.464C42.7865 116.949 43.488 116.582 44.2456 116.391C46.0476 115.874 48.4212 116.386 48.6975 117.567" fill="#2F2E41"/>
<path d="M9.87207 287.4L16.3596 287.682L29.1643 228.535L18.0521 229.013L9.87207 287.4Z" fill="#FFB8B8"/>
<path d="M74.7465 274.708L69.3871 277.528L35.8643 227.792L46.5403 223.09L74.7465 274.708Z" fill="#FFB8B8"/>
<path d="M37.3797 136.019C43.0471 136.019 47.6415 131.425 47.6415 125.758C47.6415 120.09 43.0471 115.496 37.3797 115.496C31.7123 115.496 27.1179 120.09 27.1179 125.758C27.1179 131.425 31.7123 136.019 37.3797 136.019Z" fill="#FFB8B8"/>
<path d="M32.1549 131.138C32.1549 131.138 28.4881 138.754 23.411 138.472C23.411 138.472 13.8209 134.523 10.7182 145.241L7.3335 153.703L52.1812 161.319C52.1812 161.319 49.6427 145.805 43.7194 145.523C43.7194 145.523 36.9499 144.959 37.7961 142.42C38.6423 139.882 41.745 133.959 41.745 133.959L32.1549 131.138Z" fill="#FFB8B8"/>
<path d="M47.104 170.063L40.3346 184.73L45.9135 208.437L73.0847 259.43C73.0847 259.43 60.5712 270.656 57.4519 272.457C54.7462 274.019 32.22 231.68 31.3974 222.953C31.1259 220.073 26.1865 278.412 26.1865 278.412C26.1865 278.412 7.56514 275.339 2.36523 274.318C2.36523 274.318 6.11157 247.783 8.32055 222.953C10.0233 203.814 8.475 186.469 18.0517 178.243L17.2055 161.883L39.7705 161.037L47.104 170.063Z" fill="#2F2E41"/>
<path d="M12.0559 298.279L22.4129 299.783C23.2155 300.082 24.1006 300.072 24.8959 299.754C25.6912 299.436 26.3396 298.834 26.7149 298.064C27.0198 297.438 27.1282 296.735 27.026 296.047C26.9239 295.359 26.6158 294.718 26.1424 294.208L21.7464 289.474L18.5825 282.647C16.6903 280.714 15.3969 281.398 14.6737 284.573L9.61602 282.985L8.2899 291.899C8.09144 293.233 8.35723 294.595 9.0428 295.756C9.72836 296.918 10.7921 297.808 12.0559 298.279Z" fill="#2F2E41"/>
<path d="M71.089 288.951L81.5545 288.915C82.3923 289.092 83.2663 288.952 84.0061 288.52C84.746 288.089 85.2987 287.397 85.5566 286.581C85.7661 285.917 85.77 285.206 85.5676 284.54C85.3653 283.875 84.9663 283.286 84.423 282.851L79.3782 278.815L75.2442 272.528C73.0882 270.895 71.9095 271.761 71.6614 275.009L66.425 274.182V283.194C66.425 284.543 66.8883 285.851 67.7373 286.899C68.5864 287.947 69.7696 288.671 71.089 288.951Z" fill="#2F2E41"/>
<path d="M32.1964 109.983C30.4533 109.222 28.3791 109.52 26.6962 110.407C25.0134 111.294 23.6688 112.708 22.492 114.203C18.44 119.375 16.0772 125.668 15.7242 132.228C15.632 134.021 15.7185 135.917 16.6521 137.451C17.6781 139.136 19.556 140.104 21.4162 140.763C27.6526 142.936 34.4946 142.559 40.455 139.715C37.321 137.174 34.4211 134.357 31.7903 131.298C31.2972 130.724 30.7818 129.988 31.0325 129.275C31.1904 128.928 31.4351 128.627 31.7431 128.403L37.7848 123.156L37.6327 125.278C38.8343 125.208 39.9889 124.787 40.9539 124.068C41.9189 123.349 42.652 122.362 43.0625 121.231C42.7712 121.819 43.3273 122.541 43.9701 122.673C44.6128 122.806 45.2634 122.541 45.8662 122.281C47.328 121.652 48.9159 120.903 49.5644 119.45C49.7686 118.938 49.8662 118.389 49.8515 117.838C49.8368 117.286 49.7099 116.744 49.4788 116.243C49.0097 115.244 48.3404 114.352 47.5124 113.622C45.4804 111.746 43.0081 110.412 40.3242 109.745C37.6403 109.078 34.8315 109.098 32.1575 109.804" fill="#2F2E41"/>
<path d="M30.1462 186.009L34.6519 191.459C35.1078 192.01 35.6786 192.456 36.3243 192.764C36.97 193.072 37.6752 193.236 38.3907 193.244C39.1062 193.251 39.8148 193.103 40.467 192.809C41.1193 192.514 41.6994 192.081 42.1671 191.54C42.6705 190.957 43.03 190.264 43.2167 189.517C43.4034 188.77 43.4121 187.989 43.2422 187.238C43.0722 186.487 42.7283 185.787 42.2381 185.193C41.7479 184.599 41.1252 184.128 40.4199 183.819L33.61 180.832L15.0398 166.646L16.3991 152.738L5.71118 154.39L6.39806 171.039L30.1462 186.009Z" fill="#FFB8B8"/>
<path d="M58.1046 173.729C58.1046 173.729 53.7128 157.644 51.3957 157.648C49.0787 157.652 45.976 157.37 45.976 157.37C45.976 157.37 42.3092 146.652 23.4111 150.036C4.513 153.421 12.6928 146.934 7.3336 149.472C1.97443 152.011 0 169.781 0 169.781C0 169.781 29.0523 160.191 35.2577 165.55C38.8213 168.666 42.6966 171.407 46.8222 173.729C46.8222 173.729 44.0016 180.781 58.1046 173.729Z" fill="#2F2E41"/>
<path d="M158.821 288.069H44.9255V288.813H158.821V288.069Z" fill="#3F3D56"/>
<path d="M246.29 159.657C284.319 159.657 315.148 128.828 315.148 90.7986C315.148 52.7691 284.319 21.9402 246.29 21.9402C208.26 21.9402 177.431 52.7691 177.431 90.7986C177.431 128.828 208.26 159.657 246.29 159.657Z" fill="#E6E6E6"/>
<path d="M233.263 52.4619H119.367V53.2063H233.263V52.4619Z" fill="#3F3D56"/>
<path d="M343.064 72.9326H119.367V73.677H343.064V72.9326Z" fill="#3F3D56"/>
<path d="M274.205 146.258C236.031 146.258 204.975 115.201 204.975 77.0277C204.975 38.8539 236.031 7.79712 274.205 7.79712C312.379 7.79712 343.436 38.8539 343.436 77.0277C343.436 115.201 312.379 146.258 274.205 146.258ZM274.205 8.54153C236.442 8.54153 205.719 39.2643 205.719 77.0277C205.719 114.791 236.442 145.514 274.205 145.514C311.969 145.514 342.691 114.791 342.691 77.0277C342.691 39.2643 311.969 8.54153 274.205 8.54153Z" fill="#3F3D56"/>
<path d="M267.819 18.1789C272.839 18.1789 276.908 14.1094 276.908 9.08947C276.908 4.06949 272.839 0 267.819 0C262.799 0 258.729 4.06949 258.729 9.08947C258.729 14.1094 262.799 18.1789 267.819 18.1789Z" fill="#080B24"/>
<path d="M205.234 78.0368C208.482 78.0368 211.116 75.4036 211.116 72.1553C211.116 68.9071 208.482 66.2739 205.234 66.2739C201.986 66.2739 199.353 68.9071 199.353 72.1553C199.353 75.4036 201.986 78.0368 205.234 78.0368Z" fill="#FF6584"/>
<path d="M345.64 85.684C353.059 85.684 359.072 79.6703 359.072 72.252C359.072 64.8338 353.059 58.8201 345.64 58.8201C338.222 58.8201 332.208 64.8338 332.208 72.252C332.208 79.6703 338.222 85.684 345.64 85.684Z" fill="#080B24"/>
<path d="M156.835 125.251H116.078V125.996H156.835C158.841 125.996 160.766 126.793 162.185 128.212C163.603 129.63 164.401 131.555 164.401 133.561C164.401 135.568 163.603 137.492 162.185 138.911C160.766 140.33 158.841 141.127 156.835 141.127H95.1634C93.1569 141.127 91.2325 140.33 89.8136 138.911C88.3948 137.492 87.5977 135.568 87.5977 133.561C87.5977 131.555 88.3948 129.63 89.8136 128.212C91.2325 126.793 93.1569 125.996 95.1634 125.996H97.4681V125.251H95.1634C92.9594 125.251 90.8457 126.127 89.2873 127.685C87.7288 129.244 86.8533 131.357 86.8533 133.561C86.8533 135.765 87.7288 137.879 89.2873 139.438C90.8457 140.996 92.9594 141.872 95.1634 141.872H156.835C159.039 141.872 161.153 140.996 162.711 139.438C164.269 137.879 165.145 135.765 165.145 133.561C165.145 131.357 164.269 129.244 162.711 127.685C161.153 126.127 159.039 125.251 156.835 125.251Z" fill="#3F3D56"/>
<path d="M156.835 150.933H116.078V151.677H156.835C158.841 151.677 160.766 152.474 162.185 153.893C163.603 155.312 164.401 157.236 164.401 159.243C164.401 161.25 163.603 163.174 162.185 164.593C160.766 166.012 158.841 166.809 156.835 166.809H95.1634C93.1569 166.809 91.2325 166.012 89.8136 164.593C88.3948 163.174 87.5977 161.25 87.5977 159.243C87.5977 157.236 88.3948 155.312 89.8136 153.893C91.2325 152.474 93.1569 151.677 95.1634 151.677H97.4681V150.933H95.1634C92.9594 150.933 90.8457 151.808 89.2873 153.367C87.7288 154.925 86.8533 157.039 86.8533 159.243C86.8533 161.447 87.7288 163.561 89.2873 165.119C90.8457 166.678 92.9594 167.553 95.1634 167.553H156.835C159.039 167.553 161.153 166.678 162.711 165.119C164.269 163.561 165.145 161.447 165.145 159.243C165.145 157.039 164.269 154.925 162.711 153.367C161.153 151.808 159.039 150.933 156.835 150.933Z" fill="#3F3D56"/>
<path d="M156.835 176.616H116.078V177.36H156.835C158.841 177.36 160.766 178.157 162.185 179.576C163.603 180.995 164.401 182.919 164.401 184.926C164.401 186.932 163.603 188.857 162.185 190.276C160.766 191.694 158.841 192.492 156.835 192.492H95.1634C93.1569 192.492 91.2325 191.694 89.8136 190.276C88.3948 188.857 87.5977 186.932 87.5977 184.926C87.5977 182.919 88.3948 180.995 89.8136 179.576C91.2325 178.157 93.1569 177.36 95.1634 177.36H97.4681V176.616H95.1634C92.9594 176.616 90.8457 177.491 89.2873 179.05C87.7288 180.608 86.8533 182.722 86.8533 184.926C86.8533 187.13 87.7288 189.244 89.2873 190.802C90.8457 192.36 92.9594 193.236 95.1634 193.236H156.835C159.039 193.236 161.153 192.36 162.711 190.802C164.269 189.244 165.145 187.13 165.145 184.926C165.145 182.722 164.269 180.608 162.711 179.05C161.153 177.491 159.039 176.616 156.835 176.616Z" fill="#3F3D56"/>
<path d="M102.068 123.284C101.487 123.294 100.934 123.531 100.527 123.945C100.12 124.359 99.8914 124.916 99.8914 125.497C99.8914 126.078 100.12 126.635 100.527 127.049C100.934 127.463 101.487 127.701 102.068 127.71H111.777C112.363 127.718 112.928 127.493 113.348 127.085C113.769 126.677 114.01 126.119 114.02 125.533C114.029 124.948 113.806 124.382 113.4 123.96C112.993 123.539 112.436 123.295 111.85 123.284C111.826 123.284 111.801 123.284 111.777 123.284H102.068Z" fill="#080B24"/>
<path d="M102.068 149.339C101.487 149.348 100.934 149.586 100.527 150C100.12 150.414 99.8914 150.971 99.8914 151.552C99.8914 152.132 100.12 152.69 100.527 153.104C100.934 153.518 101.487 153.755 102.068 153.765H111.777C112.363 153.773 112.928 153.548 113.348 153.14C113.769 152.732 114.01 152.174 114.02 151.588C114.029 151.002 113.806 150.437 113.4 150.015C112.993 149.593 112.436 149.35 111.85 149.339C111.826 149.338 111.801 149.338 111.777 149.339H102.068Z" fill="#FF6584"/>
<path d="M102.068 174.649C101.488 174.659 100.934 174.896 100.527 175.31C100.12 175.724 99.8914 176.281 99.8914 176.862C99.8914 177.443 100.12 178 100.527 178.414C100.934 178.828 101.488 179.066 102.068 179.075H111.778C112.364 179.084 112.93 178.86 113.352 178.452C113.773 178.044 114.015 177.485 114.025 176.898C114.034 176.312 113.811 175.746 113.403 175.324C112.995 174.902 112.437 174.659 111.85 174.649C111.826 174.649 111.802 174.649 111.778 174.649H102.068Z" fill="#3F3D56"/>
<path d="M98.217 131.348C97.6364 131.357 97.0828 131.595 96.6756 132.009C96.2685 132.423 96.0403 132.98 96.0403 133.561C96.0403 134.142 96.2685 134.699 96.6756 135.113C97.0828 135.527 97.6364 135.764 98.217 135.774H153.708C153.999 135.78 154.288 135.728 154.559 135.621C154.83 135.515 155.077 135.356 155.287 135.154C155.496 134.951 155.664 134.71 155.78 134.443C155.896 134.176 155.958 133.888 155.963 133.597C155.968 133.306 155.915 133.017 155.808 132.746C155.701 132.476 155.541 132.229 155.338 132.02C155.136 131.811 154.894 131.644 154.626 131.529C154.359 131.413 154.072 131.352 153.78 131.348C153.756 131.347 153.732 131.347 153.708 131.348H98.217Z" fill="#E6E6E6"/>
<path d="M98.217 157.03C97.6364 157.04 97.0828 157.277 96.6756 157.691C96.2685 158.105 96.0403 158.663 96.0403 159.243C96.0403 159.824 96.2685 160.381 96.6756 160.795C97.0828 161.209 97.6364 161.447 98.217 161.456H153.708C153.999 161.462 154.288 161.41 154.559 161.303C154.83 161.197 155.077 161.038 155.287 160.836C155.496 160.634 155.664 160.392 155.78 160.125C155.896 159.858 155.958 159.571 155.963 159.28C155.968 158.989 155.915 158.699 155.808 158.429C155.701 158.158 155.541 157.911 155.338 157.702C155.136 157.493 154.894 157.326 154.626 157.211C154.359 157.096 154.072 157.034 153.78 157.03C153.756 157.03 153.732 157.03 153.708 157.03H98.217Z" fill="#E6E6E6"/>
<path d="M98.217 182.712C97.6364 182.722 97.0828 182.959 96.6756 183.373C96.2685 183.787 96.0403 184.345 96.0403 184.925C96.0403 185.506 96.2685 186.063 96.6756 186.477C97.0828 186.891 97.6364 187.129 98.217 187.139H153.708C153.999 187.144 154.288 187.092 154.559 186.986C154.83 186.879 155.077 186.72 155.287 186.518C155.496 186.316 155.664 186.074 155.78 185.807C155.896 185.54 155.958 185.253 155.963 184.962C155.968 184.671 155.915 184.382 155.808 184.111C155.701 183.84 155.541 183.593 155.338 183.384C155.136 183.175 154.894 183.008 154.626 182.893C154.359 182.778 154.072 182.716 153.78 182.712C153.756 182.712 153.732 182.712 153.708 182.712H98.217Z" fill="#E6E6E6"/>
<path d="M154.596 265.851C154.017 262.121 152.889 258.498 151.247 255.099L151.007 254.604L149.23 256.575L150.547 253.639L150.461 253.469C149.298 251.168 148.01 248.932 146.602 246.773L146.341 246.373L145.992 246.759L146.236 246.216L146.114 246.032C144.37 243.416 143.03 241.762 143.017 241.745L142.638 241.279L142.394 241.835C142.349 241.937 137.92 252.142 137.334 262.227L137.324 262.384L140.305 265.987L137.265 264.078L137.271 264.771C137.28 265.956 137.361 267.14 137.512 268.315C137.646 269.327 137.804 270.314 137.985 271.277C138.272 271.286 138.552 271.373 138.793 271.529C138.583 270.453 138.402 269.347 138.25 268.21C138.132 267.303 138.059 266.382 138.029 265.463L143.909 269.155L138.086 262.117C138.616 253.591 141.907 245 142.83 242.733C143.326 243.376 144.262 244.624 145.38 246.292L143.346 250.826L146.246 247.611C147.503 249.568 148.661 251.587 149.716 253.66L146.584 260.642L150.818 255.946C152.297 259.127 153.321 262.5 153.86 265.966C154.601 271.564 154.456 276.942 153.452 281.11C152.491 285.101 150.796 287.555 148.802 287.842C148.392 287.898 147.975 287.874 147.574 287.769C147.253 287.997 146.866 288.115 146.472 288.105H146.363C146.982 288.448 147.675 288.635 148.382 288.647C148.557 288.647 148.731 288.635 148.904 288.61C151.248 288.273 153.12 285.676 154.174 281.299C155.201 277.037 155.351 271.554 154.596 265.851Z" fill="#3F3D56"/>
<path d="M148.036 288.352C144.97 288.352 140.55 286.666 136.166 283.596C135.52 283.14 134.904 282.645 134.321 282.112L133.83 281.664L135.686 281.129L133.214 281.038L133.11 280.929C128.476 276.076 125.592 269.221 125.563 269.152L125.338 268.611L125.924 268.637C125.982 268.64 127.375 268.705 129.469 269.002L129.599 269.021V269.02L130.058 269.09C131.768 269.35 133.462 269.705 135.131 270.156L135.31 270.204L135.867 271.576L135.782 270.346L136.293 270.493C138.716 271.192 141.016 272.259 143.115 273.656C149.783 278.325 153.472 284.16 151.522 286.945C150.855 287.897 149.628 288.352 148.036 288.352ZM135.328 282.007C135.735 282.352 136.159 282.68 136.594 282.986C142.7 287.263 149.257 288.88 150.912 286.518C152.566 284.156 148.803 278.548 142.695 274.271C140.811 273.017 138.758 272.038 136.598 271.362L136.928 276.17L134.759 270.827C133.331 270.448 131.869 270.136 130.406 269.898L130.645 273.387L129.152 269.71C127.996 269.551 127.063 269.465 126.496 269.421C127.269 271.119 129.825 276.363 133.544 280.306L140.367 280.555L135.328 282.007Z" fill="#3F3D56"/>
</svg>
