<svg width="396" height="300" viewBox="0 0 396 300" fill="none" xmlns="http://www.w3.org/2000/svg">
<path opacity="0.1" d="M390.265 86.5371C390.196 86.8593 390.131 87.1816 390.055 87.5002C387.68 98.4527 383.799 109.007 378.027 118.699C377.836 119.022 377.644 119.344 377.448 119.666C373.643 125.902 369.089 131.65 363.889 136.781C361.014 139.619 357.879 142.317 354.149 144.261C348.925 146.991 342.817 148.099 336.814 149.004C330.579 149.949 324.257 150.739 317.954 151.589C315.714 151.886 313.487 152.201 311.274 152.534C305.184 153.436 299.137 154.479 293.236 155.862C285.94 157.567 278.869 159.801 272.189 162.944C271.655 163.185 271.128 163.441 270.607 163.711C270.085 163.972 269.56 164.236 269.046 164.504C268.532 164.772 268.025 165.04 267.522 165.315C267.261 165.456 267.001 165.598 266.743 165.746C266.486 165.895 266.233 166.025 265.983 166.17C265.23 166.59 264.491 167.021 263.753 167.455L263.724 167.473C263.235 167.759 262.754 168.053 262.276 168.346C259.546 170.004 256.874 171.735 254.202 173.476L252.522 174.562L249.918 176.246C249.411 176.576 248.894 176.905 248.383 177.231C248.021 177.47 247.659 177.709 247.264 177.955C245.367 179.15 243.445 180.323 241.471 181.442C241.004 181.71 240.534 181.978 240.059 182.238C236.073 184.462 231.903 186.342 227.597 187.857L227.539 187.879C225.373 188.635 223.163 189.259 220.921 189.747C219.628 190.03 218.332 190.262 217.021 190.439C213.518 190.936 209.965 190.986 206.449 190.587C199.544 189.787 193.074 187.137 186.173 186.243C171.966 184.432 158.168 190.265 144.808 194.834C141.522 195.957 138.213 197.008 134.88 197.988C132.664 198.643 130.441 199.263 128.2 199.86C114.469 203.488 100.455 205.945 86.3089 207.206C80.3955 207.786 74.4467 207.918 68.5134 207.601C66.2578 207.463 64.0274 207.239 61.837 206.877C54.3422 205.718 47.3544 203.289 41.7134 198.839C37.0935 195.186 33.7879 190.425 31.2715 185.443C28.6956 180.359 26.8769 174.926 25.8731 169.316C25.7356 168.552 25.6125 167.785 25.5111 167.017C25.33 165.704 25.1949 164.384 25.1056 163.056C24.6184 155.98 25.4634 148.875 27.5966 142.111C29.9862 134.536 33.9689 127.266 35.7213 119.633C35.7937 119.31 35.8625 118.988 35.9277 118.667C36.167 117.508 36.3447 116.336 36.4599 115.158C37.3542 105.781 33.9254 96.6387 31.2353 87.4676C31.1412 87.149 31.047 86.8267 30.9565 86.5045C30.6669 85.4859 30.3893 84.4685 30.1238 83.4523C27.6328 73.7562 26.9412 63.3758 29.1607 53.6978C29.2295 53.3755 29.3128 53.0533 29.3924 52.7347C30.8783 46.6171 33.6724 40.8942 37.5823 35.9602C41.7388 30.7464 47.1951 26.4053 53.0243 22.5927C55.8653 20.7341 58.8029 18.9974 61.837 17.3826C64.0093 16.224 66.2348 15.1269 68.5134 14.0914C86.7795 5.76393 107.616 1.69793 128.221 2.59585C129.308 2.64292 130.394 2.70085 131.48 2.78051C132.566 2.86016 133.754 2.9543 134.891 3.0593C148.164 4.34825 161.079 7.45839 173.903 10.8582C178.201 11.9987 182.491 13.1682 186.778 14.3159C188.686 14.8228 190.591 15.3297 192.499 15.8221C201.844 18.2371 211.326 20.424 220.928 22.0569C223.151 22.4407 225.376 22.7907 227.604 23.1069C235.34 24.2437 243.138 24.9051 250.954 25.0874C253.993 25.1477 257.033 25.1211 260.074 25.0077C261.609 24.9522 263.146 24.8689 264.683 24.7579C280.56 23.6391 295.904 19.8953 311.274 16.3978C313.497 15.8909 315.724 15.3912 317.954 14.8988C320.879 14.2544 323.805 13.6316 326.745 13.0559C345.04 9.46061 361.347 11.528 378.357 18.9467C382.224 20.6303 386.087 22.6651 388.455 25.826C390.823 28.9868 391.417 32.8681 391.858 36.6155C392.485 41.9524 392.894 47.358 393.049 52.7926C393.049 53.1112 393.049 53.4334 393.071 53.7557C393.317 64.7335 392.499 75.8163 390.265 86.5371Z" fill="#080B24"/>
<path opacity="0.1" d="M268.909 118.699H267.714V119.127V119.666H269.068L268.909 118.699ZM255.357 118.699C255.355 118.708 255.355 118.716 255.357 118.725C255.324 118.989 255.288 119.253 255.252 119.521V119.594V119.666H265.607V119.608L266.331 118.699H255.357ZM227.604 118.699V87.5002H239.516C239.39 87.4169 239.259 87.33 239.125 87.2503L238.951 87.1381L238.727 87.0005C238.597 86.9245 238.466 86.8484 238.329 86.776C238.191 86.7036 238.108 86.6529 237.992 86.5914L237.912 86.5479H237.894H227.604V84.8281L227.326 84.9367L227.032 85.0743H227.011L226.949 85.1069L226.764 85.2047L226.58 85.3024C226.399 85.4002 226.218 85.5088 226.037 85.621L225.863 85.7369L225.501 85.9686C225.034 86.28 224.574 86.6059 224.1 86.91C223.98 86.986 223.861 87.0621 223.738 87.1309C223.48 87.2829 223.216 87.4277 222.945 87.5581C222.829 87.616 222.716 87.6667 222.583 87.7138L222.387 87.7898L222.206 87.8514C221.781 87.9992 221.345 88.113 220.903 88.1917V118.692H203.042C203.042 118.728 203.067 118.757 203.078 118.793C203.176 119.083 203.274 119.369 203.368 119.659H220.928V153.099C221.02 153.099 221.11 153.099 221.199 153.099L221.514 153.117L222.083 153.15L222.992 153.258L223.408 153.298L223.861 153.345H223.929L224.73 153.443L224.9 153.465L225.287 153.519L225.841 153.599L227.17 153.541L227.351 153.573C227.423 153.573 227.499 153.595 227.575 153.61V119.666H255.215V119.594V119.521C255.252 119.253 255.288 118.989 255.32 118.725C255.319 118.716 255.319 118.708 255.32 118.699H227.604ZM268.909 118.699H267.714V119.127V119.666H269.068L268.909 118.699ZM254.611 118.699C254.567 119.022 254.527 119.344 254.484 119.666H266.03L266.816 118.699H254.611ZM227.604 118.699V87.5002H239.516C239.39 87.4169 239.259 87.33 239.125 87.2503L238.951 87.1381L238.727 87.0005C238.597 86.9245 238.466 86.8484 238.329 86.776C238.191 86.7036 238.108 86.6529 237.992 86.5914L237.912 86.5479H237.887H227.604V84.8281L227.326 84.9367L227.032 85.0743H227.011L226.949 85.1069L226.764 85.2047L226.58 85.3024C226.399 85.4002 226.218 85.5088 226.037 85.621L225.863 85.7369L225.501 85.9686C225.034 86.28 224.574 86.6059 224.1 86.91C223.98 86.986 223.861 87.0621 223.738 87.1309C223.48 87.2829 223.216 87.4277 222.945 87.5581C222.829 87.616 222.716 87.6667 222.583 87.7138L222.387 87.7898L222.206 87.8514C221.781 87.9992 221.345 88.113 220.903 88.1917V118.692H203.042C203.042 118.728 203.067 118.757 203.078 118.793C203.176 119.08 203.277 119.369 203.371 119.659H220.928V153.096H221.199L221.514 153.114L222.083 153.146L222.992 153.258L223.408 153.298L223.861 153.345H223.929L224.73 153.443L224.9 153.465L225.287 153.519L225.841 153.599L227.17 153.541L227.351 153.573C227.423 153.573 227.499 153.595 227.575 153.61V119.666H254.491C254.535 119.344 254.574 119.022 254.618 118.699H227.604ZM317.954 53.7303H393.071C393.071 53.4081 393.071 53.0858 393.049 52.7672H317.954V14.888C315.724 15.3707 313.497 15.8704 311.274 16.3869V52.7672H229.578L229.371 52.5826L229.683 52.3074L260.071 25.0004C257.029 25.1163 253.989 25.1429 250.95 25.0801L227.601 46.0582V23.1068C225.37 22.7906 223.145 22.4406 220.924 22.0568V45.0009L186.785 14.3159C182.498 13.1681 178.208 11.9987 173.91 10.8582L220.338 52.5826L220.131 52.7672H134.901V3.09186C133.765 2.98566 132.628 2.89273 131.491 2.81307C130.405 2.73342 129.318 2.67549 128.232 2.62842V52.7672H68.5134V14.124C66.2589 15.1571 64.0335 16.2541 61.8369 17.4152V52.7672H29.3924C29.3127 53.0858 29.2294 53.4081 29.1606 53.7303H61.8369V86.5371H30.9565C31.047 86.8593 31.1411 87.1815 31.2353 87.5002H61.8369V118.699H35.9276C35.8625 119.02 35.7937 119.343 35.7212 119.666H61.8369V206.898C64.0093 207.235 66.2577 207.471 68.5134 207.623V119.666H128.221V199.874C130.463 199.277 132.686 198.658 134.901 198.003V119.666H220.928V189.744C223.17 189.255 225.38 188.631 227.546 187.876L227.604 187.854V119.666H311.274V152.534C313.494 152.208 315.721 151.896 317.954 151.597V119.666H377.448C377.644 119.344 377.836 119.022 378.027 118.699H317.954V87.5002H390.055C390.131 87.1815 390.196 86.8593 390.265 86.5371H317.954V53.7303ZM68.5134 53.7303H128.221V86.5371H68.5134V53.7303ZM68.5134 118.699V87.5002H128.221V118.699H68.5134ZM134.901 53.7303H220.928V86.5371H134.901V53.7303ZM134.901 118.699V87.5002H220.928V118.699H134.901ZM311.274 118.699H227.604V87.5002H311.274V118.699ZM311.274 86.5371H227.604V54.6101L228.777 53.7303H311.274V86.5371ZM255.357 118.699C255.355 118.708 255.355 118.716 255.357 118.725C255.324 118.989 255.288 119.253 255.252 119.521V119.594V119.666H265.607V119.608L266.331 118.699H255.357ZM268.909 118.699H267.714V119.127V119.666H269.068L268.909 118.699ZM227.604 118.699V87.5002H239.516C239.39 87.4169 239.259 87.33 239.125 87.2503L238.951 87.1381L238.727 87.0005C238.597 86.9245 238.466 86.8484 238.329 86.776C238.191 86.7036 238.108 86.6529 237.992 86.5914L237.912 86.5479H237.894H227.604V84.8281L227.326 84.9367L227.032 85.0743H227.011L226.949 85.1069L226.764 85.2047L226.58 85.3024C226.399 85.4002 226.218 85.5088 226.037 85.621L225.863 85.7369L225.501 85.9686C225.034 86.28 224.574 86.6059 224.1 86.91C223.98 86.986 223.861 87.0621 223.738 87.1309C223.48 87.2829 223.216 87.4277 222.945 87.5581C222.829 87.616 222.716 87.6667 222.583 87.7138L222.387 87.7898L222.206 87.8514C221.781 87.9992 221.345 88.113 220.903 88.1917V118.692H203.042C203.042 118.728 203.067 118.757 203.078 118.793C203.176 119.083 203.274 119.369 203.368 119.659H220.928V153.099C221.02 153.099 221.11 153.099 221.199 153.099L221.514 153.117L222.083 153.15L222.992 153.258L223.408 153.298L223.861 153.345H223.929L224.73 153.443L224.9 153.465L225.287 153.519L225.841 153.599L227.17 153.541L227.351 153.573C227.423 153.573 227.499 153.595 227.575 153.61V119.666H255.215V119.594V119.521C255.252 119.253 255.288 118.989 255.32 118.725C255.319 118.716 255.319 118.708 255.32 118.699H227.604Z" fill="#080B24"/>
<path opacity="0.1" d="M97.2218 31.1448H97.7395C97.5689 31.0726 97.4204 30.9566 97.3091 30.8084C97.1978 30.6602 97.1277 30.4852 97.1059 30.3012C97.1059 29.635 98.1016 29.0919 99.3181 29.0919H114.8C116.017 29.0919 117.009 29.635 117.009 30.3012C117.009 30.9638 116.017 31.5105 114.8 31.5105H114.282C114.453 31.5815 114.602 31.6967 114.713 31.8444C114.825 31.9921 114.895 32.1668 114.916 32.3505C114.916 32.9189 114.192 33.3969 113.225 33.5236H117.682C118.895 33.5236 119.891 34.0667 119.891 34.7329C119.891 35.3991 118.895 35.9422 117.682 35.9422H102.197C100.984 35.9422 99.9879 35.3955 99.9879 34.7329C99.9879 34.1645 100.712 33.6901 101.679 33.5598H97.2218C96.0052 33.5598 95.0132 33.0167 95.0132 32.3505C95.0132 31.6843 96.0052 31.1448 97.2218 31.1448Z" fill="#080B24"/>
<path opacity="0.1" d="M265.016 42.6476H265.534C265.364 42.5749 265.216 42.4586 265.106 42.3105C264.995 42.1624 264.925 41.9877 264.904 41.804C264.904 41.1378 265.896 40.5947 267.113 40.5947H282.594C283.811 40.5947 284.807 41.1378 284.807 41.804C284.807 42.4666 283.811 43.0097 282.594 43.0097H282.08C282.25 43.0824 282.398 43.1987 282.509 43.3468C282.619 43.495 282.689 43.6697 282.71 43.8533C282.71 44.4218 281.986 44.8997 281.019 45.0264H285.476C286.693 45.0264 287.685 45.5695 287.685 46.2357C287.685 46.9019 286.693 47.445 285.476 47.445H269.995C268.778 47.445 267.782 46.8983 267.782 46.2357C267.782 45.6673 268.507 45.1893 269.473 45.0626H265.016C263.803 45.0626 262.808 44.5195 262.808 43.8533C262.808 43.1871 263.803 42.6476 265.016 42.6476Z" fill="#080B24"/>
<path opacity="0.1" d="M73.4588 91.8741H73.9729C73.8027 91.8017 73.6548 91.6855 73.5441 91.5373C73.4334 91.3891 73.364 91.2142 73.3429 91.0305C73.3429 90.3679 74.3386 89.8212 75.5515 89.8212H91.037C92.2499 89.8212 93.2456 90.3679 93.2456 91.0305C93.2456 91.6967 92.2499 92.2398 91.037 92.2398H90.5192C90.6896 92.3109 90.8378 92.4263 90.9486 92.574C91.0594 92.7217 91.1286 92.8963 91.1492 93.0797C91.1492 93.6482 90.4251 94.1261 89.4584 94.2528H93.9154C95.1319 94.2528 96.1276 94.7996 96.1276 95.4621C96.1276 96.1247 95.1319 96.6714 93.9154 96.6714H78.448C77.2315 96.6714 76.2394 96.1283 76.2394 95.4621C76.2394 94.8973 76.9636 94.4194 77.9303 94.289H73.4588C72.2423 94.289 71.2466 93.7459 71.2466 93.0797C71.2466 92.4135 72.2567 91.8741 73.4588 91.8741Z" fill="#080B24"/>
<path opacity="0.1" d="M364.976 220.898C367.577 208.171 335.734 190.916 293.854 182.357C251.974 173.798 215.914 177.177 213.314 189.904C210.713 202.63 242.555 219.885 284.436 228.444C326.316 237.003 362.375 233.624 364.976 220.898Z" fill="#080B24"/>
<path d="M280.4 139.352C280.4 139.352 284.517 119.145 300.234 121.017C300.234 121.017 311.096 121.763 313.33 128.874V144.591L280.4 139.352Z" fill="#3A3768"/>
<path d="M366.474 146.839L226.511 135.235L208.549 138.979L209.671 164.052L210.895 164.2L212.289 201.852L349.631 226.548L364.229 214.198V173.382L366.097 172.285L366.474 146.839Z" fill="#D48A9B"/>
<path opacity="0.05" d="M366.662 146.839L366.286 172.285L351.13 179.396L350.941 152.824L366.662 146.839Z" fill="black"/>
<path opacity="0.05" d="M364.229 173.408L364.414 213.452L349.819 225.802L350.757 179.396L364.229 173.408Z" fill="black"/>
<path opacity="0.05" d="M211.084 165.699L350.869 182.756L350.942 179.519L210.979 164.425L211.084 165.699Z" fill="black"/>
<path opacity="0.05" d="M364.229 174.878V173.408L350.38 179.519V182.763L364.229 174.878Z" fill="black"/>
<path d="M208.36 138.979L226.322 135.235L366.285 146.839L350.568 152.824L208.36 138.979Z" fill="#EFC6CD"/>
<path opacity="0.1" d="M351.376 147.56L358.244 148.009L346.861 151.416L341.064 150.999L351.376 147.56Z" fill="black"/>
<path d="M351.376 147.259L358.244 147.708L346.861 151.119L341.064 150.699L351.376 147.259Z" fill="white"/>
<path d="M350.554 148.03C350.826 147.915 351.112 148.135 351.401 148.19C351.568 148.222 351.738 148.19 351.905 148.222C352.241 148.266 352.575 148.49 352.897 148.378" fill="#D3DAE1"/>
<path d="M350.199 148.237C350.467 148.121 350.757 148.338 351.046 148.396C351.213 148.425 351.383 148.396 351.55 148.425C351.886 148.472 352.219 148.697 352.542 148.584" fill="#D3DAE1"/>
<path d="M349.381 148.649C349.652 148.534 349.942 148.751 350.232 148.805C350.395 148.838 350.568 148.805 350.731 148.838C351.072 148.885 351.405 149.109 351.723 148.993" fill="#D3DAE1"/>
<path opacity="0.1" d="M321.687 144.178L328.555 144.631L317.172 148.038L311.375 147.618L321.687 144.178Z" fill="black"/>
<path d="M321.687 143.881L328.555 144.33L317.172 147.737L311.375 147.321L321.687 143.881Z" fill="white"/>
<path d="M320.865 144.652C321.136 144.537 321.422 144.754 321.712 144.812C321.879 144.841 322.049 144.812 322.215 144.841C322.552 144.888 322.885 145.112 323.207 145" fill="#D3DAE1"/>
<path d="M320.51 144.859C320.778 144.743 321.067 144.96 321.357 145.015C321.524 145.047 321.694 145.015 321.86 145.047C322.197 145.094 322.53 145.319 322.852 145.203" fill="#D3DAE1"/>
<path d="M319.692 145.268C319.963 145.152 320.253 145.373 320.543 145.427C320.706 145.46 320.879 145.427 321.042 145.46C321.383 145.503 321.716 145.731 322.034 145.615" fill="#D3DAE1"/>
<path opacity="0.1" d="M335.927 145.869L342.799 146.318L331.415 149.729L325.615 149.309L335.927 145.869Z" fill="black"/>
<path d="M335.927 145.572L342.799 146.021L331.415 149.428L325.615 149.008L335.927 145.572Z" fill="white"/>
<path d="M335.104 146.343C335.376 146.227 335.666 146.444 335.955 146.499C336.118 146.531 336.288 146.499 336.455 146.531C336.792 146.575 337.128 146.803 337.447 146.687" fill="#D3DAE1"/>
<path d="M334.75 146.546C335.021 146.43 335.311 146.651 335.6 146.705C335.763 146.738 335.933 146.705 336.1 146.738C336.437 146.781 336.773 147.009 337.092 146.894" fill="#D3DAE1"/>
<path d="M333.936 146.959C334.203 146.843 334.493 147.06 334.783 147.118C334.949 147.147 335.12 147.118 335.286 147.147C335.623 147.194 335.956 147.418 336.278 147.306" fill="#D3DAE1"/>
<path opacity="0.1" d="M180.424 286.531C220.912 286.531 253.734 279.775 253.734 271.44C253.734 263.106 220.912 256.35 180.424 256.35C139.935 256.35 107.113 263.106 107.113 271.44C107.113 279.775 139.935 286.531 180.424 286.531Z" fill="#080B24"/>
<path d="M260.704 147.86C259.922 140.988 256.826 134.431 256.826 134.431L257.062 132.114C257.062 132.114 257.112 130.956 257.036 129.218C257.045 128.133 257.187 127.053 257.46 126.002C258.094 123.993 256.667 121.524 256.508 121.296C256.349 121.067 256.587 116.661 255.161 114.5C253.734 112.338 244.234 108.319 244.234 108.319C244.234 108.319 243.723 107.251 243.003 106.002L243.068 105.875C242.479 104.806 241.748 103.821 240.896 102.946C240.313 102.323 239.752 101.969 239.299 102.142C239.115 101.541 238.974 100.928 238.879 100.307C238.973 100.332 239.071 100.357 239.165 100.375C239.557 100.466 239.964 100.476 240.36 100.404C241.243 100.205 241.83 99.4124 242.322 98.6665C244.777 94.9372 246.891 90.8459 247.322 86.4323C247.438 85.5315 247.395 84.6173 247.196 83.7313C246.992 83.0425 246.708 82.3801 246.348 81.7581C245.714 80.4817 244.91 79.2967 243.959 78.2352C242.268 76.4538 239.936 75.364 237.539 74.7195C234.839 73.9934 232.026 73.7833 229.248 74.1004C228.524 74.1836 227.8 74.3031 227.076 74.3502C226.157 74.3907 225.237 74.3749 224.32 74.3031L219.581 74.028L219.559 73.9555L218.77 73.9085C218.459 74.5276 218.77 75.2626 219.157 75.8419C219.545 76.4212 219.99 77.0259 219.957 77.7102C219.925 78.3945 219.429 78.9448 219.041 79.5205C218.654 80.0962 218.361 80.8493 218.748 81.4141C218.803 81.4922 218.867 81.5628 218.94 81.6241C219.349 82.0477 220.062 82.0948 220.682 82.0875H220.79C219.231 84.1411 218.388 86.6491 218.39 89.2275C218.4 91.4309 219.017 93.5889 220.172 95.4651C221.327 97.3414 222.977 98.8636 224.939 99.8649C225.008 100.1 225.077 100.343 225.142 100.589C225.86 103.132 226.117 105.783 225.903 108.417L225.819 108.598L225.769 108.406C225.769 108.406 220.186 112.193 218.527 113.196C216.869 114.199 215.204 117.599 215.124 118.526C215.044 119.453 212.43 133.432 212.43 133.432C211.899 134.84 211.461 136.282 211.119 137.748L207.785 140.677C207.785 140.677 200.906 141.296 198.914 140.833L198.972 141.216C197.216 140.816 195.428 140.573 193.628 140.492C192.645 140.366 191.647 140.5 190.732 140.88L190.663 140.912L190.609 140.938C189.56 141.081 188.537 141.368 187.567 141.792C187.451 141.839 187.346 141.886 187.245 141.933L187.267 141.459L179.823 141.075L176.021 140.304C176.021 140.304 174.674 139.218 173.881 139.377C173.088 139.536 171.426 138.45 171.426 138.45C171.047 138.153 170.637 137.898 170.203 137.69C170.076 136.814 169.996 136.281 169.996 136.281C169.996 136.281 167.038 124.543 164.822 117.642C163.338 113.033 161.202 110.763 159.942 109.775C159.381 108.797 159.011 108.167 159.011 108.167C158.769 107.32 157.436 105.412 157.096 105.365C157.042 105.278 157.002 105.234 156.98 105.234C156.907 105.227 156.834 105.238 156.766 105.267C156.144 102.168 155.782 98.2827 156.734 94.8974C158.037 93.8261 159.088 92.4799 159.81 90.9551C160.533 89.4304 160.909 87.7647 160.912 86.0775C160.912 86.0268 160.912 85.9761 160.912 85.9254C160.912 85.8747 160.912 85.8204 160.912 85.7697C160.911 83.079 159.958 80.4753 158.222 78.4198L158.099 78.2822C158.132 78.2589 158.163 78.2335 158.193 78.2062C158.465 77.9855 158.672 77.6954 158.793 77.3664C158.913 77.0375 158.942 76.6821 158.877 76.3379C158.714 75.6428 158.171 75.0961 157.892 74.4371C157.725 73.9298 157.591 73.4122 157.491 72.8875C157.277 72.1422 156.886 71.46 156.35 70.8997L156.404 71.0445C154.985 69.4478 152.545 68.6549 150.347 69.0097C148.714 69.2704 147.193 70.0308 145.553 70.2661C144.377 70.4327 143.178 70.324 141.994 70.4435C140.896 70.5565 139.826 70.8655 138.837 71.3559C138.579 71.4659 138.349 71.6345 138.167 71.8483C137.999 72.1349 137.886 72.4505 137.834 72.7788C137.432 74.2452 136.158 75.2916 135.234 76.5153C134.18 77.9135 133.569 79.5962 133.482 81.3453C133.446 81.7898 133.489 82.2373 133.609 82.6668C133.688 82.9239 133.812 83.1665 133.869 83.4272C134.051 84.2237 133.634 85.0166 133.431 85.806C133.176 86.8128 133.267 87.8764 133.688 88.8256C135.119 92.0262 139.815 93.0943 140.792 96.4543C141.54 96.7981 142.33 97.0416 143.142 97.1784C143.207 97.5115 143.265 97.8482 143.312 98.1886C143.29 98.1979 143.269 98.2101 143.251 98.2248C141.983 99.4594 141.668 101.845 141.668 101.845L141.516 101.969C140.999 102.396 139.228 103.83 137.628 104.934C135.727 106.248 132.559 110.651 130.343 111.965C128.127 113.279 126.302 121.379 126.78 124.322C127.258 127.266 129.235 135.521 128.442 138.534C127.649 141.546 129.63 155.294 129.63 155.294C130.959 155.547 132.259 155.932 133.511 156.445L133.471 157.046L133.352 158.856C133.352 158.856 129.764 171.833 131.136 181.822C132.508 191.811 130.502 192.84 130.502 192.84C130.502 192.84 130.922 197.268 129.869 198.814C128.815 200.36 128.601 203.756 128.601 203.756C128.601 203.756 128.496 211.377 128.706 213.532C128.916 215.686 129.021 219.611 128.283 220.538C127.544 221.465 126.172 227.536 126.277 229.39C126.382 231.244 123.638 235.469 125.115 240.926C126.592 246.382 120.77 246.487 120.77 246.487C120.77 246.487 121.512 254.814 123.094 257.197L123.326 257.537C123.286 257.675 123.247 257.82 123.203 257.975C122.606 260.148 121.787 263.576 122.356 264.406C123.199 265.644 123.623 265.434 123.623 265.434L123.938 270.995C123.938 270.995 130.274 276.35 135.133 276.147C139.992 275.945 139.04 270.995 139.04 270.995L134.901 260.264L134.76 259.901L139.358 251.212C139.358 251.212 140.626 247.403 140.941 246.063C141.256 244.724 142.975 239.977 142.975 239.977C142.975 239.977 147.32 229.68 147.411 228.442C147.501 227.203 147.834 220.516 148.678 219.173C149.522 217.829 151.846 210.121 151.846 210.121L151.904 210.172C152.298 210.559 152.58 211.046 152.719 211.581C152.858 212.116 152.849 212.679 152.693 213.21C152.161 215.165 152.48 219.18 152.48 219.18C152.48 219.18 152.27 222.58 151.846 224.332C151.422 226.085 151.321 240.397 152.06 243.793C152.65 246.512 152.632 251.603 152.603 253.529C152.107 255.575 151.672 258.116 152.48 258.417C153.855 258.935 160.825 258.83 160.825 258.83C160.825 258.83 163.78 257.798 167.795 261.404C171.81 265.01 184.16 260.376 184.16 260.376C184.16 260.376 187.962 259.344 180.464 256.36C175.232 254.279 171.854 252.892 169.645 251.407C169.696 251.31 169.75 251.212 169.797 251.107C169.797 251.107 166.734 248.21 169.268 243.076C171.803 237.942 171.698 233.601 171.698 233.601L172.122 216.298L170.854 193.328L169.873 169.222L170.047 169.164C170.213 173.596 171.079 184.147 175.608 182.101C181.311 179.527 176.452 172.832 176.452 172.832L173.892 167.843L174.656 167.582L171.792 158.328C171.517 156.521 171.481 154.687 171.683 152.871C171.74 151.809 171.718 150.744 171.618 149.685C175.369 149.03 178.961 148.335 179.605 148.494C180.366 148.679 184.62 148.715 186.293 148.722C185.746 149.149 185.308 149.573 185.308 149.573L192.118 154.157C192.118 154.157 194.428 152.893 194.91 151.553C195.384 151.434 195.821 151.2 196.184 150.873C196.257 152.455 196.677 154.168 198.139 154.207C198.505 154.215 198.868 154.143 199.204 153.997L210.341 151.792L209.385 157.763L210.051 158.947C209.715 163.983 209.327 169.331 208.987 174.034L208.831 175.062L208.911 175.08C208.382 182.322 207.959 187.807 207.959 187.807C208.582 186.618 209.55 185.645 210.736 185.015L210.808 195.762C210.808 195.762 211.366 212.753 211.366 215.071C211.366 217.388 211.442 222.562 211.442 222.562C211.442 222.562 212.633 228.894 213.343 230.98C214.052 233.065 214.61 242.566 214.61 242.566C214.61 242.566 216.275 245.191 215.562 246.186C214.849 247.182 218.335 249.351 218.335 249.351C218.335 249.351 216.116 252.363 215.957 254.373C215.939 254.604 216.167 254.851 216.579 255.097C216.449 255.202 216.315 255.307 216.167 255.408C215.138 256.096 213.632 256.574 211.366 256.379C205.185 255.835 200.83 261.552 204.631 262.711C208.433 263.87 219.838 264.101 219.838 264.101C219.838 264.101 223.292 261.947 225.993 262.917C225.953 265.184 226.065 267.262 226.084 267.537L226.051 267.563C224.436 269.011 221.344 271.502 218.325 272.519C213.98 273.986 213.017 279.935 218.64 280.706C224.262 281.477 232.499 279.779 232.499 279.779C232.499 279.779 236.775 276.614 240.023 275.919C243.271 275.224 246.044 273.678 245.49 271.824C245.128 270.64 244.198 267.537 243.568 265.452C243.531 265.326 243.495 265.206 243.459 265.09C243.557 264.873 243.655 264.648 243.745 264.416C243.745 264.416 242.083 255.767 243.43 253.605C244.777 251.444 244.064 229.814 244.064 229.814C244.064 229.814 241.765 224.332 242.956 221.012C244.147 217.692 241.055 212.978 241.055 212.978C241.055 212.978 241.392 203.532 242.297 198.267C242.338 198.043 242.378 197.825 242.416 197.615C243.932 197.166 245.409 196.595 246.833 195.91C246.833 195.91 247.626 184.013 248.101 181.312C248.148 181.058 248.213 180.649 248.293 180.117L248.655 178.209L249.082 176.036L250.53 168.632L253.144 165.25L259.879 158.371C259.879 158.371 261.497 154.736 260.704 147.86ZM156.85 105.379L156.799 105.415C156.791 105.389 156.785 105.363 156.781 105.336C156.802 105.353 156.825 105.368 156.85 105.379ZM223.386 113.812L223.126 114.38L224.078 113.432L222.785 114.88L223.22 113.967L223.386 113.812ZM216.956 127.1C216.706 127.762 216.438 128.479 216.159 129.225L216.67 127.701L216.956 127.1Z" fill="url(#paint0_linear)"/>
<path d="M196.177 148.762C196.177 148.762 195.29 154.667 197.951 154.743C200.612 154.819 202.39 150.188 202.39 150.188L201.304 146.484L196.177 148.762Z" fill="#585B8A"/>
<path opacity="0.2" d="M196.177 148.762C196.177 148.762 195.29 154.667 197.951 154.743C200.612 154.819 202.39 150.188 202.39 150.188L201.304 146.484L196.177 148.762Z" fill="black"/>
<path d="M136.57 276.585C131.835 276.792 125.658 271.44 125.658 271.44L125.35 265.883C125.35 265.883 124.941 266.089 124.115 264.854C123.561 264.025 124.358 260.589 124.941 258.428C125.223 257.37 125.455 256.617 125.455 256.617L135.846 259.398L136.342 260.712L140.376 271.437C140.376 271.437 141.303 276.379 136.57 276.585Z" fill="#636992"/>
<path d="M184.316 260.843C184.316 260.843 172.277 265.474 168.385 261.871C164.493 258.268 161.593 259.297 161.593 259.297C161.593 259.297 154.8 259.402 153.461 258.884C152.672 258.583 153.099 256.009 153.591 253.96C153.924 252.544 154.286 251.375 154.286 251.375C154.286 251.375 166.119 247.359 167.972 249.829C168.529 250.554 169.195 251.189 169.946 251.711C172.089 253.261 175.438 254.666 180.735 256.827C188.02 259.811 184.316 260.843 184.316 260.843Z" fill="#636992"/>
<path d="M173.512 166.782L176.803 173.368C176.803 173.368 181.539 180.059 175.981 182.629C170.423 185.2 170.528 167.814 170.528 167.814L173.512 166.782Z" fill="#FFD6D6"/>
<path d="M159.721 109.67C159.721 109.67 163.323 111.317 165.485 118.211C167.646 125.105 170.528 136.839 170.528 136.839C170.528 136.839 172.483 150.112 172.172 153.407C171.974 155.222 172.009 157.054 172.277 158.86L175.054 168.122L169.496 170.077L160.955 137.353L159.721 109.67Z" fill="#DCE6F2"/>
<path opacity="0.05" d="M159.721 109.67C159.721 109.67 163.323 111.317 165.485 118.211C167.646 125.105 170.528 136.839 170.528 136.839C170.528 136.839 172.483 150.112 172.172 153.407C171.974 155.222 172.009 157.054 172.277 158.86L175.054 168.122L169.496 170.077L160.955 137.353L159.721 109.67Z" fill="black"/>
<path opacity="0.1" d="M135.846 259.402L136.342 260.716L135.734 261.878C133.366 262.906 127.501 262.085 127.501 262.085C127.501 262.085 126.415 260.705 124.93 258.435C125.213 257.378 125.444 256.625 125.444 256.625L135.846 259.402Z" fill="black"/>
<path opacity="0.1" d="M170.322 252.197C167.321 258.996 157.118 256.473 154.283 255.622C153.816 255.481 153.559 255.386 153.559 255.386C153.559 255.386 153.577 254.832 153.584 253.96C153.917 252.544 154.279 251.375 154.279 251.375C154.279 251.375 166.111 247.359 167.965 249.829C168.522 250.554 169.188 251.189 169.938 251.711C170.052 251.884 170.18 252.047 170.322 252.197Z" fill="black"/>
<path d="M169.805 243.554C167.335 248.695 170.322 251.581 170.322 251.581C167.321 258.377 157.118 255.857 154.283 255.003C153.816 254.865 153.559 254.771 153.559 254.771C153.559 254.771 153.765 247.667 153.045 244.271C152.324 240.875 152.426 226.573 152.838 224.824C153.251 223.076 153.454 219.676 153.454 219.676C153.454 219.676 153.146 215.664 153.66 213.709C153.815 213.181 153.825 212.621 153.69 212.087C153.555 211.554 153.28 211.066 152.893 210.675L152.838 210.621C152.838 210.621 150.575 218.34 149.75 219.672C148.924 221.005 148.62 227.699 148.515 228.934C148.41 230.169 144.192 240.462 144.192 240.462C144.192 240.462 142.548 245.194 142.241 246.53C141.933 247.866 140.695 251.679 140.695 251.679L135.734 261.252C133.366 262.28 127.501 261.458 127.501 261.458C127.501 261.458 126.371 260.01 124.825 257.649C123.279 255.289 122.562 246.95 122.562 246.95C122.562 246.95 128.222 246.845 126.781 241.393C125.34 235.94 128.015 231.718 127.914 229.864C127.812 228.011 129.148 221.942 129.869 221.016C130.589 220.089 130.484 216.178 130.278 214.017C130.072 211.855 130.177 204.241 130.177 204.241C130.177 204.241 130.383 200.845 131.411 199.302C132.44 197.76 132.03 193.332 132.03 193.332C132.03 193.332 133.982 192.304 132.646 182.322C131.31 172.339 134.818 159.374 134.818 159.374L134.938 157.564L135.126 154.631C135.126 154.631 164.558 152.777 166.926 155.04C167.545 155.668 168.053 156.396 168.429 157.194C169.239 158.936 169.811 160.778 170.13 162.672L171.365 193.853L172.6 216.801L172.187 234.09C172.187 234.09 172.277 238.406 169.805 243.554Z" fill="#565988"/>
<path opacity="0.1" d="M161.078 182.014L157.99 248.902L154.282 254.999C153.815 254.861 153.558 254.767 153.558 254.767C153.558 254.767 153.765 247.664 153.044 244.267C152.324 240.871 152.425 226.57 152.838 224.821C153.251 223.072 153.453 219.672 153.453 219.672C153.453 219.672 153.146 215.661 153.66 213.706C153.814 213.177 153.825 212.617 153.69 212.084C153.555 211.55 153.279 211.062 152.892 210.671L152.943 210.309L161.078 182.014Z" fill="black"/>
<path opacity="0.1" d="M127.819 253.844C127.819 253.844 135.846 250.654 137.081 251.671C138.316 252.689 127.617 254.242 127.617 254.242L127.819 253.844Z" fill="black"/>
<path opacity="0.1" d="M167.44 245.404C167.132 245.509 159.312 248.301 160.032 251.27C160.753 254.239 167.44 245.404 167.44 245.404Z" fill="black"/>
<path d="M143.001 93.1558C143.001 93.1558 145.622 99.4847 144.236 102.729C142.849 105.973 159.207 111.527 159.207 111.527C159.207 111.527 154.424 99.1769 159.055 92.2289C163.686 85.2809 143.001 93.1558 143.001 93.1558Z" fill="#FFD6D6"/>
<path d="M238.781 276.379C235.617 277.074 231.449 280.239 231.449 280.239C231.449 280.239 223.422 281.937 217.941 281.165C212.459 280.394 213.39 274.449 217.633 272.983C220.577 271.969 223.593 269.467 225.168 268.033C225.863 267.392 226.275 266.947 226.275 266.947L241.638 263.859C241.638 263.859 241.888 264.717 242.235 265.901C242.851 267.99 243.76 271.089 244.107 272.269C244.647 274.141 241.946 275.684 238.781 276.379Z" fill="#505484"/>
<path d="M234.846 264.492C234.846 264.492 228.361 265.187 225.66 263.645C222.959 262.103 219.1 264.572 219.1 264.572C219.1 264.572 207.984 264.34 204.28 263.182C200.576 262.023 204.82 256.302 210.841 256.853C213.035 257.052 214.52 256.57 215.522 255.882C216.57 255.164 217.3 254.07 217.561 252.827L230.595 253.598L232.405 258.218L234.846 264.492Z" fill="#505484"/>
<path opacity="0.1" d="M232.605 260.325C232.605 260.325 217.456 257.848 215.522 255.882C216.57 255.164 217.3 254.07 217.561 252.827L230.595 253.598L232.406 258.218L232.605 260.325Z" fill="black"/>
<path d="M210.146 173.654L210.301 196.265C210.301 196.265 210.841 213.246 210.841 215.563C210.841 217.88 210.917 223.047 210.917 223.047C210.917 223.047 212.075 229.376 212.77 231.461C213.466 233.547 214.005 243.047 214.005 243.047C214.005 243.047 215.627 245.672 214.932 246.668C214.237 247.664 217.633 249.832 217.633 249.832C217.633 249.832 215.461 252.845 215.319 254.851C215.178 256.856 232.604 259.706 232.604 259.706L225.816 190.092L220.41 172.651L210.146 173.654Z" fill="#575988"/>
<path opacity="0.1" d="M210.146 173.654L210.301 196.265C210.301 196.265 210.841 213.246 210.841 215.563C210.841 217.88 210.917 223.047 210.917 223.047C210.917 223.047 212.075 229.376 212.77 231.461C213.466 233.547 214.005 243.047 214.005 243.047C214.005 243.047 215.627 245.672 214.932 246.668C214.237 247.664 217.633 249.832 217.633 249.832C217.633 249.832 215.461 252.845 215.319 254.851C215.178 256.856 232.604 259.706 232.604 259.706L225.816 190.092L220.41 172.651L210.146 173.654Z" fill="black"/>
<path opacity="0.1" d="M242.235 265.919C237.192 277.943 225.196 268.663 225.196 268.663C225.196 268.663 225.196 268.432 225.167 268.033C225.863 267.392 226.275 266.947 226.275 266.947L241.638 263.859C241.638 263.859 241.888 264.735 242.235 265.919Z" fill="black"/>
<path d="M242.409 264.88C237.467 277.552 225.197 268.044 225.197 268.044C225.197 268.044 224.809 261.484 225.584 258.475C226.359 255.466 224.733 246.433 224.733 246.433C224.733 246.433 223.806 238.406 222.959 236.555C222.112 234.705 222.188 230.998 222.188 230.69C222.188 230.382 222.496 227.909 221.8 226.211C221.105 224.513 220.714 220.346 220.714 220.346C220.714 220.346 220.714 214.48 220.019 211.008L217.626 199.06L213.303 174.592L214.653 174.36L238.85 170.116C238.85 170.116 243.405 193.289 241.859 195.664C241.526 196.185 241.232 197.326 240.99 198.796C240.106 204.053 239.777 213.492 239.777 213.492C239.777 213.492 242.786 218.199 241.631 221.519C240.476 224.839 242.717 230.317 242.717 230.317C242.717 230.317 243.412 251.929 242.098 254.09C240.783 256.252 242.409 264.88 242.409 264.88Z" fill="#575988"/>
<path d="M240.092 106.892C240.092 106.892 218.173 122.327 223.111 114.608C225.772 110.452 225.283 105.158 224.241 101.161C223.714 99.1279 222.986 97.1522 222.068 95.2629C222.068 95.2629 240.693 87.3409 238.224 94.441C237.645 96.0951 237.399 97.8473 237.5 99.5968C237.647 102.227 238.547 104.759 240.092 106.892Z" fill="#D28690"/>
<path d="M200.627 142.241C200.627 142.241 191.366 139.565 189.823 142.19C188.281 144.815 190.287 150.576 193.082 151.503C195.877 152.43 202.293 148.364 202.293 148.364L200.627 142.241Z" fill="#D28690"/>
<path d="M211.228 137.69L207.368 141.242C207.368 141.242 200.652 141.857 198.722 141.394C198.722 141.394 200.5 153.28 197.951 154.747L213.542 151.582L211.228 137.69Z" fill="#585B8A"/>
<path opacity="0.1" d="M211.228 137.69L207.368 141.242C207.368 141.242 200.652 141.857 198.722 141.394C198.722 141.394 200.5 153.28 197.951 154.747L213.542 151.582L211.228 137.69Z" fill="black"/>
<path opacity="0.1" d="M161.676 86.6712C161.676 89.744 160.456 92.691 158.283 94.8638C156.11 97.0366 153.163 98.2573 150.09 98.2573C144.145 95.4006 138.504 93.0761 138.504 86.6712C138.443 85.1124 138.696 83.5571 139.25 82.0988C139.804 80.6404 140.647 79.3089 141.728 78.1842C142.809 77.0595 144.106 76.1647 145.542 75.5535C146.977 74.9423 148.521 74.6272 150.081 74.6272C151.641 74.6272 153.185 74.9423 154.621 75.5535C156.056 76.1647 157.353 77.0595 158.434 78.1842C159.515 79.3089 160.358 80.6404 160.912 82.0988C161.466 83.5571 161.72 85.1124 161.658 86.6712H161.676Z" fill="black"/>
<path d="M161.676 86.3598C161.678 89.0846 160.717 91.7225 158.964 93.8083C157.211 95.894 154.777 97.2937 152.093 97.7605C149.408 98.2273 146.645 97.7312 144.291 96.3596C141.936 94.9881 140.142 92.8292 139.224 90.2638C138.306 87.6983 138.323 84.8911 139.272 82.3371C140.222 79.7831 142.043 77.6464 144.414 76.3039C146.785 74.9614 149.554 74.4992 152.232 74.9989C154.911 75.4986 157.327 76.928 159.055 79.0352C160.747 81.1016 161.673 83.6891 161.676 86.3598Z" fill="#FFD6D6"/>
<path opacity="0.1" d="M168.429 157.205C167.282 157.917 166.083 158.539 164.84 159.066C164.84 159.066 158.975 158.215 158.128 159.218C157.281 160.221 149.8 160.608 149.8 160.608C149.8 160.608 138.377 160.069 136.679 158.603C136.154 158.177 135.57 157.831 134.945 157.574L135.133 154.642C135.133 154.642 164.565 152.788 166.933 155.051C167.55 155.679 168.055 156.408 168.429 157.205Z" fill="black"/>
<path d="M169.859 155.131C169.627 156.441 164.84 158.447 164.84 158.447C164.84 158.447 158.975 157.6 158.128 158.603C157.281 159.606 149.8 159.993 149.8 159.993C149.8 159.993 138.377 159.45 136.679 157.984C134.981 156.517 131.197 155.811 131.197 155.811C131.197 155.811 129.268 142.075 130.042 139.066C130.817 136.057 128.884 127.795 128.42 124.862C127.957 121.929 129.731 113.826 131.893 112.516C134.054 111.205 137.143 106.802 138.993 105.491C140.553 104.387 142.277 102.957 142.78 102.526L142.928 102.403C142.928 102.403 143.24 100.01 144.474 98.7824C145.709 97.555 157.052 106.578 157.052 106.578C157.052 106.578 157.132 107.273 157.903 105.962C158.077 105.669 159.572 107.827 159.833 108.739C159.833 108.739 166.006 119.547 166.394 121.774C166.781 124 168.399 131.267 168.707 133.041C168.787 133.497 168.917 135.098 169.069 137.241C169.098 137.661 169.124 138.106 169.156 138.57C169.384 142.125 169.631 146.666 169.779 150.098C169.779 150.489 169.812 150.865 169.822 151.228C169.901 152.527 169.913 153.83 169.859 155.131Z" fill="#DCE6F2"/>
<path opacity="0.1" d="M130.666 127.266C130.666 127.266 134.909 132.436 136.299 132.436C137.69 132.436 130.666 127.266 130.666 127.266Z" fill="black"/>
<path opacity="0.1" d="M139.605 138.381C139.605 138.381 132.657 145.945 133.584 147.335C134.511 148.726 139.605 138.381 139.605 138.381Z" fill="black"/>
<path opacity="0.1" d="M134.51 153.432C134.51 153.432 142.476 144.71 142.838 141.702L134.51 153.432Z" fill="black"/>
<path opacity="0.1" d="M144.543 154.048C144.543 154.048 153.729 149.185 154.5 145.326C155.271 141.466 144.543 154.048 144.543 154.048Z" fill="black"/>
<path opacity="0.1" d="M156.198 107.124L154.924 110.209L157.046 111.212L159.131 117.041C159.131 117.041 164.881 128.54 164.649 134.522C164.417 140.503 165.692 149.493 165.692 149.493L169.008 148.878L167.444 131.285C167.2 128.561 166.518 125.894 165.424 123.388C162.773 117.32 157.842 106.118 157.531 106.118C157.107 106.118 157.404 106.273 157.404 106.273L156.198 107.124Z" fill="black"/>
<path d="M156.506 106.813L155.231 109.901L157.357 110.904L159.439 116.733C159.439 116.733 165.188 128.233 164.956 134.214C164.725 140.195 165.999 149.185 165.999 149.185L169.319 148.57L167.752 130.977C167.511 128.253 166.83 125.586 165.735 123.08C163.085 117.009 158.153 105.81 157.846 105.81C157.418 105.81 157.715 105.966 157.715 105.966L156.506 106.813Z" fill="#575989"/>
<path d="M194.092 152.172C192.477 152.049 188.603 150.091 187.064 149.276L186.412 148.914L186.492 142.936C186.872 142.712 187.266 142.513 187.672 142.339C189.729 141.441 193.947 140.221 196.061 144.149C198.914 149.417 196.137 152.31 194.092 152.172Z" fill="#FFD6D6"/>
<path opacity="0.1" d="M159.055 79.0351C158.889 79.139 158.706 79.2138 158.515 79.256C157.172 79.5493 155.644 78.3943 154.493 79.1365C153.79 79.5927 153.627 80.5377 153.533 81.3705C153.369 82.8187 153.205 84.2573 153.041 85.6863C153.006 86.195 152.899 86.6961 152.722 87.1744C152.154 88.4742 150.593 89.0861 149.17 89.0643C148.613 89.104 148.062 88.9218 147.639 88.5574C147.389 88.304 147.255 87.9492 146.98 87.7175C145.169 86.2004 144.619 89.9188 145.097 90.976C145.865 92.7031 148.591 94.3686 147.447 96.5627C147.254 96.9193 146.963 97.2124 146.607 97.4063C144.883 96.8664 143.309 95.9307 142.011 94.674C140.713 93.4173 139.726 91.8744 139.131 90.1687C138.535 88.4629 138.347 86.6415 138.581 84.85C138.815 83.0584 139.464 81.3464 140.478 79.8507C141.491 78.355 142.84 77.117 144.418 76.2357C145.995 75.3543 147.756 74.8541 149.561 74.7748C151.366 74.6956 153.165 75.0396 154.813 75.7793C156.461 76.519 157.914 77.634 159.055 79.0351Z" fill="black"/>
<path d="M146.672 87.7032C146.943 87.9313 147.081 88.2861 147.331 88.5396C147.755 88.9036 148.305 89.0857 148.862 89.0465C150.285 89.0682 151.846 88.4599 152.411 87.1529C152.591 86.6767 152.699 86.1764 152.733 85.6684L153.225 81.3526C153.319 80.5198 153.479 79.5748 154.185 79.1186C155.336 78.3945 156.864 79.5314 158.207 79.2381C158.692 79.115 159.111 78.8123 159.38 78.3913C159.649 77.9703 159.747 77.4627 159.656 76.9716C159.5 76.28 158.971 75.7333 158.7 75.0744C158.535 74.568 158.403 74.0516 158.305 73.5283C157.556 70.7187 154.257 69.1401 151.39 69.6108C149.797 69.8751 148.316 70.6355 146.719 70.8672C145.575 71.0337 144.405 70.9251 143.25 71.0482C142.177 71.1589 141.134 71.467 140.173 71.957C139.921 72.0687 139.698 72.2372 139.521 72.4494C139.357 72.736 139.247 73.0501 139.195 73.3763C138.808 74.8245 137.562 75.8926 136.661 77.1128C135.63 78.5167 135.033 80.1922 134.945 81.9319C134.909 82.3762 134.951 82.8233 135.068 83.2534C135.144 83.5069 135.263 83.7531 135.321 84.0138C135.499 84.8067 135.093 85.5996 134.894 86.3889C134.647 87.3961 134.736 88.4566 135.147 89.4085C136.538 92.6056 141.118 93.6737 142.07 97.03C142.916 97.4354 143.829 97.6809 144.764 97.7541C145.698 97.7722 146.705 97.3703 147.139 96.5412C148.28 94.3688 145.557 92.6816 144.789 90.9582C144.308 89.8973 144.847 86.1825 146.672 87.7032Z" fill="#353045"/>
<path opacity="0.1" d="M238.242 94.441C237.663 96.0951 237.417 97.8473 237.518 99.5968C236.96 100.071 236.352 98.6518 235.707 99.0175C233.941 100.039 231.899 102.468 229.712 102.468C227.815 102.469 225.945 102.021 224.255 101.161C223.728 99.1279 223.001 97.1522 222.083 95.2629C222.083 95.2629 240.711 87.3409 238.242 94.441Z" fill="black"/>
<path d="M241.739 89.8104C241.739 92.1921 241.033 94.5204 239.71 96.5007C238.387 98.481 236.506 100.025 234.305 100.936C232.105 101.847 229.684 102.086 227.348 101.621C225.012 101.157 222.866 100.01 221.182 98.3256C219.498 96.6414 218.351 94.4957 217.886 92.1597C217.422 89.8237 217.66 87.4024 218.571 85.202C219.483 83.0015 221.026 81.1208 223.007 79.7976C224.987 78.4743 227.315 77.7681 229.697 77.7681C231.279 77.7676 232.845 78.0787 234.306 78.6838C235.767 79.2888 237.095 80.1758 238.213 81.2941C239.332 82.4124 240.219 83.7402 240.824 85.2014C241.429 86.6627 241.74 88.2288 241.739 89.8104Z" fill="#D28690"/>
<path d="M241.225 109.568C241.225 109.568 238.959 112.038 238.651 112.24C238.343 112.443 231.772 140.119 231.656 140.442C231.54 140.764 223.832 165.754 223.832 165.754L211.482 171.825L212.514 141.26L221.565 116.053C221.565 116.053 224.552 112.657 225.476 111.422C226.399 110.187 237.927 102.776 237.927 102.776L239.897 106.835L241.225 109.568Z" fill="#F0F3F7"/>
<path opacity="0.1" d="M239.592 107.454L225.392 117.621L225.164 112.038C226.091 110.803 237.615 103.395 237.615 103.395L239.592 107.454Z" fill="black"/>
<path d="M239.9 106.835L225.7 117.001L225.479 111.422C226.406 110.184 237.93 102.776 237.93 102.776L239.9 106.835Z" fill="#F0F3F7"/>
<path d="M225.005 108.938L225.479 111.422L222.304 114.648L224.838 108.974C224.838 108.974 219.407 112.758 217.778 113.761C216.149 114.764 214.52 118.16 214.458 119.087C214.397 120.014 211.833 133.982 211.833 133.982C211.833 133.982 209.903 139.153 210.446 140.619C210.989 142.085 207.514 188.317 207.514 188.317C207.978 187.42 208.635 186.635 209.437 186.02C210.24 185.405 211.168 184.974 212.155 184.758L210.917 157.437C210.917 157.437 212.423 139.261 212.499 139.029C212.575 138.798 216.011 128.262 216.011 128.262L225.005 108.938Z" fill="#585B8A"/>
<path opacity="0.1" d="M225.791 111.73L225.544 116.799C225.544 116.799 222.108 127.643 220.953 129.417C219.798 131.191 216.283 141.767 216.283 141.767L214.302 160.138L210.906 161.684L209.233 158.603L212.014 140.862C212.014 140.862 217.26 125.89 218.035 124.344L221.906 116.19L225.791 111.73Z" fill="black"/>
<path d="M225.479 111.422L225.237 116.491C225.237 116.491 221.801 127.335 220.642 129.109C219.483 130.883 215.975 141.459 215.975 141.459L214.005 159.827L210.609 161.369L208.911 158.284L211.692 140.543C211.692 140.543 216.938 125.568 217.709 124.026L221.609 115.883L225.479 111.422Z" fill="#663D5C"/>
<path d="M185.449 150.112L192.086 154.707C192.086 154.707 196.767 152.082 194.041 150.384C191.315 148.686 188.896 148.429 188.02 148.429C187.144 148.429 185.449 150.112 185.449 150.112Z" fill="#D28690"/>
<path d="M190.406 141.618C190.258 141.71 190.136 141.839 190.051 141.992C189.967 142.144 189.923 142.316 189.924 142.491C189.924 143.899 190.084 147.628 191.264 145.945C192.712 143.885 192.448 142.035 194.66 143.371C196.035 144.227 197.238 145.332 198.208 146.629L197.593 142.205C197.593 142.205 193.045 139.96 190.406 141.618Z" fill="#D28690"/>
<path opacity="0.1" d="M241.866 195.649C241.533 196.171 241.24 197.311 240.997 198.781C227.463 202.84 217.561 194.259 217.561 194.259C216.363 190.199 215.384 186.078 214.628 181.913C214.385 180.486 214.44 177.72 214.664 174.345L238.861 170.102C238.861 170.102 243.412 193.256 241.866 195.649Z" fill="black"/>
<path d="M255.758 126.571C255.143 128.58 255.375 132.668 255.375 132.668L249.817 158.911C249.817 158.911 247.116 179.132 246.652 181.833C246.189 184.534 245.418 196.421 245.418 196.421C229.672 204.14 217.539 193.644 217.539 193.644C216.341 189.582 215.362 185.46 214.606 181.294C213.831 176.71 216.112 158.346 217.191 150.188C217.514 147.773 217.731 146.253 217.731 146.253L221.782 131.202C221.782 131.202 226.761 118.504 228.614 114.8C230.468 111.096 237.912 102.776 237.912 102.776C238.835 102.189 240.313 104.26 241.41 106.147C242.239 107.573 242.858 108.899 242.858 108.899C242.858 108.899 252.12 112.91 253.506 115.054C254.893 117.197 254.665 121.614 254.821 121.846C254.976 122.078 256.377 124.565 255.758 126.571Z" fill="#585B8A"/>
<path opacity="0.1" d="M233.919 117.233C233.919 117.233 234.614 121.325 232.833 122.559C231.113 123.754 218.31 148.928 217.514 150.5C217.836 148.081 218.053 146.561 218.053 146.561L222.105 131.513C222.105 131.513 227.087 118.815 228.937 115.108C230.787 111.4 238.238 103.084 238.238 103.084C239.161 102.497 240.635 104.568 241.732 106.455C240.077 109.891 236.627 116.386 233.919 117.233Z" fill="black"/>
<path d="M233.611 116.925C233.611 116.925 234.303 121.017 232.525 122.251C230.747 123.486 218.006 148.617 217.199 150.188C217.521 147.773 217.738 146.253 217.738 146.253L221.79 131.202C221.79 131.202 226.768 118.504 228.622 114.8C230.476 111.096 237.92 102.776 237.92 102.776C238.843 102.189 240.32 104.26 241.417 106.147C239.77 109.579 236.316 116.078 233.611 116.925Z" fill="#585B8A"/>
<path d="M251.979 153.896L247.623 176.558V176.561L247.207 178.73V178.734L246.269 183.611L242.268 182.763L240.403 182.369L214.599 176.902L212.702 176.5L208.372 175.584L209.219 169.957L209.57 167.618L212.695 146.872L251.979 153.896Z" fill="#080B24"/>
<path d="M227.898 172.419C227.898 172.419 217.633 176.123 219.871 180.522C222.108 184.921 236.464 177.126 236.464 177.126L227.898 172.419Z" fill="#D28690"/>
<path opacity="0.1" d="M235.229 203.984C235.229 204.292 235.617 208.231 237.159 209.618C238.702 211.004 235.229 203.984 235.229 203.984Z" fill="black"/>
<path opacity="0.1" d="M224.889 217.953C224.889 217.953 226.739 223.047 234.071 225.132C241.402 227.218 224.889 217.953 224.889 217.953Z" fill="black"/>
<path opacity="0.1" d="M241.74 89.8104C241.74 91.9273 241.182 94.007 240.123 95.8396C239.063 97.6723 237.539 99.1931 235.704 100.249C235.012 99.8617 234.398 99.3498 233.894 98.7389C233.369 98.1017 232.959 97.2327 233.274 96.4724C233.528 95.8605 234.198 95.4731 234.361 94.8395C234.437 94.452 234.418 94.0516 234.303 93.6736C234.169 93.0762 234.042 92.4788 233.912 91.885C233.799 91.3781 233.6 90.7807 233.097 90.6576C232.594 90.5345 232.174 90.9545 231.779 91.2659C230.812 92.0298 228.959 92.5476 227.796 91.9212C226.634 91.2948 226.96 89.1985 226.772 88.0652C226.769 87.9668 226.746 87.87 226.702 87.7818C226.658 87.6936 226.595 87.6161 226.518 87.5547C226.349 87.4986 226.169 87.4861 225.993 87.5185C225.367 87.5185 224.864 86.9573 224.683 86.3563C224.554 85.7427 224.484 85.1184 224.473 84.4916C224.404 83.8652 224.176 83.2027 223.64 82.8804C223.212 82.6811 222.737 82.6035 222.268 82.6559L219.998 82.6813C221.504 80.6452 223.613 79.1358 226.026 78.3676C228.439 77.5994 231.033 77.6115 233.439 78.4022C235.845 79.193 237.94 80.722 239.427 82.7721C240.914 84.8221 241.717 87.2887 241.721 89.8212L241.74 89.8104Z" fill="black"/>
<path d="M232.101 91.2659C232.496 90.9545 232.931 90.5418 233.419 90.6612C233.908 90.7807 234.118 91.3854 234.23 91.885L234.621 93.67C234.737 94.049 234.758 94.4505 234.683 94.8395C234.498 95.4767 233.832 95.8605 233.575 96.4724C233.26 97.2327 233.673 98.1017 234.194 98.7353C235.145 99.8814 236.46 100.667 237.92 100.962C238.301 101.054 238.697 101.062 239.082 100.987C239.944 100.788 240.53 99.9953 240.994 99.2531C243.387 95.5238 245.447 91.4361 245.867 87.0261C245.982 86.1266 245.941 85.214 245.744 84.3287C245.548 83.6406 245.271 82.9783 244.919 82.3555C244.302 81.0831 243.519 79.8984 242.59 78.8326C240.943 77.0584 238.669 75.9686 236.334 75.3241C233.707 74.5953 230.965 74.3801 228.256 74.6905C227.532 74.7738 226.837 74.8933 226.124 74.9404C225.228 74.982 224.331 74.9675 223.437 74.8969L218.108 74.5783C217.803 75.1974 218.108 75.9324 218.47 76.5117C218.832 77.091 219.281 77.6921 219.252 78.38C219.223 79.0679 218.734 79.611 218.357 80.1903C217.981 80.7696 217.695 81.5191 218.071 82.0839C218.448 82.6487 219.216 82.6849 219.882 82.6777L222.568 82.6487C223.036 82.6006 223.508 82.682 223.933 82.8841C224.469 83.2063 224.697 83.8725 224.766 84.4953C224.781 85.1218 224.851 85.7457 224.976 86.3599C225.161 86.9609 225.66 87.5294 226.287 87.5221C226.462 87.4871 226.644 87.5009 226.812 87.562C226.889 87.6226 226.951 87.6995 226.995 87.7871C227.039 87.8747 227.063 87.9709 227.065 88.0689C227.253 89.2021 226.906 91.2949 228.09 91.9249C229.274 92.5548 231.135 92.0298 232.101 91.2659Z" fill="#663D5C"/>
<path opacity="0.1" d="M247.406 115.05C246.074 114.908 244.735 115.224 243.606 115.944C242.478 116.665 241.628 117.747 241.196 119.014C239.748 123.138 237.333 130.579 237.938 133.519C238.788 137.686 239.791 144.634 239.791 144.634C239.791 144.634 244.19 147.169 241.964 149.725C239.737 152.281 239.107 155.902 239.107 155.902C239.107 155.902 236.25 157.136 235.635 159.761C235.019 162.386 230.848 166.011 230.848 166.011L224.599 172.263C224.599 172.263 234.94 182.763 237.025 183.299L243.43 175.812L250.994 165.779L257.554 158.9C257.554 158.9 259.097 155.279 258.325 148.4C257.554 141.52 254.542 134.971 254.542 134.971L254.774 132.653C254.774 132.653 255.483 116.053 247.406 115.05Z" fill="black"/>
<path d="M248.022 115.05C246.691 114.91 245.353 115.226 244.227 115.947C243.1 116.667 242.251 117.749 241.819 119.014C240.371 123.138 237.956 130.579 238.561 133.519C239.408 137.686 240.411 144.634 240.411 144.634C240.411 144.634 244.81 147.169 242.583 149.725C240.357 152.281 239.73 155.902 239.73 155.902C239.73 155.902 236.874 157.136 236.254 159.761C235.635 162.386 231.472 166.01 231.472 166.01L225.219 172.263C225.219 172.263 235.559 182.763 237.645 183.299L244.05 175.812L251.595 165.779L258.156 158.899C258.156 158.899 259.702 155.279 258.927 148.4C258.152 141.52 255.147 134.971 255.147 134.971L255.379 132.653C255.379 132.653 256.099 116.053 248.022 115.05Z" fill="#585B8A"/>
<path opacity="0.1" d="M241.559 138.537C241.559 138.537 248.119 146.56 250.9 144.786C253.681 143.012 241.559 138.537 241.559 138.537Z" fill="black"/>
<path opacity="0.1" d="M244.028 132.36C244.723 132.592 250.436 140.543 253.369 139.602C256.302 138.66 244.028 132.36 244.028 132.36Z" fill="black"/>
<path opacity="0.1" d="M245.65 146.017C245.65 146.017 246.037 150.572 250.744 149.953C255.451 149.334 245.65 146.017 245.65 146.017Z" fill="black"/>
<path opacity="0.1" d="M224.849 109.282L222.304 114.956L225.483 111.73L224.849 109.282Z" fill="black"/>
<path d="M224.849 108.974L222.304 114.648L225.483 111.422L224.849 108.974Z" fill="#F0F3F7"/>
<path opacity="0.3" d="M214.599 176.902L212.702 176.5L209.219 169.957L209.57 167.618L214.599 176.902Z" fill="black"/>
<path opacity="0.3" d="M247.623 176.561L247.207 178.73V178.734L242.268 182.763L240.403 182.369L247.623 176.561Z" fill="black"/>
<path opacity="0.1" d="M169.811 151.242C168.856 151.401 167.929 151.546 167.082 151.655C162.375 152.274 151.18 146.716 151.18 146.716C151.18 146.716 137.519 135.293 133.583 124.489C129.648 113.685 138.29 112.063 138.29 112.063C141.549 110.209 148.634 115.379 149.637 116.23C150.64 117.081 151.491 119.239 151.411 120.629C151.332 122.02 153.729 123.794 153.729 123.794C153.729 123.794 157.82 130.894 158.823 131.665C159.826 132.436 160.057 133.131 160.365 134.446C160.673 135.76 163.374 136.839 164.533 136.759C165.691 136.68 167.067 137.147 167.067 137.762C167.067 138.258 168.2 138.505 169.131 138.584C169.406 142.542 169.677 147.726 169.811 151.242Z" fill="black"/>
<path opacity="0.1" d="M169.769 150.112C169.044 150.228 168.349 150.333 167.698 150.42C162.991 151.039 151.799 145.482 151.799 145.482C151.799 145.482 138.139 134.058 134.203 123.254C130.267 112.45 138.91 110.828 138.91 110.828C142.168 108.975 149.25 114.145 150.253 114.996C151.256 115.847 152.107 118.004 152.031 119.395C151.955 120.785 154.345 122.559 154.345 122.559C154.345 122.559 158.436 129.659 159.439 130.431C160.442 131.202 160.673 131.897 160.985 133.211C161.296 134.525 163.994 135.601 165.152 135.525C166.311 135.449 167.687 135.912 167.687 136.528C167.687 136.89 168.331 137.132 169.048 137.252C169.077 137.672 169.102 138.117 169.135 138.581C169.374 142.14 169.62 146.68 169.769 150.112Z" fill="black"/>
<path opacity="0.1" d="M187.672 142.339L187.379 149.276H187.064L186.412 148.914L186.492 142.936C186.872 142.712 187.266 142.513 187.672 142.339Z" fill="black"/>
<path d="M138.29 111.444C138.29 111.444 129.648 113.066 133.583 123.87C137.519 134.674 151.18 146.101 151.18 146.101C151.18 146.101 162.371 151.655 167.082 151.039C171.792 150.424 178.964 148.802 179.891 149.033C180.818 149.265 187.071 149.265 187.071 149.265L187.379 142.024L180.138 141.636L176.434 140.865C176.434 140.865 175.119 139.779 174.348 139.938C173.577 140.098 171.958 139.011 171.958 139.011C171.958 139.011 170.72 138.009 169.786 138.009C168.852 138.009 167.085 137.777 167.085 137.161C167.085 136.546 165.695 136.075 164.551 136.158C163.407 136.242 160.673 135.155 160.354 133.827C160.036 132.498 159.815 131.821 158.812 131.05C157.809 130.278 153.718 123.175 153.718 123.175C153.718 123.175 151.324 121.401 151.401 120.014C151.477 118.627 150.629 116.462 149.626 115.611C148.623 114.76 141.527 109.594 138.29 111.444Z" fill="#DCE6F2"/>
<path opacity="0.1" d="M160.521 136.296C160.521 136.296 157.201 139.616 158.049 140.232L160.521 136.296Z" fill="black"/>
<path opacity="0.1" d="M164.069 138.921C164.069 138.921 159.746 142.241 160.905 142.473C162.063 142.704 164.069 138.921 164.069 138.921Z" fill="black"/>
<path opacity="0.1" d="M156.734 143.845C157.353 144.156 166.535 149.638 170.011 149.558L156.734 143.845Z" fill="black"/>
<path opacity="0.1" d="M157.357 107.2C157.357 107.2 155.735 112.526 155.115 112.526C154.63 112.526 146.484 105.93 143.084 103.156L143.232 103.033C143.232 103.033 143.54 100.64 144.775 99.4123C146.009 98.1849 157.357 107.2 157.357 107.2Z" fill="black"/>
<path d="M157.045 106.581C157.045 106.581 155.427 111.907 154.807 111.907C154.319 111.907 146.172 105.31 142.772 102.537L142.921 102.414C142.921 102.414 143.232 100.021 144.467 98.7932C145.702 97.5658 157.045 106.581 157.045 106.581Z" fill="#DCE6F2"/>
<g opacity="0.15">
<path opacity="0.15" d="M135.188 89.3687C136.274 91.8488 139.264 93.0509 140.999 95.0277C139.967 92.5983 136.951 91.4071 135.188 89.3687Z" fill="black"/>
<path opacity="0.15" d="M146.256 95.0819C145.825 95.911 144.808 96.3129 143.881 96.2948C143.057 96.2357 142.25 96.0297 141.499 95.6865C141.771 96.0884 141.979 96.5307 142.114 96.9972C142.959 97.4034 143.873 97.649 144.808 97.7213C145.746 97.7431 146.752 97.3412 147.183 96.5084C147.874 95.1869 147.154 94.0572 146.31 92.9891C146.468 93.3174 146.545 93.6782 146.535 94.042C146.526 94.4059 146.43 94.7623 146.256 95.0819Z" fill="black"/>
<path opacity="0.15" d="M159.692 76.9352C159.536 76.24 159.007 75.6933 158.736 75.038C158.57 74.5309 158.438 74.0132 158.341 73.4883C158.136 72.7462 157.754 72.0644 157.23 71.5006C157.303 71.6788 157.364 71.8614 157.414 72.0473C157.516 72.5745 157.651 73.0945 157.82 73.6042C158.091 74.2595 158.62 74.8063 158.776 75.5014C158.868 75.9925 158.769 76.5001 158.5 76.9211C158.231 77.3421 157.812 77.6449 157.328 77.768C155.988 78.0612 154.46 76.9026 153.309 77.6485C152.603 78.1011 152.44 79.046 152.346 79.8788C152.184 81.3271 152.02 82.7669 151.853 84.1982C151.82 84.706 151.713 85.2062 151.534 85.6827C150.966 86.9861 149.406 87.598 147.983 87.5763C147.427 87.6134 146.878 87.4315 146.455 87.0694C146.249 86.7779 146.028 86.4975 145.792 86.2294C143.982 84.7087 143.431 88.4272 143.909 89.488C144.149 89.9652 144.445 90.4115 144.793 90.8168C144.395 89.622 144.952 86.1824 146.719 87.656C146.955 87.9232 147.175 88.2036 147.378 88.496C147.803 88.8576 148.353 89.0394 148.91 89.0028C150.332 89.0246 151.893 88.4127 152.461 87.1092C152.64 86.6316 152.748 86.1302 152.78 85.6212C152.944 84.1729 153.108 82.7343 153.272 81.3053C153.367 80.4726 153.529 79.5276 154.232 79.075C155.387 78.3292 156.915 79.4878 158.254 79.1909C158.735 79.0663 159.15 78.7644 159.417 78.3459C159.684 77.9273 159.782 77.4233 159.692 76.9352Z" fill="black"/>
</g>
<path opacity="0.1" d="M239.853 100.064C239.468 100.136 239.072 100.126 238.691 100.035C237.233 99.7406 235.92 98.9561 234.969 97.8121C234.444 97.1748 234.031 96.3059 234.35 95.5455C234.603 94.9336 235.27 94.5499 235.436 93.9126C235.511 93.5236 235.49 93.1221 235.375 92.7431L234.984 90.9582C234.871 90.4513 234.676 89.8539 234.172 89.7344C233.669 89.6149 233.249 90.0277 232.855 90.339C231.888 91.103 230.03 91.6244 228.872 90.9944C227.713 90.3644 228.035 88.2716 227.847 87.1384C227.844 87.0406 227.82 86.9446 227.776 86.8571C227.732 86.7696 227.67 86.6926 227.594 86.6315C227.424 86.5724 227.242 86.5587 227.065 86.5916C226.439 86.5916 225.939 86.0304 225.754 85.4294C225.629 84.8155 225.56 84.1913 225.548 83.5648C225.476 82.942 225.251 82.2758 224.712 81.9536C224.286 81.7533 223.815 81.672 223.347 81.7182L220.66 81.7472C219.998 81.7472 219.212 81.7038 218.85 81.1534C218.488 80.6031 218.756 79.821 219.136 79.2598C219.516 78.6986 219.998 78.141 220.03 77.4495C220.063 76.7579 219.614 76.1605 219.248 75.5812C219.038 75.2644 218.884 74.9143 218.792 74.5457L218.021 74.4987C217.72 75.1142 218.021 75.8492 218.383 76.4321C218.745 77.015 219.197 77.6124 219.165 78.2967C219.132 78.981 218.651 79.5314 218.271 80.1071C217.89 80.6827 217.612 81.4358 217.988 82.0007C218.365 82.5655 219.129 82.6053 219.799 82.5981L222.485 82.5655C222.953 82.5202 223.425 82.6028 223.85 82.8044C224.389 83.1267 224.618 83.7929 224.686 84.4156C224.698 85.0424 224.768 85.6667 224.896 86.2803C225.077 86.8777 225.581 87.4497 226.207 87.4389C226.383 87.4078 226.563 87.4215 226.732 87.4787C226.809 87.5404 226.871 87.618 226.915 87.7062C226.959 87.7943 226.983 87.8909 226.986 87.9892C227.174 89.1189 226.826 91.2152 228.01 91.8452C229.194 92.4752 231.041 91.9538 231.993 91.1899C232.388 90.8785 232.826 90.4658 233.314 90.5816C233.803 90.6975 234.013 91.3057 234.122 91.8054L234.516 93.594C234.631 93.9732 234.651 94.3748 234.574 94.7635C234.393 95.3971 233.724 95.7845 233.47 96.3928C233.155 97.1531 233.564 98.0257 234.089 98.6593C235.046 99.8083 236.369 100.593 237.837 100.882C238.218 100.973 238.614 100.983 238.999 100.911C239.621 100.722 240.155 100.316 240.505 99.7672C240.307 99.9043 240.087 100.005 239.853 100.064Z" fill="black"/>
<path opacity="0.1" d="M73.7486 259.966C78.5817 259.966 82.4997 259.365 82.4997 258.623C82.4997 257.881 78.5817 257.28 73.7486 257.28C68.9156 257.28 64.9976 257.881 64.9976 258.623C64.9976 259.365 68.9156 259.966 73.7486 259.966Z" fill="#080B24"/>
<path opacity="0.1" d="M379.302 225.042C384.135 225.042 388.053 224.44 388.053 223.698C388.053 222.957 384.135 222.355 379.302 222.355C374.469 222.355 370.551 222.957 370.551 223.698C370.551 224.44 374.469 225.042 379.302 225.042Z" fill="#080B24"/>
<path opacity="0.1" d="M290.086 281.716C304.084 281.716 315.431 279.975 315.431 277.827C315.431 275.679 304.084 273.938 290.086 273.938C276.089 273.938 264.742 275.679 264.742 277.827C264.742 279.975 276.089 281.716 290.086 281.716Z" fill="#080B24"/>
<path opacity="0.1" d="M362.133 264.388C373.051 264.388 381.902 263.029 381.902 261.353C381.902 259.678 373.051 258.319 362.133 258.319C351.215 258.319 342.364 259.678 342.364 261.353C342.364 263.029 351.215 264.388 362.133 264.388Z" fill="#080B24"/>
<path opacity="0.1" d="M358.878 296.731C377.392 296.731 392.401 294.427 392.401 291.586C392.401 288.744 377.392 286.441 358.878 286.441C340.363 286.441 325.354 288.744 325.354 291.586C325.354 294.427 340.363 296.731 358.878 296.731Z" fill="#080B24"/>
<path opacity="0.1" d="M36.2932 300C50.2906 300 61.6377 298.259 61.6377 296.111C61.6377 293.964 50.2906 292.223 36.2932 292.223C22.2958 292.223 10.9487 293.964 10.9487 296.111C10.9487 298.259 22.2958 300 36.2932 300Z" fill="#080B24"/>
<path d="M74.1468 215.842C74.1468 215.842 75.1389 217.138 73.6906 219.1C72.2424 221.063 71.0475 222.721 71.5182 223.93C71.5182 223.93 73.6906 220.31 75.5009 220.244C77.3112 220.179 76.1056 218.029 74.1468 215.842Z" fill="#080B24"/>
<path opacity="0.1" d="M74.1474 215.842C74.2359 215.965 74.3043 216.102 74.3502 216.247C76.0881 218.289 77.0114 220.19 75.3422 220.23C73.789 220.273 71.9243 223.054 71.479 223.756C71.4926 223.811 71.5095 223.864 71.5297 223.916C71.5297 223.916 73.7021 220.295 75.5124 220.23C77.3227 220.165 76.1062 218.029 74.1474 215.842Z" fill="black"/>
<path d="M75.9934 217.493C75.9934 217.949 75.9391 218.318 75.8776 218.318C75.816 218.318 75.7617 217.956 75.7617 217.493C75.7617 217.029 75.8269 217.254 75.8884 217.254C75.95 217.254 75.9934 217.036 75.9934 217.493Z" fill="#FFD037"/>
<path d="M76.6236 218.039C76.2254 218.257 75.8742 218.402 75.8452 218.333C75.8162 218.264 76.1131 218.058 76.515 217.837C76.9169 217.616 76.7576 217.779 76.7866 217.837C76.8155 217.895 77.0255 217.819 76.6236 218.039Z" fill="#FFD037"/>
<path d="M68.9117 215.842C68.9117 215.842 67.9197 217.138 69.3679 219.1C70.8162 221.063 72.0146 222.721 71.5403 223.93C71.5403 223.93 69.3679 220.31 67.5757 220.244C65.7835 220.179 66.9421 218.029 68.9117 215.842Z" fill="#080B24"/>
<path opacity="0.1" d="M68.9118 215.842C68.8252 215.967 68.757 216.103 68.709 216.247C66.9711 218.289 66.0478 220.19 67.717 220.23C69.2702 220.273 71.1348 223.054 71.5838 223.756C71.569 223.811 71.5508 223.864 71.5295 223.916C71.5295 223.916 69.3571 220.295 67.5649 220.23C65.7727 220.165 66.9421 218.029 68.9118 215.842Z" fill="black"/>
<path d="M67.0688 217.493C67.0688 217.949 67.1195 218.318 67.1811 218.318C67.2426 218.318 67.2969 217.956 67.2969 217.493C67.2969 217.029 67.2318 217.254 67.1702 217.254C67.1087 217.254 67.0688 217.036 67.0688 217.493Z" fill="#FFD037"/>
<path d="M66.4349 218.039C66.8368 218.257 67.1844 218.402 67.217 218.333C67.2496 218.264 66.9454 218.058 66.5435 217.837C66.1416 217.616 66.3009 217.779 66.272 217.837C66.243 217.895 66.033 217.819 66.4349 218.039Z" fill="#FFD037"/>
<path opacity="0.1" d="M71.5295 233.843C77.2544 233.843 81.8954 233.132 81.8954 232.254C81.8954 231.376 77.2544 230.665 71.5295 230.665C65.8045 230.665 61.1636 231.376 61.1636 232.254C61.1636 233.132 65.8045 233.843 71.5295 233.843Z" fill="#080B24"/>
<path d="M76.8663 222.178L76.8156 222.583L76.7468 223.155L76.7178 223.394L76.649 223.966L76.6164 224.205L76.5476 224.777L75.7547 231.295C75.6859 231.874 74.7373 232.326 73.5823 232.326H69.4765C68.3324 232.326 67.3838 231.874 67.3041 231.295L66.5112 224.777L66.4424 224.205L66.4135 223.966L66.341 223.394L66.3121 223.155L66.2433 222.583L66.1926 222.178C66.1528 221.848 66.6669 221.573 67.315 221.573H75.7475C76.392 221.573 76.9061 221.848 76.8663 222.178Z" fill="#65617D"/>
<path d="M76.8154 222.583L76.7466 223.155H66.312L66.2432 222.583H76.8154Z" fill="#9D9CB5"/>
<path d="M76.7181 223.394L76.6493 223.966H66.4137L66.3413 223.394H76.7181Z" fill="#9D9CB5"/>
<path d="M76.62 224.205L76.5476 224.777H66.5112L66.4424 224.205H76.62Z" fill="#9D9CB5"/>
<path d="M372.404 210.827C372.404 210.827 371.166 216.591 376.673 217.272L377.013 216.631C377.013 216.631 372.745 212.616 372.404 210.827Z" fill="#080B24"/>
<path d="M378.766 216.584L377.484 216.855L377.357 216.884C377.357 216.884 373.939 214.111 373.983 207.92C374.44 208.833 374.987 209.697 375.616 210.501C376.97 212.293 378.509 214.683 378.766 216.584Z" fill="#080B24"/>
<path d="M379.197 217.178C379.096 217.243 378.982 217.285 378.863 217.301C378.744 217.317 378.623 217.305 378.509 217.268C375.221 216.501 376.336 205.787 376.336 205.787C376.518 205.87 376.699 207.235 377.473 208.995C378.795 212.083 380.254 216.403 379.197 217.178Z" fill="#080B24"/>
<path d="M386.489 210.827C386.489 210.827 386.703 216.591 381.196 217.272L380.852 216.62C380.852 216.62 386.149 212.616 386.489 210.827Z" fill="#080B24"/>
<path d="M384.91 207.931C384.953 214.122 380.514 216.895 380.514 216.895L380.384 216.866L379.106 216.595C379.359 214.694 380.916 212.304 382.252 210.512C383.019 209.537 383.913 208.669 384.91 207.931Z" fill="#080B24"/>
<path d="M380.366 216.62C380.172 216.861 379.924 217.053 379.642 217.181C379.555 217.221 379.464 217.251 379.371 217.272C378.563 217.46 378.285 216.877 378.328 215.885C378.404 214.122 379.512 211.062 380.5 208.77C380.976 207.646 381.679 206.632 382.564 205.791C382.564 205.791 382.514 214.129 380.366 216.62Z" fill="#080B24"/>
<path d="M379.446 202.029C379.446 202.029 375.775 215.063 378.936 217.011C382.097 218.959 380.257 203.18 379.446 202.029Z" fill="#080B24"/>
<path opacity="0.1" d="M372.404 210.827C372.404 210.827 371.166 216.591 376.673 217.272L377.013 216.631C377.013 216.631 372.745 212.616 372.404 210.827Z" fill="black"/>
<path opacity="0.1" d="M378.766 216.584L377.484 216.855L377.357 216.884C377.357 216.884 373.939 214.111 373.983 207.92C374.44 208.833 374.987 209.697 375.616 210.501C376.97 212.293 378.509 214.683 378.766 216.584Z" fill="black"/>
<path opacity="0.1" d="M379.197 217.178C379.096 217.243 378.982 217.285 378.863 217.301C378.744 217.317 378.623 217.305 378.509 217.268C375.221 216.501 376.336 205.787 376.336 205.787C376.518 205.87 376.699 207.235 377.473 208.995C378.795 212.083 380.254 216.403 379.197 217.178Z" fill="black"/>
<path opacity="0.1" d="M386.489 210.827C386.489 210.827 386.703 216.591 381.196 217.272L380.852 216.62C380.852 216.62 386.149 212.616 386.489 210.827Z" fill="black"/>
<path opacity="0.1" d="M384.91 207.931C384.953 214.122 380.514 216.895 380.514 216.895L380.384 216.866L379.106 216.595C379.359 214.694 380.916 212.304 382.252 210.512C383.019 209.537 383.913 208.669 384.91 207.931Z" fill="black"/>
<path opacity="0.1" d="M380.366 216.62C380.172 216.861 379.924 217.053 379.642 217.181C379.555 217.221 379.464 217.251 379.371 217.272C378.563 217.46 378.285 216.877 378.328 215.885C378.404 214.122 379.512 211.062 380.5 208.77C380.976 207.646 381.679 206.632 382.564 205.791C382.564 205.791 382.514 214.129 380.366 216.62Z" fill="black"/>
<path opacity="0.1" d="M379.446 202.029C379.446 202.029 375.775 215.063 378.936 217.011C382.097 218.959 380.257 203.18 379.446 202.029Z" fill="black"/>
<path d="M372.405 210.827C372.405 210.827 371.681 216.591 377.184 217.272L377.525 216.631C377.525 216.631 372.745 212.616 372.405 210.827Z" fill="#080B24"/>
<path d="M379.277 216.584L377.995 216.855L377.868 216.884C377.868 216.884 373.94 214.111 373.972 207.931C373.972 207.931 374.979 209.017 376.116 210.512C377.481 212.293 379.019 214.683 379.277 216.584Z" fill="#080B24"/>
<path opacity="0.1" d="M379.277 216.584L377.995 216.855C376.782 215.791 376.301 213.01 376.127 210.501C377.481 212.293 379.02 214.683 379.277 216.584Z" fill="black"/>
<path d="M379.711 217.178C379.61 217.243 379.495 217.285 379.376 217.301C379.256 217.317 379.134 217.306 379.02 217.268C375.732 216.501 376.333 205.787 376.333 205.787C376.514 205.87 377.224 207.235 377.98 208.995C379.309 212.083 380.765 216.403 379.711 217.178Z" fill="#080B24"/>
<path d="M386.489 210.827C386.489 210.827 387.213 216.591 381.71 217.272L381.37 216.631C381.37 216.631 386.149 212.616 386.489 210.827Z" fill="#080B24"/>
<path d="M384.911 207.931C384.954 214.122 381.026 216.895 381.026 216.895L380.899 216.866L379.617 216.595C379.871 214.694 381.428 212.304 382.767 210.512C383.904 209.017 384.911 207.931 384.911 207.931Z" fill="#080B24"/>
<path opacity="0.1" d="M382.767 210.501C382.601 212.84 382.173 215.414 381.134 216.617C381.063 216.703 380.984 216.783 380.899 216.855L379.617 216.584C379.871 214.683 381.413 212.293 382.767 210.501Z" fill="black"/>
<path d="M380.877 216.62C380.683 216.862 380.435 217.054 380.152 217.181C380.066 217.22 379.977 217.25 379.885 217.272C379.074 217.46 378.798 216.877 378.838 215.885C378.918 214.122 380.026 211.062 381.011 208.77C381.735 207.123 382.39 205.874 382.564 205.791C382.564 205.787 383.024 214.129 380.877 216.62Z" fill="#080B24"/>
<path opacity="0.1" d="M379.711 217.178C379.524 217.18 379.341 217.121 379.19 217.011C377.644 216.048 377.611 212.434 377.98 208.995C379.309 212.083 380.764 216.403 379.711 217.178Z" fill="black"/>
<path opacity="0.1" d="M380.877 216.62C380.7 217.007 380.461 217.21 380.153 217.181C379.996 217.162 379.845 217.105 379.715 217.015C379.312 216.739 379.006 216.344 378.839 215.885C378.919 214.122 380.026 211.062 381.011 208.771C381.366 211.946 381.486 215.313 380.877 216.62Z" fill="black"/>
<path d="M379.447 202.029C379.447 202.029 376.289 215.063 379.447 217.011C382.604 218.959 380.258 203.18 379.447 202.029Z" fill="#080B24"/>
<path d="M385.507 216.374H372.361V218.55H374.367L374.417 218.807L375.221 223.032H382.864L383.668 218.807L383.715 218.55H385.507V216.374Z" fill="#4B4770"/>
<path opacity="0.1" d="M385.507 216.374H372.361V218.55H374.367L374.417 218.807L375.221 223.032H382.864L383.668 218.807L383.715 218.55H385.507V216.374Z" fill="black"/>
<path d="M384.4 217.652L384.179 218.807L383.375 223.032H375.732L374.928 218.807L374.708 217.652H384.4Z" fill="#4B4770"/>
<path opacity="0.1" d="M384.4 217.652L384.179 218.807H374.928L374.708 217.652H384.4Z" fill="black"/>
<path d="M386.019 216.374H372.872V218.55H386.019V216.374Z" fill="#4B4770"/>
<path d="M50.4677 253.609C50.1211 254.087 49.8432 254.611 49.6422 255.166C49.5915 255.3 49.5408 255.455 49.4901 255.604C49.3983 255.561 49.3025 255.527 49.2041 255.502C48.7821 255.396 48.3454 255.359 47.9115 255.394C47.9115 255.224 47.9333 255.032 47.9369 254.862C47.9912 252.953 47.7667 250.296 45.9455 251.422C44.2004 252.508 45.4459 254.318 46.5719 255.477C46.6697 255.578 46.7674 255.673 46.8615 255.763C45.8333 256.487 45.6378 258.2 45.4676 259.977C45.2974 261.755 43.7876 263.7 42.7847 264.804C42.6833 264.916 42.5928 265.017 42.5023 265.112C42.0969 264.788 41.6276 264.554 41.1252 264.425C40.6229 264.296 40.0989 264.274 39.5877 264.362C39.5479 264.206 39.5008 264.043 39.4537 263.873C38.6427 260.944 36.9591 255.872 34.8121 254.76L35.0945 254.398C36.0069 253.207 37.0351 251.433 35.5181 250.98C34.001 250.528 33.8634 252.515 33.9467 254.007C33.9612 254.195 33.9757 254.373 33.9902 254.539C33.6869 254.553 33.3897 254.629 33.1169 254.762C32.8441 254.896 32.6016 255.083 32.4043 255.314L32.169 255.035C30.938 253.587 28.6823 251.281 27.998 253.022C27.3608 254.644 29.3485 256.752 30.7461 257.972L30.833 258.048C29.8952 261.853 33.9902 264.956 36.1951 266.314L36.4812 266.487C33.4398 270.072 31.5607 276.792 31.5607 276.792L40.0765 278.312C40.0765 278.312 45.7247 273.439 45.0005 268.863H45.0585C50.703 267.733 51.9847 261.715 51.1049 258.142L51.2063 258.102C52.2347 257.681 53.1357 257 53.8204 256.125C55.399 253.935 52.097 251.458 50.4677 253.609Z" fill="#080B24"/>
<path opacity="0.1" d="M50.4677 253.609C50.1211 254.087 49.8432 254.611 49.6422 255.166C49.5915 255.3 49.5408 255.455 49.4901 255.604C49.3983 255.561 49.3025 255.527 49.2041 255.502C48.7821 255.396 48.3454 255.359 47.9115 255.394C47.9115 255.224 47.9333 255.032 47.9369 254.862C47.9912 252.953 47.7667 250.296 45.9455 251.422C44.2004 252.508 45.4459 254.318 46.5719 255.477C46.6697 255.578 46.7674 255.673 46.8615 255.763C45.8333 256.487 45.6378 258.2 45.4676 259.977C45.2974 261.755 43.7876 263.7 42.7847 264.804C42.6833 264.916 42.5928 265.017 42.5023 265.112C42.0969 264.788 41.6276 264.554 41.1252 264.425C40.6229 264.296 40.0989 264.274 39.5877 264.362C39.5479 264.206 39.5008 264.043 39.4537 263.873C38.6427 260.944 36.9591 255.872 34.8121 254.76L35.0945 254.398C36.0069 253.207 37.0351 251.433 35.5181 250.98C34.001 250.528 33.8634 252.515 33.9467 254.007C33.9612 254.195 33.9757 254.373 33.9902 254.539C33.6869 254.553 33.3897 254.629 33.1169 254.762C32.8441 254.896 32.6016 255.083 32.4043 255.314L32.169 255.035C30.938 253.587 28.6823 251.281 27.998 253.022C27.3608 254.644 29.3485 256.752 30.7461 257.972L30.833 258.048C29.8952 261.853 33.9902 264.956 36.1951 266.314L36.4812 266.487C33.4398 270.072 31.5607 276.792 31.5607 276.792L40.0765 278.312C40.0765 278.312 45.7247 273.439 45.0005 268.863H45.0585C50.703 267.733 51.9847 261.715 51.1049 258.142L51.2063 258.102C52.2347 257.681 53.1357 257 53.8204 256.125C55.399 253.935 52.097 251.458 50.4677 253.609Z" fill="black"/>
<path d="M33.5165 256.085L32.5208 258.982C32.5208 258.982 31.9668 258.591 31.2681 257.975C29.8705 256.755 27.8828 254.648 28.52 253.026C29.2043 251.284 31.4599 253.583 32.691 255.039C33.187 255.618 33.5165 256.085 33.5165 256.085Z" fill="#080B24"/>
<path d="M35.6162 254.402C35.3138 254.8 34.9898 255.182 34.6459 255.546C34.5609 255.037 34.5017 254.525 34.4685 254.011C34.3852 252.519 34.5445 250.538 36.0398 250.984C37.5352 251.429 36.5286 253.211 35.6162 254.402Z" fill="#080B24"/>
<path d="M48.4766 254.862C48.4477 255.821 48.3535 256.589 48.3535 256.589C47.9156 256.246 47.5007 255.875 47.1116 255.477C45.9856 254.308 44.7401 252.505 46.4853 251.422C48.2884 250.292 48.5128 252.953 48.4766 254.862Z" fill="#080B24"/>
<path d="M54.3421 256.118C53.6574 256.993 52.7564 257.674 51.728 258.094C51.4425 258.218 51.1499 258.324 50.8518 258.413L49.6787 256.766C49.8019 256.221 49.964 255.686 50.1639 255.165C50.3649 254.61 50.6428 254.086 50.9894 253.608C52.6114 251.458 55.9207 253.934 54.3421 256.118Z" fill="#080B24"/>
<path opacity="0.1" d="M32.691 255.039C33.187 255.618 33.5165 256.067 33.5165 256.067L32.5208 258.964C32.5208 258.964 31.9669 258.573 31.2681 257.957C31.4233 257.024 31.8091 256.144 32.3905 255.397C32.4882 255.278 32.5932 255.155 32.691 255.039Z" fill="black"/>
<path opacity="0.1" d="M35.6165 254.402C35.314 254.8 34.9901 255.182 34.6462 255.546C34.5612 255.037 34.502 254.525 34.4688 254.01C34.8826 254.019 35.2835 254.156 35.6165 254.402Z" fill="black"/>
<path d="M40.5112 265.973L38.0346 267.06C38.0346 267.06 37.4952 266.799 36.7167 266.314C34.1135 264.713 28.8817 260.684 32.372 255.933C35.8623 251.183 38.8058 259.702 39.9753 263.87C40.3265 265.137 40.5112 265.973 40.5112 265.973Z" fill="#080B24"/>
<path opacity="0.1" d="M47.0938 255.477C47.454 255.106 47.942 254.886 48.4587 254.862C48.4298 255.821 48.3356 256.589 48.3356 256.589C47.8977 256.246 47.4828 255.875 47.0938 255.477Z" fill="black"/>
<path opacity="0.1" d="M51.7353 258.095C51.4498 258.218 51.1573 258.325 50.8591 258.413L49.686 256.766C49.8092 256.221 49.9713 255.687 50.1712 255.166C50.9207 255.607 51.4783 256.708 51.7353 258.095Z" fill="black"/>
<path d="M45.5802 268.855C45.4463 268.884 45.3051 268.91 45.1639 268.931C36.8617 270.191 42.4267 265.713 42.4267 265.713C42.4267 265.713 42.7887 265.35 43.3065 264.804C44.3094 263.699 45.8156 261.766 45.9894 259.977C46.2501 257.287 46.5506 254.764 49.7259 255.502C52.8432 256.234 53.4407 267.28 45.5802 268.855Z" fill="#080B24"/>
<path d="M45.4245 289.526H29.5625V293.697H45.4245V289.526Z" fill="#D4DFEC"/>
<path d="M47.767 275.97H27.0425V290.525H47.767V275.97Z" fill="#D4DFEC"/>
<path opacity="0.1" d="M45.4245 289.526H29.5625V293.697H45.4245V289.526Z" fill="black"/>
<path opacity="0.1" d="M47.767 275.97H27.0425V290.525H47.767V275.97Z" fill="black"/>
<path d="M46.4675 289.526H30.6055V293.697H46.4675V289.526Z" fill="#D4DFEC"/>
<path opacity="0.1" d="M39.9754 263.873C40.3374 265.119 40.5112 265.973 40.5112 265.973L38.0347 267.059C38.0347 267.059 37.4952 266.799 36.7168 266.314C37.6871 265.086 38.7806 264.159 39.9754 263.873Z" fill="black"/>
<path opacity="0.1" d="M45.5802 268.855C45.4463 268.884 45.3051 268.91 45.1639 268.931C36.8617 270.191 42.4267 265.713 42.4267 265.713C42.4267 265.713 42.7887 265.351 43.3065 264.804C44.8561 266.046 45.497 267.443 45.5802 268.855Z" fill="black"/>
<path d="M32.0825 276.795C32.0825 276.795 36.7314 260.14 43.2522 265.278C49.773 270.416 40.5983 278.312 40.5983 278.312L32.0825 276.795Z" fill="#080B24"/>
<path opacity="0.1" d="M34.4286 259.065C34.7165 259.065 34.95 258.832 34.95 258.544C34.95 258.256 34.7165 258.022 34.4286 258.022C34.1407 258.022 33.9072 258.256 33.9072 258.544C33.9072 258.832 34.1407 259.065 34.4286 259.065Z" fill="black"/>
<path opacity="0.1" d="M34.3851 261.498C34.6731 261.498 34.9065 261.265 34.9065 260.977C34.9065 260.689 34.6731 260.455 34.3851 260.455C34.0972 260.455 33.8638 260.689 33.8638 260.977C33.8638 261.265 34.0972 261.498 34.3851 261.498Z" fill="black"/>
<path opacity="0.1" d="M49.5087 259.543C49.7966 259.543 50.03 259.31 50.03 259.022C50.03 258.734 49.7966 258.5 49.5087 258.5C49.2207 258.5 48.9873 258.734 48.9873 259.022C48.9873 259.31 49.2207 259.543 49.5087 259.543Z" fill="black"/>
<path opacity="0.1" d="M37.3431 272.016C37.6311 272.016 37.8645 271.783 37.8645 271.495C37.8645 271.207 37.6311 270.973 37.3431 270.973C37.0552 270.973 36.8218 271.207 36.8218 271.495C36.8218 271.783 37.0552 272.016 37.3431 272.016Z" fill="black"/>
<path opacity="0.1" d="M48.4223 263.584C48.7102 263.584 48.9436 263.35 48.9436 263.062C48.9436 262.774 48.7102 262.541 48.4223 262.541C48.1343 262.541 47.9009 262.774 47.9009 263.062C47.9009 263.35 48.1343 263.584 48.4223 263.584Z" fill="black"/>
<path opacity="0.1" d="M43.035 268.975C43.323 268.975 43.5564 268.741 43.5564 268.453C43.5564 268.165 43.323 267.932 43.035 267.932C42.7471 267.932 42.5137 268.165 42.5137 268.453C42.5137 268.741 42.7471 268.975 43.035 268.975Z" fill="black"/>
<path opacity="0.1" d="M36.2099 260.108C36.4978 260.108 36.7312 259.874 36.7312 259.586C36.7312 259.298 36.4978 259.065 36.2099 259.065C35.9219 259.065 35.6885 259.298 35.6885 259.586C35.6885 259.874 35.9219 260.108 36.2099 260.108Z" fill="black"/>
<path opacity="0.1" d="M48.0746 261.107C48.3625 261.107 48.596 260.874 48.596 260.586C48.596 260.298 48.3625 260.064 48.0746 260.064C47.7866 260.064 47.5532 260.298 47.5532 260.586C47.5532 260.874 47.7866 261.107 48.0746 261.107Z" fill="black"/>
<path opacity="0.1" d="M46.2933 265.148C46.5813 265.148 46.8147 264.914 46.8147 264.626C46.8147 264.338 46.5813 264.105 46.2933 264.105C46.0054 264.105 45.772 264.338 45.772 264.626C45.772 264.914 46.0054 265.148 46.2933 265.148Z" fill="black"/>
<path opacity="0.1" d="M40.8192 271.625C41.1072 271.625 41.3406 271.392 41.3406 271.104C41.3406 270.816 41.1072 270.582 40.8192 270.582C40.5313 270.582 40.2979 270.816 40.2979 271.104C40.2979 271.392 40.5313 271.625 40.8192 271.625Z" fill="black"/>
<path opacity="0.1" d="M39.6893 269.062C39.9773 269.062 40.2107 268.828 40.2107 268.54C40.2107 268.252 39.9773 268.019 39.6893 268.019C39.4014 268.019 39.168 268.252 39.168 268.54C39.168 268.828 39.4014 269.062 39.6893 269.062Z" fill="black"/>
<path opacity="0.1" d="M36.9921 263.28C37.28 263.28 37.5134 263.046 37.5134 262.758C37.5134 262.47 37.28 262.237 36.9921 262.237C36.7041 262.237 36.4707 262.47 36.4707 262.758C36.4707 263.046 36.7041 263.28 36.9921 263.28Z" fill="black"/>
<path opacity="0.1" d="M46.4675 289.526H30.6055V291.05H46.4675V289.526Z" fill="black"/>
<path d="M48.8095 275.97H28.085V290.525H48.8095V275.97Z" fill="#D4DFEC"/>
<path opacity="0.1" d="M41.514 273.971C41.802 273.971 42.0354 273.738 42.0354 273.45C42.0354 273.162 41.802 272.928 41.514 272.928C41.2261 272.928 40.9927 273.162 40.9927 273.45C40.9927 273.738 41.2261 273.971 41.514 273.971Z" fill="black"/>
<path opacity="0.1" d="M38.3861 274.623C38.6741 274.623 38.9075 274.39 38.9075 274.102C38.9075 273.814 38.6741 273.58 38.3861 273.58C38.0982 273.58 37.8647 273.814 37.8647 274.102C37.8647 274.39 38.0982 274.623 38.3861 274.623Z" fill="black"/>
<path opacity="0.1" d="M18.1031 22.6147C20.1947 22.6147 21.8903 20.9191 21.8903 18.8275C21.8903 16.7359 20.1947 15.0403 18.1031 15.0403C16.0115 15.0403 14.3159 16.7359 14.3159 18.8275C14.3159 20.9191 16.0115 22.6147 18.1031 22.6147Z" fill="#080B24"/>
<path opacity="0.1" d="M381.822 143.048C384.621 143.048 386.891 140.779 386.891 137.98C386.891 135.18 384.621 132.911 381.822 132.911C379.022 132.911 376.753 135.18 376.753 137.98C376.753 140.779 379.022 143.048 381.822 143.048Z" fill="#080B24"/>
<path opacity="0.1" d="M391.594 130.818C393.638 130.818 395.295 129.161 395.295 127.117C395.295 125.074 393.638 123.417 391.594 123.417C389.551 123.417 387.894 125.074 387.894 127.117C387.894 129.161 389.551 130.818 391.594 130.818Z" fill="#080B24"/>
<path opacity="0.1" d="M24.6207 10.1378C27.4201 10.1378 29.6895 7.8684 29.6895 5.06892C29.6895 2.26943 27.4201 0 24.6207 0C21.8212 0 19.5518 2.26943 19.5518 5.06892C19.5518 7.8684 21.8212 10.1378 24.6207 10.1378Z" fill="#080B24"/>
<path opacity="0.1" d="M5.0689 33.3101C7.86837 33.3101 10.1378 31.0406 10.1378 28.2412C10.1378 25.4417 7.86837 23.1722 5.0689 23.1722C2.26942 23.1722 0 25.4417 0 28.2412C0 31.0406 2.26942 33.3101 5.0689 33.3101Z" fill="#080B24"/>
<defs>
<linearGradient id="paint0_linear" x1="190.855" y1="280.908" x2="190.855" y2="68.9192" gradientUnits="userSpaceOnUse">
<stop stop-color="#808080" stop-opacity="0.25"/>
<stop offset="0.54" stop-color="#808080" stop-opacity="0.12"/>
<stop offset="1" stop-color="#808080" stop-opacity="0.1"/>
</linearGradient>
</defs>
</svg>
