<svg width="361" height="300" viewBox="0 0 361 300" fill="none" xmlns="http://www.w3.org/2000/svg">
<path d="M340.951 95.9687C340.951 108.455 337.983 118.733 332.835 127.538C331.136 130.438 329.207 133.198 327.067 135.793C308.142 158.859 272.957 171.484 241.156 191.934C147.286 252.296 137.118 155.571 141.357 95.9687C143.067 71.9188 152.466 49.8891 167.397 33.0215C170.533 29.474 173.92 26.1554 177.533 23.0913C194.484 8.70538 216.384 0 241.156 0C283.656 0 319.949 25.5445 334.339 61.5412C338.714 72.4954 340.958 84.1788 340.951 95.9687Z" fill="#080B24"/>
<path d="M262.419 21.6285L167.397 33.0215C170.533 29.474 173.921 26.1554 177.533 23.0913L262.419 21.6285Z" fill="#D0CDE1"/>
<path d="M332.835 127.538C331.136 130.438 329.207 133.198 327.067 135.793L245.674 126.036L332.835 127.538Z" fill="#D0CDE1"/>
<path d="M337.659 71.4394L199.715 53.6097L334.339 61.5412C335.632 64.7757 336.74 68.0803 337.659 71.4394Z" fill="#D0CDE1"/>
<path d="M150.715 25.5631C150.715 25.808 150.708 26.0495 150.686 26.2873C150.578 27.7617 150.142 29.1935 149.409 30.4785C148.675 31.7635 147.663 32.8693 146.447 33.7153C145.23 34.5614 143.84 35.1264 142.377 35.3692C140.913 35.612 139.414 35.5265 137.988 35.119C136.562 34.7114 135.245 33.992 134.134 33.0132C133.022 32.0344 132.143 30.8208 131.562 29.4608C130.98 28.1008 130.711 26.6287 130.772 25.1517C130.834 23.6747 131.225 22.23 131.918 20.9228C132.132 20.5132 132.378 20.1203 132.652 19.7476C133.845 18.0988 135.517 16.8542 137.442 16.1817C139.367 15.5092 141.452 15.4412 143.417 15.9869C145.382 16.5325 147.132 17.6656 148.43 19.2332C149.729 20.8008 150.514 22.7276 150.679 24.7536C150.704 25.0199 150.715 25.2897 150.715 25.5631Z" fill="#080B24"/>
<path d="M150.715 25.5631C150.715 25.8081 150.708 26.0495 150.686 26.2874L135.751 24.498L150.679 24.7537C150.704 25.0199 150.715 25.2898 150.715 25.5631Z" fill="#D0CDE1"/>
<path d="M147.152 30.5725L133.336 32.2305C132.944 31.7948 132.591 31.3256 132.281 30.8281L147.152 30.5725Z" fill="#D0CDE1"/>
<path d="M143.233 19.5667L131.918 20.9229C132.132 20.5132 132.378 20.1204 132.652 19.7477L143.233 19.5667Z" fill="#D0CDE1"/>
<path d="M287.428 204.544C287.313 204.76 287.193 204.97 287.062 205.17C286.273 206.422 285.214 207.483 283.962 208.275C282.71 209.068 281.296 209.572 279.823 209.751C278.351 209.93 276.857 209.78 275.45 209.31C274.043 208.841 272.759 208.065 271.691 207.039C270.623 206.013 269.799 204.763 269.277 203.379C268.756 201.995 268.55 200.512 268.676 199.039C268.803 197.567 269.257 196.14 270.006 194.864C270.755 193.588 271.78 192.495 273.007 191.664C273.389 191.402 273.791 191.17 274.208 190.969C276.038 190.07 278.1 189.751 280.117 190.056C282.133 190.362 284.008 191.276 285.487 192.676C286.966 194.076 287.978 195.894 288.388 197.885C288.798 199.877 288.585 201.945 287.777 203.812C287.674 204.059 287.557 204.302 287.428 204.544Z" fill="#080B24"/>
<path d="M287.427 204.544C287.312 204.76 287.192 204.97 287.061 205.17L274.711 196.613L287.777 203.812C287.673 204.059 287.556 204.302 287.427 204.544Z" fill="#D0CDE1"/>
<path d="M281.925 207.304L268.941 202.315C268.799 201.747 268.708 201.167 268.669 200.583L281.925 207.304Z" fill="#D0CDE1"/>
<path d="M283.64 195.752L273.007 191.664C273.389 191.403 273.79 191.17 274.208 190.969L283.64 195.752Z" fill="#D0CDE1"/>
<path d="M358.081 33.1786C358.253 33.3539 358.417 33.5317 358.568 33.7169C359.524 34.8475 360.214 36.1762 360.59 37.6064C360.965 39.0366 361.015 40.5323 360.737 41.9843C360.459 43.4364 359.86 44.8084 358.982 46.0003C358.105 47.1923 356.971 48.1742 355.665 48.8746C354.359 49.5749 352.912 49.9761 351.43 50.0488C349.949 50.1215 348.469 49.864 347.1 49.295C345.731 48.726 344.507 47.8598 343.516 46.7596C342.525 45.6593 341.793 44.3527 341.373 42.9349C341.24 42.4924 341.14 42.0405 341.075 41.583C340.774 39.5725 341.099 37.5184 342.006 35.6976C342.913 33.8768 344.358 32.377 346.147 31.4005C347.936 30.424 349.983 30.0177 352.011 30.2364C354.039 30.4552 355.95 31.2884 357.488 32.6238C357.693 32.7971 357.889 32.9828 358.081 33.1786Z" fill="#080B24"/>
<path d="M358.081 33.1785C358.252 33.3539 358.416 33.5317 358.568 33.7168L346.622 42.8271L357.488 32.6238C357.692 32.7971 357.889 32.9828 358.081 33.1785Z" fill="#D0CDE1"/>
<path d="M359.04 39.2439L350.311 50.0438C349.725 50.0047 349.143 49.9143 348.573 49.7735L359.04 39.2439Z" fill="#D0CDE1"/>
<path d="M348.524 34.0913L341.373 42.935C341.24 42.4925 341.14 42.0406 341.075 41.5831L348.524 34.0913Z" fill="#D0CDE1"/>
<path d="M170.932 216.375C170.932 216.375 192.823 217.284 192.823 222.738C192.823 228.192 168.195 222.738 168.195 222.738L170.932 216.375Z" fill="#A0616A"/>
<path d="M138.095 300L97.049 297.273L95.2247 275.458L86.1033 294.546L45.9692 289.092C46.8814 254.552 61.4756 220.92 62.3877 216.375C63.2998 211.83 65.4799 193.051 65.4799 193.051C69.4659 184.625 90.3538 183.834 106.727 184.598C113.513 184.907 119.533 185.489 123.246 185.907C125.699 186.179 127.15 186.379 127.15 186.379C133.689 193.097 137.904 202.25 140.494 212.476C149.834 249.316 138.095 300 138.095 300Z" fill="#2F2E41"/>
<path d="M92.4883 89.1204C105.082 89.1204 115.292 78.9465 115.292 66.3963C115.292 53.8462 105.082 43.6722 92.4883 43.6722C79.8943 43.6722 69.6848 53.8462 69.6848 66.3963C69.6848 78.9465 79.8943 89.1204 92.4883 89.1204Z" fill="#A0616A"/>
<path d="M76.9822 71.85C76.9822 71.85 70.5972 100.028 60.5637 108.209C50.5301 116.389 99.7856 108.209 99.7856 108.209C99.7856 108.209 88.84 90.0293 97.0492 81.8486C105.258 73.6679 76.9822 71.85 76.9822 71.85Z" fill="#A0616A"/>
<path d="M123.501 188.197L108.368 189.87L66.0362 194.56C66.0362 194.56 65.8356 194.024 65.4798 193.051C62.4059 184.698 47.6019 144.049 45.9692 131.842C44.1449 118.207 63.2998 101.846 63.2998 101.846C63.2998 101.846 81.5426 98.21 87.0154 98.21C92.4882 98.21 114.38 106.391 114.38 106.391L122.543 179.571L123.245 185.907L123.501 188.197Z" fill="#D0CDE1"/>
<path opacity="0.15" d="M140.494 212.476L109.819 194.56C109.819 194.56 109.28 192.815 108.368 189.87C107.912 188.397 107.356 186.616 106.727 184.598C103.187 173.272 97.2494 154.584 92.4881 140.931C85.191 120.025 120.764 178.199 120.764 178.199L122.543 179.571L123.245 185.907C125.699 186.179 127.149 186.379 127.149 186.379C133.689 193.097 137.903 202.25 140.494 212.476Z" fill="black"/>
<path d="M99.7854 108.209C99.7854 108.209 90.664 120.025 97.9611 140.931C105.258 161.837 115.292 194.56 115.292 194.56L168.196 225.465L175.493 216.375L126.237 178.199C126.237 178.199 124.413 109.117 115.292 106.391C106.17 103.664 99.7854 108.209 99.7854 108.209Z" fill="#D0CDE1"/>
<path d="M54.635 187.743C54.635 187.743 67.4049 214.103 72.8778 211.376C78.3506 208.649 59.1957 181.38 59.1957 181.38L54.635 187.743Z" fill="#A0616A"/>
<path d="M53.2663 115.48L4.92299 155.475C4.92299 155.475 -13.3198 168.2 20.4293 177.29C54.1785 186.379 56.9148 191.833 56.9148 191.833C56.9148 191.833 60.5634 180.017 65.1241 181.835L25.9022 162.746L57.827 143.658L53.2663 115.48Z" fill="#D0CDE1"/>
<path d="M33.8366 85.0475C36.3738 83.7953 41.9767 81.2683 46.7491 78.2237C46.4144 68.3192 47.6383 59.328 51.2211 54.562C53.2321 50.0118 57.4551 45.4561 60.7625 41.8685C68.8848 33.0583 86.845 28.1405 90.0304 32.5424C114.123 33.0164 116.66 51.8359 116.66 51.8359C116.535 59.7076 108.325 59.9567 101.133 59.6698C101.777 65.0438 100.061 70.6276 95.0907 73.1039C85.5868 77.8394 82.7356 83.9954 87.4876 88.2573C92.2396 92.5192 100.793 103.884 89.3884 106.725C77.9837 109.567 76.5581 115.249 79.8845 117.617C83.2109 119.985 72.2813 113.355 72.2813 113.355C72.2813 113.355 70.3806 124.72 60.4014 121.879C59.5071 121.624 58.6133 120.972 57.7346 119.996C55.0395 122.947 52.6351 124.692 50.823 124.701C40.4448 124.756 41.6893 113.301 41.6893 113.301C41.6893 113.301 29.3708 116.749 33.2146 115.363C37.0584 113.976 37.2231 108.121 27.0095 102.321C16.7959 96.5208 28.1075 87.8748 33.8366 85.0475Z" fill="#2F2E41"/>
<path d="M161.172 114.74L161.006 114.718L161.41 116.247C161.791 118.38 162.345 120.479 163.066 122.523L174.904 167.366C175.282 168.797 176.071 170.087 177.174 171.078C178.277 172.069 179.646 172.717 181.114 172.944L205.255 176.665C206.816 176.906 208.413 176.658 209.827 175.955C211.24 175.252 212.399 174.129 213.145 172.741L236.087 130.04C236.803 128.857 237.459 127.637 238.049 126.387L238.828 124.937L238.707 124.921C241.138 119.188 242.209 112.973 241.835 106.76C241.46 100.547 239.651 94.5041 236.548 89.1024C233.445 83.7007 229.132 79.0861 223.945 75.6183C218.759 72.1505 212.838 69.9232 206.646 69.1101C200.454 68.2969 194.156 68.9199 188.245 70.9304C182.334 72.9409 176.969 76.2846 172.568 80.7009C168.166 85.1172 164.848 90.4867 162.871 96.391C160.895 102.295 160.313 108.575 161.171 114.74H161.172Z" fill="#3F3D56"/>
<path d="M206.736 179.595C206.311 179.595 205.887 179.562 205.466 179.497L180.232 175.607C178.63 175.36 177.134 174.652 175.93 173.57C174.725 172.488 173.863 171.079 173.451 169.516L161.078 122.643C160.321 120.497 159.74 118.294 159.34 116.055L159.027 114.004C158.185 107.453 158.883 100.797 161.065 94.5605C163.247 88.3242 166.854 82.6787 171.601 78.0697C176.348 73.4608 182.105 70.0144 188.418 68.0028C194.731 65.9912 201.426 65.4694 207.976 66.4785L207.867 67.1803C201.388 66.1854 194.766 66.7131 188.529 68.7212C182.291 70.7293 176.611 74.1623 171.941 78.7462C167.271 83.3302 163.741 88.9383 161.632 95.1231C159.523 101.308 158.894 107.898 159.795 114.368L160.035 115.902C160.433 118.122 161.009 120.307 161.758 122.435L174.14 169.336C174.517 170.765 175.305 172.053 176.407 173.043C177.508 174.032 178.876 174.68 180.341 174.905L205.575 178.796C207.134 179.034 208.728 178.786 210.139 178.084C211.55 177.382 212.708 176.262 213.454 174.877L214.082 175.212C213.369 176.536 212.31 177.642 211.016 178.414C209.723 179.186 208.244 179.594 206.736 179.595Z" fill="#D0CDE1"/>
<path d="M213.138 124.932L197.784 166.709L198.649 167.025L214.003 125.248L213.138 124.932Z" fill="#D0CDE1"/>
<path d="M188.068 121.067L187.147 121.107L189.107 165.555L190.028 165.514L188.068 121.067Z" fill="#D0CDE1"/>
<path d="M204.603 200.845L172.269 195.861C172.029 195.822 171.813 195.69 171.67 195.494C171.527 195.298 171.467 195.053 171.504 194.813C171.542 194.574 171.673 194.358 171.869 194.214C172.065 194.07 172.31 194.01 172.551 194.045L204.885 199.03C205.005 199.048 205.121 199.089 205.225 199.152C205.329 199.214 205.42 199.296 205.492 199.394C205.564 199.491 205.616 199.602 205.645 199.72C205.674 199.837 205.679 199.959 205.66 200.079C205.642 200.199 205.6 200.313 205.536 200.417C205.473 200.52 205.39 200.61 205.292 200.681C205.194 200.752 205.082 200.804 204.964 200.832C204.846 200.86 204.723 200.864 204.603 200.845Z" fill="#3F3D56"/>
<path d="M205.432 194.003L173.098 189.018C172.978 189 172.862 188.959 172.758 188.897C172.654 188.834 172.563 188.752 172.491 188.654C172.419 188.557 172.367 188.446 172.338 188.329C172.309 188.211 172.304 188.089 172.323 187.969C172.341 187.85 172.383 187.735 172.447 187.631C172.51 187.528 172.593 187.438 172.691 187.367C172.789 187.296 172.901 187.245 173.019 187.216C173.137 187.188 173.26 187.184 173.38 187.203L205.714 192.188C205.834 192.205 205.95 192.247 206.054 192.309C206.158 192.372 206.248 192.454 206.32 192.551C206.392 192.649 206.444 192.76 206.473 192.877C206.502 192.995 206.508 193.117 206.489 193.236C206.471 193.356 206.428 193.471 206.365 193.574C206.302 193.678 206.219 193.768 206.121 193.839C206.022 193.91 205.911 193.961 205.793 193.989C205.675 194.017 205.552 194.022 205.432 194.003Z" fill="#3F3D56"/>
<path d="M206.262 187.16L173.927 182.175C173.687 182.137 173.472 182.005 173.328 181.809C173.185 181.613 173.125 181.368 173.163 181.128C173.2 180.888 173.331 180.673 173.527 180.529C173.723 180.385 173.968 180.324 174.209 180.36L206.543 185.345C206.784 185.383 206.999 185.515 207.142 185.711C207.286 185.908 207.345 186.152 207.308 186.392C207.271 186.632 207.14 186.847 206.944 186.991C206.748 187.135 206.502 187.196 206.262 187.16H206.262Z" fill="#3F3D56"/>
<path d="M187.432 204.827C193.845 205.816 199.598 203.055 200.28 198.661L177.054 195.081C176.372 199.475 181.018 203.838 187.432 204.827Z" fill="#3F3D56"/>
<path d="M199.054 116.131C197.674 115.918 196.533 114.832 195.907 114.103C195.702 113.864 195.502 113.617 195.302 113.368C194.573 112.464 193.885 111.611 192.927 111.166C190.812 110.182 188.319 111.556 186.162 113.029L185.64 112.272C188.013 110.651 190.779 109.154 193.317 110.333C194.469 110.869 195.258 111.847 196.02 112.793C196.214 113.034 196.408 113.274 196.607 113.506C197.258 114.263 198.555 115.49 199.946 115.207C200.532 115.037 201.077 114.749 201.548 114.362C201.906 114.095 202.285 113.857 202.681 113.649C203.484 113.266 204.383 113.127 205.264 113.252C206.146 113.376 206.971 113.757 207.636 114.347C207.873 114.571 208.097 114.808 208.308 115.056C208.723 115.527 209.114 115.971 209.623 116.133C210.377 116.373 211.173 115.944 212.016 115.491C212.886 115.023 213.786 114.539 214.806 114.658C214.839 114.662 214.873 114.667 214.906 114.672C216.721 114.951 217.558 116.952 218.031 118.445L217.152 118.722C216.509 116.692 215.725 115.683 214.698 115.57C213.967 115.485 213.232 115.88 212.454 116.299C211.479 116.823 210.469 117.366 209.344 117.008C208.59 116.769 208.094 116.206 207.615 115.662C207.426 115.439 207.225 115.226 207.013 115.025C206.484 114.563 205.831 114.265 205.134 114.167C204.438 114.068 203.727 114.175 203.09 114.472C202.737 114.659 202.399 114.873 202.08 115.112C201.508 115.577 200.844 115.916 200.131 116.107C199.776 116.179 199.411 116.187 199.054 116.131Z" fill="#D0CDE1"/>
</svg>
